<?xml version="1.0" standalone="no"?>
<!DOCTYPE svg PUBLIC "-//W3C//DTD SVG 20010904//EN"
 "http://www.w3.org/TR/2001/REC-SVG-20010904/DTD/svg10.dtd">
<svg version="1.0" xmlns="http://www.w3.org/2000/svg"
 width="952.000000pt" height="414.000000pt" viewBox="0 0 952.000000 414.000000"
 preserveAspectRatio="xMidYMid meet">

<g transform="translate(0.000000,414.000000) scale(0.100000,-0.100000)"
fill="#ffffff" stroke="none">
<path d="M4650 3713 c-195 -22 -398 -170 -490 -357 -37 -74 -69 -188 -70 -243
l0 -23 -1850 0 c-1227 0 -1850 -3 -1850 -10 0 -7 623 -10 1850 -10 l1850 0 0
-36 c0 -19 7 -67 16 -107 44 -193 161 -347 331 -435 114 -58 180 -74 303 -74
128 0 208 19 309 73 98 52 139 86 201 164 80 101 129 220 145 358 l7 57 1845
0 c1227 0 1842 3 1838 10 -4 7 -630 10 -1845 10 l-1839 0 -6 38 c-23 140 -55
227 -118 315 -144 201 -371 299 -627 270z m225 -28 c183 -38 354 -171 434
-336 52 -109 76 -226 67 -327 -14 -148 -76 -287 -177 -397 -50 -54 -166 -128
-243 -155 -218 -77 -471 -26 -637 127 -325 301 -258 829 130 1026 147 75 275
94 426 62z"/>
<path d="M4623 3545 c-78 -21 -112 -38 -179 -88 -69 -50 -110 -104 -157 -205
-70 -150 -41 -355 72 -496 66 -83 189 -157 289 -173 l32 -6 0 85 0 84 -54 23
c-164 68 -245 247 -185 406 30 79 112 164 187 190 l52 19 0 88 c0 48 -1 88 -2
87 -2 0 -26 -7 -55 -14z m37 -84 l0 -58 -45 -18 c-122 -46 -205 -161 -213
-295 -2 -41 1 -94 7 -116 25 -93 120 -198 207 -227 l39 -14 3 -63 3 -63 -37 6
c-65 11 -147 58 -209 121 -154 155 -186 356 -89 548 32 63 114 151 173 186 49
29 142 62 154 55 4 -2 7 -30 7 -62z"/>
<path d="M4810 3470 l0 -88 49 -17 c70 -23 134 -83 173 -162 27 -56 32 -77 32
-138 0 -133 -83 -252 -209 -300 l-45 -18 0 -83 c0 -96 -3 -94 89 -65 196 61
342 264 341 474 -1 211 -163 416 -372 470 l-58 15 0 -88z m85 40 c124 -43 214
-124 271 -244 66 -138 66 -269 0 -401 -45 -89 -84 -136 -154 -184 -53 -35
-138 -71 -169 -71 -9 0 -13 17 -13 59 l0 60 54 24 c73 34 127 85 167 159 32
58 34 70 34 153 0 78 -4 98 -28 147 -34 68 -118 149 -182 173 l-45 18 0 63 c0
35 2 64 3 64 2 0 30 -9 62 -20z"/>
<path d="M650 2190 c-94 -11 -165 -62 -207 -147 -22 -47 -28 -74 -31 -151 -8
-166 29 -257 122 -309 46 -25 60 -28 151 -28 55 0 121 4 148 8 l47 8 0 65 c0
60 -1 64 -23 64 -17 0 -28 -10 -40 -35 -23 -48 -70 -75 -130 -75 -119 0 -177
91 -177 281 0 116 21 182 74 235 76 76 185 67 231 -18 14 -27 27 -38 43 -38
21 0 22 4 22 64 l0 65 -57 6 c-32 3 -71 7 -88 8 -16 2 -55 0 -85 -3z"/>
<path d="M1239 2153 c-11 -26 -61 -145 -111 -263 -101 -241 -129 -296 -158
-305 -48 -15 -12 -25 90 -25 61 0 110 3 110 8 0 4 -15 14 -33 22 -41 19 -45
46 -17 121 l22 59 122 0 122 0 17 -53 c9 -30 17 -68 17 -86 0 -27 -5 -35 -30
-44 -16 -6 -30 -15 -30 -19 0 -4 52 -8 115 -8 63 0 115 2 115 5 0 3 -13 18
-30 33 -25 22 -46 74 -127 312 l-98 285 -38 3 c-36 3 -38 2 -58 -45z m86 -194
c25 -73 45 -139 45 -146 0 -10 -26 -13 -105 -13 -62 0 -105 4 -105 10 0 5 22
65 48 132 27 68 52 132 56 142 3 10 9 17 11 14 3 -3 26 -65 50 -139z"/>
<path d="M3389 2153 c-11 -26 -61 -145 -111 -263 -101 -241 -129 -296 -158
-305 -48 -15 -12 -25 90 -25 61 0 110 3 110 8 0 4 -15 14 -33 22 -41 19 -45
46 -17 121 l22 59 122 0 122 0 17 -53 c9 -30 17 -68 17 -86 0 -27 -5 -35 -30
-44 -16 -6 -30 -15 -30 -19 0 -4 52 -8 115 -8 63 0 115 2 115 5 0 3 -13 18
-30 33 -25 22 -46 74 -127 312 l-98 285 -38 3 c-36 3 -38 2 -58 -45z m86 -194
c25 -73 45 -139 45 -146 0 -10 -26 -13 -105 -13 -62 0 -105 4 -105 10 0 5 22
65 48 132 27 68 52 132 56 142 3 10 9 17 11 14 3 -3 26 -65 50 -139z"/>
<path d="M4873 2190 c-151 -22 -239 -144 -237 -330 1 -101 13 -149 53 -211 45
-71 100 -94 226 -94 55 0 121 4 148 8 l47 8 0 65 c0 61 -1 64 -25 64 -19 0
-29 -10 -45 -40 -25 -49 -64 -70 -128 -70 -96 0 -152 69 -172 211 -32 229 75
391 229 349 34 -9 48 -20 69 -55 19 -31 34 -44 50 -45 21 0 22 4 22 64 l0 65
-57 6 c-116 12 -129 12 -180 5z"/>
<path d="M5463 2189 c-60 -8 -129 -45 -167 -89 -36 -44 -66 -148 -66 -234 0
-143 45 -237 134 -284 44 -23 64 -27 136 -27 73 0 93 4 143 29 101 49 149 145
149 296 0 138 -49 242 -133 286 -39 20 -133 31 -196 23z m132 -55 c61 -40 95
-136 95 -269 0 -184 -59 -275 -178 -275 -106 0 -169 89 -179 251 -9 160 36
276 118 306 41 16 110 9 144 -13z"/>
<path d="M8188 2190 c-148 -18 -240 -137 -241 -315 -1 -153 43 -253 129 -296
42 -20 64 -24 149 -24 55 0 121 4 148 8 l47 8 0 65 c0 60 -1 64 -23 64 -16 0
-28 -11 -42 -37 -27 -50 -69 -73 -131 -73 -66 0 -109 29 -143 94 -21 41 -26
67 -29 149 -5 117 8 188 46 246 66 103 211 106 259 6 12 -25 23 -35 40 -35 22
0 23 4 23 64 l0 65 -57 6 c-32 3 -71 7 -88 8 -16 2 -56 0 -87 -3z"/>
<path d="M1650 2183 c0 -5 13 -15 29 -25 39 -22 44 -66 40 -338 -4 -226 -1
-211 -56 -247 -14 -10 5 -12 100 -12 72 -1 117 3 117 9 0 6 -7 10 -15 10 -8 0
-24 9 -35 20 -17 17 -20 33 -20 125 l0 105 78 0 c104 0 172 21 210 64 74 85
66 196 -19 258 -13 9 -53 22 -89 28 -75 11 -340 14 -340 3z m325 -47 c43 -18
64 -52 71 -112 6 -60 -17 -110 -61 -135 -16 -9 -63 -20 -102 -24 l-73 -7 0
146 0 146 65 0 c36 0 81 -6 100 -14z"/>
<path d="M2250 2183 c0 -5 14 -16 30 -25 l30 -17 0 -265 c0 -227 -2 -267 -16
-280 -8 -9 -22 -16 -30 -16 -8 0 -14 -4 -14 -10 0 -6 43 -10 110 -10 67 0 110
4 110 10 0 6 -6 10 -14 10 -8 0 -22 7 -30 16 -14 13 -16 53 -16 280 l0 265 30
17 c16 9 30 20 30 25 0 4 -49 7 -110 7 -60 0 -110 -3 -110 -7z"/>
<path d="M2580 2110 c0 -77 1 -80 24 -80 18 0 27 9 40 45 23 58 48 75 113 75
l53 0 0 -265 c0 -252 -1 -266 -20 -285 -11 -11 -27 -20 -35 -20 -8 0 -15 -4
-15 -10 0 -6 47 -10 120 -10 66 0 120 2 120 4 0 2 -16 13 -35 25 l-35 20 0
271 0 270 55 0 c47 0 60 -4 80 -26 13 -14 29 -41 35 -60 9 -26 17 -34 36 -34
23 0 24 2 24 80 l0 80 -280 0 -280 0 0 -80z"/>
<path d="M3820 2183 c0 -5 14 -16 30 -25 l30 -17 0 -265 c0 -227 -2 -267 -16
-280 -8 -9 -22 -16 -30 -16 -8 0 -14 -4 -14 -10 0 -6 85 -10 235 -10 l235 0 0
74 c0 41 3 82 6 91 6 13 1 16 -21 13 -23 -2 -30 -10 -41 -47 -7 -24 -23 -54
-35 -67 -21 -22 -30 -24 -121 -24 l-98 0 0 270 0 271 30 17 c16 9 30 20 30 25
0 4 -49 7 -110 7 -60 0 -110 -3 -110 -7z"/>
<path d="M5910 2183 c0 -4 12 -17 28 -29 l27 -22 3 -224 c4 -267 0 -305 -34
-320 -44 -20 -25 -28 66 -28 92 0 110 8 65 28 -13 6 -27 22 -30 34 -7 33 -11
458 -4 456 4 -2 85 -120 180 -263 163 -244 176 -260 204 -260 l30 0 3 293 2
293 30 17 c16 9 30 20 30 25 0 4 -43 7 -95 7 -52 0 -95 -3 -95 -7 0 -5 13 -15
29 -24 l28 -17 5 -213 c3 -118 4 -215 3 -217 -1 -1 -73 106 -161 238 l-159
240 -77 0 c-43 0 -78 -3 -78 -7z"/>
<path d="M6630 2180 c0 -6 11 -15 24 -21 13 -6 27 -21 30 -33 10 -36 7 -483
-3 -509 -6 -14 -19 -28 -30 -32 -46 -14 -16 -25 69 -25 92 0 110 8 65 28 -13
6 -27 22 -30 34 -3 13 -4 122 -3 242 l3 220 175 -265 c164 -248 177 -264 205
-264 l30 0 3 293 2 293 30 17 c16 9 30 20 30 25 0 4 -40 7 -90 7 -49 0 -90 -3
-90 -7 0 -4 11 -16 24 -28 23 -20 24 -24 30 -234 3 -118 2 -210 -2 -205 -5 5
-77 114 -162 242 l-153 232 -78 0 c-47 0 -79 -4 -79 -10z"/>
<path d="M7350 2180 c0 -6 11 -15 24 -21 13 -6 27 -21 30 -33 3 -11 6 -130 6
-263 0 -230 -1 -244 -20 -263 -11 -11 -24 -20 -30 -20 -5 0 -10 -4 -10 -10 0
-6 85 -10 234 -10 267 0 246 -8 246 96 0 57 -2 64 -20 64 -15 0 -27 -15 -44
-55 -29 -65 -42 -70 -171 -70 l-90 0 -3 138 -3 137 60 0 c75 0 109 -13 121
-45 6 -15 17 -25 30 -25 18 0 20 6 20 85 0 79 -2 85 -20 85 -13 0 -24 -10 -30
-25 -12 -32 -46 -45 -121 -45 l-59 0 0 125 0 125 104 0 c115 0 142 -11 166
-70 9 -21 19 -30 36 -30 23 0 24 3 24 70 l0 70 -240 0 c-157 0 -240 -4 -240
-10z"/>
<path d="M8520 2110 c0 -77 1 -80 23 -80 19 0 26 8 36 39 17 57 52 81 117 81
l54 0 0 -265 c0 -252 -1 -266 -20 -285 -11 -11 -27 -20 -35 -20 -8 0 -15 -4
-15 -10 0 -6 45 -10 115 -10 114 0 136 6 93 25 -44 19 -48 45 -48 313 l0 252
58 0 c66 0 89 -16 117 -83 12 -29 21 -37 40 -37 25 0 25 1 25 80 l0 80 -280 0
-280 0 0 -80z"/>
<path d="M3253 1209 c15 -9 17 -28 17 -174 0 -146 -2 -165 -17 -174 -14 -8 -6
-10 36 -11 52 0 53 1 38 18 -25 27 -24 152 1 182 20 24 66 30 85 11 7 -7 14
-48 16 -92 3 -66 0 -83 -14 -100 -18 -19 -17 -19 35 -19 45 0 51 2 38 13 -13
9 -17 34 -20 103 -2 73 -7 96 -22 113 -24 26 -66 27 -99 1 -14 -11 -28 -20
-31 -20 -3 0 -6 36 -6 80 l0 80 -37 0 c-31 -1 -35 -3 -20 -11z"/>
<path d="M6423 1202 c14 -16 17 -43 17 -167 0 -124 -3 -151 -17 -167 -15 -17
-14 -18 38 -18 42 1 50 3 37 11 -16 9 -18 29 -18 184 l0 175 -37 0 c-34 0 -35
-1 -20 -18z"/>
<path d="M2520 1200 c-43 -11 -70 -43 -70 -84 0 -38 25 -68 81 -96 55 -29 79
-55 79 -88 0 -29 -20 -54 -52 -65 -27 -10 -74 11 -86 38 -16 35 -32 31 -32 -9
0 -30 4 -34 31 -40 17 -3 52 -6 76 -6 77 0 127 76 93 140 -6 11 -38 36 -73 56
-70 41 -77 48 -77 85 0 34 29 59 67 59 30 0 63 -26 63 -48 0 -7 5 -12 10 -12
6 0 10 16 10 35 0 23 -5 35 -14 35 -7 0 -26 2 -42 4 -16 3 -45 1 -64 -4z"/>
<path d="M4938 1203 c-41 -6 -81 -59 -74 -97 7 -34 30 -56 100 -98 56 -33 74
-67 58 -103 -24 -51 -102 -54 -131 -4 -21 38 -31 36 -31 -6 0 -31 3 -35 36
-41 55 -10 124 1 147 25 28 27 29 91 3 120 -10 11 -43 34 -73 51 -29 17 -59
42 -65 55 -23 52 25 96 87 81 14 -4 31 -18 37 -31 16 -35 28 -31 28 9 0 31 -3
34 -37 40 -21 3 -42 5 -48 4 -5 0 -22 -3 -37 -5z"/>
<path d="M6010 1180 c0 -13 7 -20 20 -20 13 0 20 7 20 20 0 13 -7 20 -20 20
-13 0 -20 -7 -20 -20z"/>
<path d="M6590 1180 c0 -15 7 -20 25 -20 18 0 25 5 25 20 0 15 -7 20 -25 20
-18 0 -25 -5 -25 -20z"/>
<path d="M4510 1140 c0 -11 -9 -29 -20 -40 -16 -16 -17 -20 -5 -20 12 0 15
-15 15 -79 0 -97 13 -139 47 -147 31 -8 75 6 81 24 3 11 0 12 -17 3 -24 -13
-55 -2 -65 25 -3 8 -6 51 -6 95 l0 79 45 0 c25 0 45 5 45 10 0 6 -20 10 -45
10 -43 0 -45 1 -45 30 0 20 -5 30 -15 30 -8 0 -15 -9 -15 -20z"/>
<path d="M7005 1130 c-4 -16 -14 -34 -23 -40 -16 -9 -16 -9 1 -10 15 0 17 -11
17 -93 0 -109 13 -137 63 -137 30 1 67 19 67 33 0 4 -11 1 -25 -5 -21 -9 -28
-8 -45 7 -17 16 -20 31 -20 107 l0 88 45 0 c25 0 45 5 45 10 0 6 -20 10 -45
10 -43 0 -45 1 -45 30 0 40 -26 40 -35 0z"/>
<path d="M2770 1086 c-19 -7 -36 -20 -38 -29 -5 -23 20 -21 41 3 20 23 69 27
86 6 17 -20 10 -80 -9 -83 -95 -12 -130 -33 -130 -76 0 -53 74 -75 123 -37 14
11 28 20 31 20 3 0 6 -9 6 -20 0 -16 7 -20 32 -20 29 0 30 1 15 18 -13 14 -17
38 -17 103 0 104 -13 129 -68 128 -20 0 -53 -6 -72 -13z m100 -146 c0 -55 -69
-93 -100 -56 -30 37 11 86 73 86 23 0 27 -4 27 -30z"/>
<path d="M3064 1090 c-42 -17 -64 -58 -64 -122 0 -52 3 -63 29 -89 20 -20 40
-29 61 -29 34 0 90 25 90 41 0 5 -13 3 -30 -6 -40 -21 -57 -19 -85 10 -45 44
-27 174 26 188 27 7 47 -1 60 -24 14 -27 39 -24 39 5 0 16 -7 26 -22 30 -32 8
-79 6 -104 -4z"/>
<path d="M3530 1090 c0 -5 4 -10 8 -10 5 0 25 -52 46 -115 46 -143 61 -150 95
-42 13 39 29 83 36 97 16 29 15 30 48 -85 32 -114 44 -111 97 22 24 59 50 116
58 126 14 16 12 17 -28 17 -34 0 -41 -3 -32 -12 7 -7 12 -20 12 -29 0 -26 -52
-161 -59 -154 -3 4 -18 48 -32 98 -36 126 -48 126 -90 -2 -18 -56 -36 -101
-39 -101 -8 0 -50 131 -50 156 0 11 5 25 12 32 9 9 2 12 -35 12 -26 0 -47 -4
-47 -10z"/>
<path d="M4004 1066 c-31 -31 -34 -39 -34 -96 0 -55 3 -65 29 -91 36 -36 90
-39 140 -8 42 26 35 34 -13 14 -63 -26 -116 4 -116 67 l0 28 80 0 c78 0 80 1
80 25 0 58 -39 95 -101 95 -22 0 -41 -10 -65 -34z m106 4 c11 -11 20 -31 20
-45 0 -24 -3 -25 -60 -25 -54 0 -60 2 -60 20 0 24 42 70 65 70 8 0 24 -9 35
-20z"/>
<path d="M4253 1082 c25 -28 25 -207 0 -221 -14 -8 -6 -10 36 -11 52 0 53 1
38 18 -23 25 -24 148 -1 180 16 23 58 30 69 12 12 -20 35 -10 35 15 0 21 -5
25 -29 25 -17 0 -42 -11 -60 -26 l-31 -26 0 26 c0 23 -4 26 -37 26 -34 0 -35
-1 -20 -18z"/>
<path d="M5146 1086 c17 -13 19 -29 22 -156 3 -116 1 -145 -12 -166 l-16 -24
50 0 50 0 -20 20 c-13 13 -20 33 -20 60 l0 39 48 -6 c93 -11 138 39 130 142
-8 94 -63 129 -136 85 -40 -25 -42 -25 -42 0 0 16 -7 20 -37 20 -34 0 -35 -1
-17 -14z m173 -32 c22 -20 26 -115 7 -152 -28 -54 -95 -52 -116 4 -13 34 -13
98 1 128 20 43 73 54 108 20z"/>
<path d="M5489 1072 c-54 -48 -56 -154 -4 -199 33 -29 88 -30 134 -2 42 26 33
37 -13 15 -61 -29 -116 3 -116 66 l0 28 80 0 c78 0 80 1 80 25 0 86 -95 126
-161 67z m101 -2 c11 -11 20 -31 20 -45 0 -24 -3 -25 -60 -25 -54 0 -60 2 -60
20 0 24 42 70 65 70 8 0 24 -9 35 -20z"/>
<path d="M5720 1065 c0 -41 12 -45 28 -10 10 22 18 25 62 25 27 0 50 -3 50 -6
0 -3 -29 -48 -65 -100 -36 -51 -68 -100 -71 -108 -5 -14 8 -16 95 -16 l101 0
0 35 c0 41 -16 46 -32 10 -10 -22 -17 -25 -65 -25 -41 0 -52 3 -47 13 4 6 36
53 71 104 34 50 63 96 63 102 0 7 -34 11 -95 11 l-95 0 0 -35z"/>
<path d="M5993 1086 c14 -11 17 -30 17 -114 0 -86 -3 -103 -17 -111 -14 -8 -6
-10 36 -11 52 0 53 1 38 18 -14 15 -17 40 -17 125 l0 107 -37 0 c-34 -1 -36
-2 -20 -14z"/>
<path d="M6178 1083 c-21 -8 -38 -21 -38 -29 0 -20 24 -17 45 6 21 23 67 26
84 6 7 -8 11 -30 9 -48 -3 -31 -6 -33 -52 -40 -80 -11 -122 -71 -78 -111 25
-23 74 -21 105 3 14 11 28 20 31 20 3 0 6 -9 6 -20 0 -16 7 -20 31 -20 29 0
30 1 15 22 -12 16 -16 47 -16 109 0 71 -3 89 -18 102 -23 21 -75 21 -124 0z
m102 -147 c0 -54 -68 -89 -100 -52 -30 37 11 86 73 86 24 0 27 -4 27 -34z"/>
<path d="M6575 1086 c27 -19 35 -160 12 -205 l-15 -31 44 0 c45 0 45 0 30 22
-12 17 -16 48 -16 125 l0 103 -37 0 c-34 0 -35 -1 -18 -14z"/>
<path d="M6767 1084 c-24 -13 -28 -21 -25 -52 3 -34 7 -39 60 -64 67 -32 83
-62 48 -90 -30 -25 -56 -23 -86 7 -31 31 -34 31 -34 1 0 -29 16 -36 79 -36 61
0 91 21 91 64 0 37 -18 57 -70 78 -66 28 -76 66 -25 90 22 10 30 8 55 -10 37
-28 42 -27 38 1 -3 19 -10 22 -53 24 -30 2 -61 -3 -78 -13z"/>
<path d="M4680 985 c0 -12 13 -15 60 -15 47 0 60 3 60 15 0 12 -13 15 -60 15
-47 0 -60 -3 -60 -15z"/>
<path d="M390 430 c0 -7 1457 -10 4350 -10 2893 0 4350 3 4350 10 0 7 -1457
10 -4350 10 -2893 0 -4350 -3 -4350 -10z"/>
</g>
</svg>
