<svg width="67" height="10" viewBox="0 0 67 10" fill="none" xmlns="http://www.w3.org/2000/svg">
<path d="M0.984 9V0.672H2.112V9H0.984ZM1.752 5.34V4.308H6.096V5.34H1.752ZM1.752 1.704V0.672H6.3V1.704H1.752ZM7.60088 9V3.3H8.68088V9H7.60088ZM8.14088 2.16C7.94088 2.16 7.77688 2.096 7.64888 1.968C7.52088 1.832 7.45688 1.664 7.45688 1.464C7.45688 1.272 7.52088 1.112 7.64888 0.983999C7.77688 0.847999 7.94088 0.779999 8.14088 0.779999C8.34088 0.779999 8.50488 0.847999 8.63288 0.983999C8.76088 1.112 8.82488 1.272 8.82488 1.464C8.82488 1.664 8.76088 1.832 8.63288 1.968C8.50488 2.096 8.34088 2.16 8.14088 2.16ZM12.8765 9.12C12.3165 9.12 11.8125 8.988 11.3645 8.724C10.9165 8.46 10.5605 8.104 10.2965 7.656C10.0325 7.2 9.90047 6.692 9.90047 6.132C9.90047 5.58 10.0325 5.084 10.2965 4.644C10.5605 4.196 10.9165 3.84 11.3645 3.576C11.8125 3.312 12.3165 3.18 12.8765 3.18C13.4285 3.18 13.9285 3.312 14.3765 3.576C14.8325 3.832 15.1925 4.184 15.4565 4.632C15.7205 5.08 15.8525 5.58 15.8525 6.132C15.8525 6.692 15.7205 7.2 15.4565 7.656C15.1925 8.104 14.8325 8.46 14.3765 8.724C13.9285 8.988 13.4285 9.12 12.8765 9.12ZM12.8765 8.076C13.2365 8.076 13.5565 7.992 13.8365 7.824C14.1165 7.656 14.3365 7.428 14.4965 7.14C14.6565 6.844 14.7365 6.508 14.7365 6.132C14.7365 5.764 14.6525 5.436 14.4845 5.148C14.3245 4.86 14.1045 4.636 13.8245 4.476C13.5525 4.308 13.2365 4.224 12.8765 4.224C12.5165 4.224 12.1965 4.308 11.9165 4.476C11.6365 4.636 11.4165 4.86 11.2565 5.148C11.0965 5.436 11.0165 5.764 11.0165 6.132C11.0165 6.508 11.0965 6.844 11.2565 7.14C11.4165 7.428 11.6365 7.656 11.9165 7.824C12.1965 7.992 12.5165 8.076 12.8765 8.076ZM17.0693 9V3.3H18.1493V9H17.0693ZM18.1493 5.748L17.7413 5.568C17.7413 4.84 17.9093 4.26 18.2453 3.828C18.5813 3.396 19.0653 3.18 19.6973 3.18C19.9853 3.18 20.2453 3.232 20.4773 3.336C20.7093 3.432 20.9253 3.596 21.1253 3.828L20.4173 4.56C20.2973 4.432 20.1653 4.34 20.0213 4.284C19.8773 4.228 19.7093 4.2 19.5173 4.2C19.1173 4.2 18.7893 4.328 18.5333 4.584C18.2773 4.84 18.1493 5.228 18.1493 5.748ZM21.8978 9V3.3H22.9778V9H21.8978ZM22.4378 2.16C22.2378 2.16 22.0738 2.096 21.9458 1.968C21.8178 1.832 21.7538 1.664 21.7538 1.464C21.7538 1.272 21.8178 1.112 21.9458 0.983999C22.0738 0.847999 22.2378 0.779999 22.4378 0.779999C22.6378 0.779999 22.8018 0.847999 22.9298 0.983999C23.0578 1.112 23.1218 1.272 23.1218 1.464C23.1218 1.664 23.0578 1.832 22.9298 1.968C22.8018 2.096 22.6378 2.16 22.4378 2.16ZM28.2173 9L25.5533 6.084L28.1933 3.3H29.5013L26.5613 6.372L26.6093 5.748L29.6093 9H28.2173ZM24.5693 9V0.431999H25.6493V9H24.5693ZM37.002 9.12C36.418 9.12 35.87 9.012 35.358 8.796C34.854 8.572 34.41 8.264 34.026 7.872C33.65 7.48 33.354 7.024 33.138 6.504C32.922 5.984 32.814 5.424 32.814 4.824C32.814 4.224 32.922 3.668 33.138 3.156C33.354 2.636 33.654 2.18 34.038 1.788C34.422 1.396 34.87 1.092 35.382 0.875999C35.902 0.659999 36.466 0.551999 37.074 0.551999C37.738 0.551999 38.35 0.679999 38.91 0.935999C39.47 1.192 39.938 1.56 40.314 2.04L39.534 2.82C39.27 2.436 38.922 2.144 38.49 1.944C38.058 1.736 37.586 1.632 37.074 1.632C36.466 1.632 35.926 1.768 35.454 2.04C34.99 2.312 34.626 2.688 34.362 3.168C34.106 3.648 33.978 4.2 33.978 4.824C33.978 5.456 34.11 6.012 34.374 6.492C34.638 6.972 34.994 7.348 35.442 7.62C35.89 7.892 36.402 8.028 36.978 8.028C37.562 8.028 38.066 7.916 38.49 7.692C38.922 7.468 39.254 7.14 39.486 6.708C39.718 6.268 39.834 5.732 39.834 5.1L40.518 5.592H36.918V4.56H40.998V4.728C40.998 5.696 40.826 6.508 40.482 7.164C40.146 7.812 39.674 8.3 39.066 8.628C38.466 8.956 37.778 9.12 37.002 9.12ZM42.3232 9V3.3H43.4033V9H42.3232ZM46.1753 9V5.556C46.1753 5.132 46.0433 4.8 45.7793 4.56C45.5233 4.312 45.1993 4.188 44.8073 4.188C44.5433 4.188 44.3073 4.244 44.0993 4.356C43.8913 4.468 43.7233 4.624 43.5953 4.824C43.4673 5.024 43.4033 5.264 43.4033 5.544L42.9593 5.328C42.9593 4.896 43.0513 4.52 43.2353 4.2C43.4273 3.88 43.6873 3.632 44.0153 3.456C44.3433 3.272 44.7113 3.18 45.1193 3.18C45.5193 3.18 45.8793 3.268 46.1993 3.444C46.5273 3.62 46.7833 3.868 46.9673 4.188C47.1593 4.508 47.2553 4.888 47.2553 5.328V9H46.1753ZM50.0273 9V5.556C50.0273 5.132 49.8953 4.8 49.6313 4.56C49.3753 4.312 49.0553 4.188 48.6713 4.188C48.4073 4.188 48.1673 4.244 47.9513 4.356C47.7433 4.468 47.5753 4.624 47.4473 4.824C47.3193 5.024 47.2553 5.264 47.2553 5.544L46.6433 5.328C46.6673 4.888 46.7833 4.512 46.9913 4.2C47.2073 3.88 47.4833 3.632 47.8193 3.456C48.1553 3.272 48.5233 3.18 48.9233 3.18C49.3393 3.18 49.7113 3.268 50.0393 3.444C50.3673 3.62 50.6273 3.868 50.8193 4.188C51.0193 4.508 51.1193 4.892 51.1193 5.34V9H50.0273ZM55.5889 9.12C55.1569 9.12 54.7649 9.032 54.4129 8.856C54.0689 8.672 53.7929 8.42 53.5849 8.1C53.3769 7.78 53.2609 7.416 53.2369 7.008V5.292C53.2609 4.876 53.3769 4.512 53.5849 4.2C53.8009 3.88 54.0809 3.632 54.4249 3.456C54.7769 3.272 55.1649 3.18 55.5889 3.18C56.1089 3.18 56.5769 3.312 56.9929 3.576C57.4169 3.84 57.7489 4.196 57.9889 4.644C58.2289 5.092 58.3489 5.596 58.3489 6.156C58.3489 6.716 58.2289 7.22 57.9889 7.668C57.7489 8.116 57.4169 8.472 56.9929 8.736C56.5769 8.992 56.1089 9.12 55.5889 9.12ZM55.4089 8.1C55.7689 8.1 56.0849 8.016 56.3569 7.848C56.6289 7.68 56.8449 7.452 57.0049 7.164C57.1649 6.868 57.2449 6.528 57.2449 6.144C57.2449 5.768 57.1649 5.432 57.0049 5.136C56.8449 4.84 56.6289 4.612 56.3569 4.452C56.0849 4.284 55.7729 4.2 55.4209 4.2C55.0609 4.2 54.7449 4.284 54.4729 4.452C54.2009 4.612 53.9889 4.84 53.8369 5.136C53.6849 5.432 53.6089 5.772 53.6089 6.156C53.6089 6.532 53.6809 6.868 53.8249 7.164C53.9769 7.452 54.1889 7.68 54.4609 7.848C54.7409 8.016 55.0569 8.1 55.4089 8.1ZM52.5889 9V0.431999H53.6689V4.692L53.4649 6.072L53.6689 7.464V9H52.5889ZM59.7653 9V0.672H60.8933V9H59.7653ZM65.1413 9V0.672H66.2693V9H65.1413ZM60.5333 5.208V4.176H65.4173V5.208H60.5333Z" fill="white"/>
</svg>
