<svg width="561" height="91" viewBox="0 0 561 91" fill="none" xmlns="http://www.w3.org/2000/svg">
<path d="M557.26 70.1698C557.06 69.8698 556.96 69.5698 556.66 69.5698C556.06 69.5698 550.86 73.6698 544.37 73.6698C532.97 73.6698 530.57 62.6698 530.57 56.5698H559.26C560.36 56.5698 560.36 55.7698 560.36 54.3698C560.36 45.7798 558.86 29.5798 542.17 29.5798C529.77 29.5798 522.37 40.2798 522.37 54.9698C522.37 70.1698 530.17 80.2598 543.47 80.3598C550.86 80.3598 559.26 76.2598 559.26 75.1698C559.26 74.8698 559.06 74.6698 558.96 74.3698L557.26 70.1698ZM530.57 50.3698C530.57 45.3698 532.57 35.7798 541.77 35.7798C550.46 35.7798 552.16 45.1798 552.16 50.3698H530.57ZM513.88 44.5798C513.88 37.3798 513.08 29.5798 501.98 29.5798C494.39 29.5798 489.19 33.7798 485.89 36.3798C485.79 35.5798 484.59 29.5798 482.79 29.5798C482.49 29.5798 482.19 29.8798 481.99 29.9798L477.49 32.4798C477.09 32.7798 476.99 32.9798 476.99 33.1798C476.99 33.6798 477.79 34.3798 478.59 37.3798C478.99 38.8798 478.99 39.9798 478.99 43.2798V77.7598C478.966 77.9229 478.981 78.0891 479.033 78.2454C479.085 78.4017 479.173 78.5437 479.289 78.6602C479.406 78.7766 479.548 78.8643 479.704 78.9164C479.86 78.9684 480.027 78.9833 480.19 78.9598H485.39C485.553 78.9833 485.719 78.9684 485.875 78.9164C486.032 78.8643 486.174 78.7766 486.29 78.6602C486.407 78.5437 486.494 78.4017 486.546 78.2454C486.598 78.0891 486.613 77.9229 486.59 77.7598V42.3798C489.09 40.1798 493.29 36.2798 499.78 36.2798C505.18 36.2798 506.28 40.0798 506.28 44.3798V77.7598C506.256 77.9229 506.271 78.0891 506.323 78.2454C506.375 78.4017 506.463 78.5437 506.579 78.6602C506.696 78.7766 506.838 78.8643 506.994 78.9164C507.15 78.9684 507.317 78.9833 507.48 78.9598H512.68C512.843 78.9833 513.009 78.9684 513.165 78.9164C513.322 78.8643 513.464 78.7766 513.58 78.6602C513.697 78.5437 513.784 78.4017 513.836 78.2454C513.888 78.0891 513.903 77.9229 513.88 77.7598V44.5798ZM454.88 44.7798C457.28 42.1798 460.78 36.9798 464.28 36.9798C466.18 36.9798 467.08 37.8798 467.58 37.8798C468.08 37.8798 468.08 37.3798 468.18 37.1798L470.38 32.0798C470.507 31.8243 470.608 31.5562 470.68 31.2798C470.68 30.3798 468.08 29.5798 465.78 29.5798C459.98 29.5798 456.38 35.1798 453.78 37.9798C453.38 35.7798 451.68 29.5798 449.88 29.5798C449.51 29.6601 449.166 29.8321 448.88 30.0798L445.18 32.3798C444.996 32.4828 444.838 32.6265 444.719 32.7998C444.599 32.9732 444.521 33.1716 444.49 33.3798C444.7 34.2719 445.069 35.1187 445.58 35.8798C446.736 38.2443 447.318 40.8481 447.28 43.4798V77.7598C447.256 77.9229 447.271 78.0891 447.323 78.2454C447.375 78.4017 447.463 78.5437 447.579 78.6602C447.696 78.7766 447.838 78.8643 447.994 78.9164C448.15 78.9684 448.317 78.9833 448.48 78.9598H453.68C453.843 78.9833 454.009 78.9684 454.165 78.9164C454.322 78.8643 454.464 78.7766 454.58 78.6602C454.697 78.5437 454.784 78.4017 454.836 78.2454C454.888 78.0891 454.903 77.9229 454.88 77.7598V44.7798ZM432.61 70.1698C432.41 69.8698 432.31 69.5698 432.01 69.5698C431.41 69.5698 426.21 73.6698 419.71 73.6698C408.32 73.6698 405.92 62.6698 405.92 56.5698H434.61C435.71 56.5698 435.71 55.7698 435.71 54.3698C435.71 45.7798 434.21 29.5798 417.52 29.5798C405.12 29.5798 397.72 40.2798 397.72 54.9698C397.72 70.1698 405.52 80.2598 418.82 80.3598C426.21 80.3598 434.61 76.2598 434.61 75.1698C434.61 74.8698 434.41 74.6698 434.31 74.3698L432.61 70.1698ZM405.92 50.3698C405.92 45.3698 407.92 35.7798 417.12 35.7798C425.81 35.7798 427.51 45.1798 427.51 50.3698H405.92ZM379.83 46.8798V77.7598C379.806 77.9229 379.821 78.0891 379.873 78.2454C379.925 78.4017 380.013 78.5437 380.129 78.6602C380.246 78.7766 380.388 78.8643 380.544 78.9164C380.7 78.9684 380.867 78.9833 381.03 78.9598H386.83C386.993 78.9833 387.159 78.9684 387.315 78.9164C387.472 78.8643 387.614 78.7766 387.73 78.6602C387.847 78.5437 387.934 78.4017 387.986 78.2454C388.038 78.0891 388.053 77.9229 388.03 77.7598V11.6898C388.053 11.5268 388.038 11.3606 387.986 11.2043C387.934 11.048 387.847 10.906 387.73 10.7895C387.614 10.6731 387.472 10.5853 387.315 10.5333C387.159 10.4813 386.993 10.4664 386.83 10.4898H381C380.837 10.4664 380.67 10.4813 380.514 10.5333C380.358 10.5853 380.216 10.6731 380.099 10.7895C379.983 10.906 379.895 11.048 379.843 11.2043C379.791 11.3606 379.776 11.5268 379.8 11.6898V39.8798H354.14V11.6898C354.163 11.5268 354.148 11.3606 354.096 11.2043C354.044 11.048 353.956 10.906 353.84 10.7895C353.724 10.6731 353.582 10.5853 353.425 10.5333C353.269 10.4813 353.103 10.4664 352.94 10.4898H347.14C346.977 10.4664 346.81 10.4813 346.654 10.5333C346.498 10.5853 346.356 10.6731 346.239 10.7895C346.123 10.906 346.035 11.048 345.983 11.2043C345.931 11.3606 345.916 11.5268 345.94 11.6898V77.7598C345.916 77.9229 345.931 78.0891 345.983 78.2454C346.035 78.4017 346.123 78.5437 346.239 78.6602C346.356 78.7766 346.498 78.8643 346.654 78.9164C346.81 78.9684 346.977 78.9833 347.14 78.9598H352.94C353.103 78.9833 353.269 78.9684 353.425 78.9164C353.582 78.8643 353.724 78.7766 353.84 78.6602C353.956 78.5437 354.044 78.4017 354.096 78.2454C354.148 78.0891 354.163 77.9229 354.14 77.7598V46.8798H379.83ZM317.06 71.5698C317.042 71.3992 316.96 71.2419 316.829 71.1303C316.699 71.0187 316.531 70.9612 316.36 70.9698C315.46 70.9698 311.46 73.6698 306.76 73.6698C300.76 73.6698 300.76 69.5698 300.76 65.5698V37.1798H314C314.281 37.1756 314.555 37.0878 314.787 36.9275C315.018 36.7673 315.197 36.5418 315.3 36.2798L316.6 32.3798C316.6 32.0798 316.7 31.8798 316.7 31.6798C316.7 31.0798 316.2 30.9798 315.6 30.9798H300.8V15.5898C300.8 14.9898 300.8 14.4898 300.3 14.4898C300.1 14.4898 299.9 14.5898 299.6 14.5898L294.3 16.0898C293.6 16.2898 293.2 16.6898 293.2 17.2898V30.9798H285.71C285.01 30.9798 285.01 31.4798 285.01 32.1798V35.9798C285.01 36.4798 285.01 37.1798 285.71 37.1798H293.2V65.5698C293.2 69.2698 293.2 73.7698 296.1 76.8598C297.6 78.7598 301.2 80.3598 305.5 80.3598C310.9 80.3598 318.39 77.5598 318.39 76.2598C318.364 75.9197 318.296 75.5839 318.19 75.2598L317.06 71.5698ZM276.75 7.88984C276.75 7.38984 276.75 6.58984 275.95 6.58984C275.544 6.61568 275.142 6.68269 274.75 6.78984L269.86 7.98984C269.46 8.08984 269.16 8.48984 269.16 9.18984V32.9798C265.512 30.598 261.213 29.4098 256.86 29.5798C245.26 29.5798 240.17 41.5798 240.17 55.9698C240.17 68.3698 245.06 80.3598 255.76 80.3598C263.16 80.3598 268.06 76.1598 270.46 74.4698C270.85 76.0598 272.65 80.3598 274.05 80.3598C274.335 80.3186 274.608 80.2163 274.85 80.0598L278.75 77.6598C279.15 77.4598 279.65 77.2598 279.65 76.8598C279.65 76.2598 278.35 74.3698 277.85 73.1698C276.75 70.6698 276.75 67.6698 276.75 63.1698V7.88984ZM269.16 67.7698C266.76 69.2698 262.36 73.6698 257.16 73.6698C249.06 73.6698 248.36 64.1698 248.36 55.7698C248.36 46.0798 249.16 36.2798 257.76 36.2798C262.76 36.2798 265.96 37.8798 269.16 39.5798V67.7698ZM221.57 67.9698C219.97 69.3698 215.38 74.1698 210.18 74.1698C204.98 74.1698 202.88 69.6698 202.88 65.6698C202.88 55.1698 217.18 55.1698 221.57 55.0698V67.9698ZM229.17 43.5798C229.17 35.1798 225.27 29.5798 213.78 29.5798C207.38 29.5798 198.18 32.4798 198.18 34.1798C198.184 34.6299 198.286 35.0736 198.48 35.4798L199.78 38.9798C199.831 39.1249 199.926 39.2507 200.051 39.3402C200.176 39.4296 200.326 39.4784 200.48 39.4798C201.38 39.4798 205.98 36.2798 212.68 36.2798C219.77 36.2798 221.57 39.4798 221.57 45.2798V48.8798C215.38 49.0698 195.38 49.3698 195.38 66.2698C195.38 75.1698 200.48 80.3598 208.38 80.3598C216.68 80.3598 221.57 74.7698 222.77 73.6698C223.27 75.0698 225.07 80.3598 226.57 80.3598C226.855 80.3186 227.128 80.2163 227.37 80.0598L231.27 77.6598C231.67 77.4598 232.17 77.2598 232.17 76.8598C232.17 76.2598 230.77 74.3698 230.37 73.1698C229.47 70.3698 229.17 69.4698 229.17 63.1698V43.5798ZM188.39 71.5798C188.372 71.4092 188.29 71.2519 188.159 71.1403C188.029 71.0287 187.861 70.9712 187.69 70.9798C186.79 70.9798 182.79 73.6798 178.09 73.6798C172.09 73.6798 172.09 69.5798 172.09 65.5798V37.1798H185.29C185.571 37.1756 185.845 37.0878 186.077 36.9275C186.308 36.7673 186.487 36.5418 186.59 36.2798L187.89 32.3798C187.89 32.0798 187.99 31.8798 187.99 31.6798C187.99 31.0798 187.49 30.9798 186.89 30.9798H172.09V15.5898C172.09 14.9898 172.09 14.4898 171.59 14.4898C171.39 14.4898 171.19 14.5898 170.89 14.5898L165.6 16.0898C164.9 16.2898 164.5 16.6898 164.5 17.2898V30.9798H157C156.3 30.9798 156.3 31.4798 156.3 32.1798V35.9798C156.3 36.4798 156.3 37.1798 157 37.1798H164.5V65.5698C164.5 69.2698 164.5 73.7698 167.4 76.8598C168.89 78.7598 172.49 80.3598 176.79 80.3598C182.19 80.3598 189.69 77.5598 189.69 76.2598C189.664 75.9197 189.596 75.5839 189.49 75.2598L188.39 71.5798ZM148.8 15.6898C148.963 15.3005 149.097 14.8993 149.2 14.4898C149.158 14.258 149.064 14.0386 148.926 13.8481C148.787 13.6576 148.607 13.5009 148.4 13.3898C143.556 10.7145 138.141 9.23993 132.61 9.08984C122.21 9.08984 112.72 15.4898 112.72 26.9798C112.72 47.6798 141.91 45.1798 141.91 61.7698C141.91 68.4698 137.51 73.1698 130.01 73.1698C123.01 73.1698 116.91 69.8698 114.92 68.9698C114.502 68.6884 114.021 68.5164 113.52 68.4698C112.92 68.4698 112.72 68.9698 112.42 69.7698L111.12 73.0698C110.956 73.4592 110.823 73.8604 110.72 74.2698C110.722 74.5137 110.8 74.7508 110.943 74.948C111.087 75.1453 111.288 75.2927 111.52 75.3698C113.02 76.0598 120.41 80.3698 129.71 80.3698C141.91 80.3698 150.9 72.9798 150.9 60.7798C150.9 54.1798 148.2 49.4798 142.8 45.0898C134.8 38.4898 121.71 36.5898 121.71 26.0898C121.71 19.3998 126.31 16.2998 132.31 16.2998C136.754 16.4594 141.099 17.6544 145 19.7898C145.417 20.0713 145.898 20.2433 146.4 20.2898C147.1 20.2898 147.1 19.7898 147.5 18.9898L148.8 15.6898Z" fill="white"/>
<path d="M45.1598 89.8802C53.9852 89.8821 62.613 87.2669 69.9521 82.3652C77.2911 77.4635 83.0117 70.4955 86.3904 62.3424C89.7692 54.1894 90.6542 45.2174 88.9337 36.5614C87.2131 27.9053 82.9643 19.9538 76.7244 13.7126C70.4846 7.47137 62.5341 3.22073 53.8784 1.49825C45.2227 -0.224234 36.2506 0.658807 28.0968 4.0357C19.943 7.41258 12.9737 13.1316 8.07033 20.4696C3.16698 27.8075 0.549805 36.4347 0.549805 45.2602C0.549804 57.0924 5.24945 68.4401 13.6152 76.8077C21.9809 85.1753 33.3276 89.8775 45.1598 89.8802Z" fill="#F7F7F7"/>
<path d="M88.25 57.4799C89.413 53.5289 89.9296 49.4158 89.78 45.2999C89.7852 37.865 87.9324 30.5466 84.3901 24.0098C80.8477 17.473 75.7281 11.925 69.4964 7.86991C63.2647 3.81481 56.1185 1.38117 48.7071 0.790143C41.2957 0.199113 33.8541 1.46942 27.0585 4.48564C20.2628 7.50187 14.3286 12.1684 9.79508 18.0612C5.26152 23.9539 2.27231 30.8862 1.09908 38.2279C-0.0741426 45.5697 0.605803 53.0883 3.07713 60.1004C5.54847 67.1126 9.73284 73.3961 15.25 78.3799C14.94 78.3799 88 57.8399 88.25 57.4399" fill="#F2F2F2"/>
<path d="M64.4702 5.01989C64.4702 5.01989 49.1602 -2.74011 33.1202 2.21989C17.0802 7.17989 10.5102 17.2199 10.5102 17.2199C10.5102 17.2199 9.3102 18.7599 6.0002 23.7399C4.63267 26.1974 3.52663 28.7916 2.7002 31.4799L77.3202 14.2799C75.8213 12.4912 74.1123 10.8897 72.2302 9.50989C69.8011 7.74477 67.2015 6.22721 64.4702 4.97989" fill="#E3E3E3"/>
<mask id="mask0_739_4" style="mask-type:luminance" maskUnits="userSpaceOnUse" x="4" y="-3" width="80" height="91">
<path d="M4.21973 85.46L83.8397 87.9V-2.52002L4.21973 -0.0800195V85.46Z" fill="white"/>
</mask>
<g mask="url(#mask0_739_4)">
<path d="M54.9295 40.3098C55.6595 40.4298 56.8195 40.3098 58.0895 40.3098C58.886 40.3306 59.6806 40.3973 60.4695 40.5098C61.4207 40.5814 62.3585 40.7764 63.2595 41.0898C64.0572 41.4265 64.8124 41.8561 65.5095 42.3698C66.0095 42.7398 66.5095 43.2798 66.9495 43.6998C67.3895 44.1198 67.5495 44.5198 67.9495 44.5198C68.762 44.3896 69.5617 44.1889 70.3395 43.9198C70.8805 43.681 71.4477 43.5065 72.0295 43.3998C72.1695 43.3998 72.6994 43.5098 72.8394 43.5098C73.1394 43.5098 73.2195 43.3398 73.7195 43.1398C74.3561 42.8856 75.034 42.7501 75.7195 42.7398C77.015 42.7262 78.289 43.0724 79.3995 43.7398C80.5553 44.7341 81.3616 46.0731 81.6994 47.5598C81.8954 48.1336 82.0033 48.7338 82.0194 49.3398C82.0195 50.1822 81.9391 51.0227 81.7794 51.8498C81.4094 52.7398 81.2494 53.7798 80.7794 54.6798C80.4947 55.3184 80.1604 55.9336 79.7794 56.5198C78.2694 58.5198 77.4095 60.2698 77.4095 62.3898C77.5368 63.7623 77.7337 65.1274 77.9995 66.4798C77.9995 67.3398 76.6294 69.1598 75.9194 69.2198H75.6694C75.7794 68.9598 75.9395 68.8198 75.9395 68.5898C75.9395 67.5898 75.9995 67.4998 75.9995 67.3698C75.9995 67.2398 75.8195 66.7698 75.7895 66.5098C75.6095 65.3298 74.1194 64.1198 73.2394 62.9898C72.693 62.2161 72.2273 61.3885 71.8495 60.5198C71.6265 60.1472 71.4229 59.7634 71.2395 59.3698C71.0711 58.8908 70.9407 58.3993 70.8495 57.8998C70.7506 57.3915 70.6871 56.877 70.6595 56.3598C70.6595 53.8498 73.0495 53.0598 73.0495 50.8298C73.0555 50.486 72.9873 50.1449 72.8494 49.8298C72.7148 49.4634 72.456 49.1556 72.118 48.9602C71.78 48.7647 71.3843 48.6938 70.9995 48.7598C70.3747 48.7496 69.7507 48.81 69.1395 48.9398C68.9295 49.0098 69.0695 49.4498 69.0495 49.6298C69.0495 50.2698 68.9395 50.9998 68.8395 51.5698C68.7678 52.5505 68.6003 53.5218 68.3395 54.4698C68.0395 55.2698 67.8095 56.0998 67.4695 56.9098C67.2695 57.4198 67.0095 57.9098 66.8395 58.4698C66.6695 59.0298 66.5595 59.4698 66.3995 60.0198C66.3495 60.2464 66.326 60.4779 66.3295 60.7098C66.5871 62.5239 67.5457 64.1647 68.9995 65.2798C69.5083 65.727 69.8794 66.3097 70.0695 66.9598C70.0695 67.2898 69.3295 68.0498 69.3095 68.1298C69.2895 68.2098 69.3095 68.4298 69.2195 68.5298C69.1295 68.6298 68.8795 68.9898 68.7495 69.2498C68.6195 69.5098 68.7495 69.7698 68.6595 70.0298C68.4595 70.5498 67.8195 70.6398 67.3295 70.7798C66.8395 70.9198 66.5395 71.4898 66.1595 71.9198C65.2795 72.9198 64.2595 73.6898 63.4095 74.6998C63.0395 75.1498 62.3495 75.8398 62.3495 76.3498C62.3495 76.4898 62.5695 77.0998 62.5695 77.2398C62.5695 77.5998 62.4095 77.6498 61.9995 78.0998H61.6895C61.6195 77.9198 61.6895 77.3198 61.2395 77.3198C61.0572 77.3457 60.8901 77.4352 60.7674 77.5724C60.6448 77.7097 60.5747 77.8859 60.5695 78.0698C60.5695 78.2098 60.7395 78.4898 60.7395 78.6298C60.7395 78.7698 60.4495 79.2698 60.2595 79.3198C60.1295 79.1498 60.2595 78.7798 59.9395 78.7698C59.6429 79.1622 59.2809 79.5005 58.8695 79.7698C58.8121 79.6442 58.7815 79.508 58.7795 79.3698C58.6895 79.2598 58.5995 79.2698 58.4595 79.2698C58.3053 79.2707 58.153 79.3034 58.0121 79.3658C57.8712 79.4283 57.7447 79.5191 57.6405 79.6327C57.5363 79.7463 57.4567 79.8801 57.4066 80.0259C57.3565 80.1717 57.3371 80.3262 57.3495 80.4798C57.3495 80.9798 57.7895 80.7598 57.8795 81.4798C57.8795 81.4798 57.8795 81.6198 57.8795 81.7598C57.8795 81.8998 58.0995 82.5398 58.0995 82.6798C58.0995 83.9998 55.0995 85.6298 54.4695 85.7998C54.2907 85.8705 54.1069 85.9273 53.9195 85.9698C53.8887 86.0024 53.8514 86.0281 53.8101 86.0453C53.7687 86.0625 53.7242 86.0709 53.6795 86.0698H52.7495C52.6095 86.0698 52.3395 85.7998 52.2295 85.6098C52.1733 85.4633 52.1494 85.3064 52.1595 85.1498C52.1595 85.0098 52.3595 83.5198 52.4995 82.7598C52.5483 82.5491 52.6479 82.3534 52.7895 82.1898C53.0095 81.8998 53.5395 82.0098 53.8995 81.8798C54.3405 81.77 54.7508 81.5615 55.0995 81.2698C54.9995 81.2698 54.9595 81.1198 54.8195 81.1198C54.6795 81.1198 54.6595 81.1198 54.6495 81.2298H53.0495C52.8077 81.1495 52.5787 81.035 52.3695 80.8898C52.3565 80.8003 52.3565 80.7094 52.3695 80.6198C52.3695 80.4798 52.4795 79.8698 52.4995 79.4698C52.9166 79.1211 53.2954 78.7288 53.6295 78.2998C54.0995 77.6098 54.4495 76.2998 55.5495 76.1598L55.7195 76.0298C56.0859 75.9107 56.4601 75.8172 56.8395 75.7498C57.227 75.6903 57.6042 75.5758 57.9595 75.4098C58.615 75.0756 59.2019 74.621 59.6895 74.0698C60.23 73.4844 60.6937 72.8325 61.0695 72.1298C61.5465 71.2807 61.9545 70.3945 62.2895 69.4798V67.3398C62.2895 66.6598 60.8095 65.8698 60.2895 65.4598C59.7662 64.9994 59.3411 64.4382 59.0395 63.8098C58.8595 63.4598 58.6995 62.8098 58.5395 62.4698C58.3115 61.8842 58.0162 61.3272 57.6595 60.8098C56.8993 59.9392 56.0247 59.1756 55.0595 58.5398C54.9195 58.5398 54.9395 58.5398 54.8995 58.6398C54.6268 59.3764 54.0831 59.9809 53.3795 60.3298C53.2795 60.3298 53.2195 60.5598 53.0995 60.6298C52.2395 61.1398 50.7295 63.1498 50.7295 63.9898C50.7395 65.4798 51.9995 65.1298 51.9995 67.0698C51.9995 68.5398 51.2095 68.3498 50.1295 69.0698C49.3747 69.7074 48.4913 70.1747 47.5395 70.4398C47.5109 70.4573 47.4869 70.4813 47.4695 70.5098C46.9923 70.5823 46.5116 70.629 46.0295 70.6498C45.8895 70.6498 45.0295 70.5898 44.5795 70.5098C44.5795 70.5098 44.5795 70.4298 44.4395 70.4298C43.5787 70.4845 42.7318 70.6734 41.9295 70.9898C41.3695 71.2998 41.4995 72.2098 40.7195 72.2098C40.5795 72.2098 40.2295 71.9198 40.0795 71.7598C39.8795 71.9198 39.5295 72.0198 39.3395 72.2498C39.2186 72.4296 39.1305 72.6293 39.0795 72.8398C38.6269 72.9953 38.1858 73.1824 37.7595 73.3998C37.5246 73.5579 37.2403 73.6254 36.9595 73.5898C36.6895 73.4698 36.8195 73.1698 36.7595 72.9698C36.6995 72.7698 36.5095 72.7598 36.2495 72.7598C35.7995 72.7598 34.9395 72.9198 34.9395 73.6198C34.9395 74.1098 35.9395 75.2998 35.9395 75.8198C35.9395 76.3398 35.7795 76.3798 35.3495 76.9198C34.8896 77.4326 34.3533 77.8711 33.7595 78.2198C33.6395 78.2898 33.5395 78.4998 33.4195 78.5698C33.0995 78.7698 32.7795 79.0298 32.4795 79.2398C32.043 79.5065 31.5671 79.7022 31.0695 79.8198C30.8971 79.7784 30.7365 79.6984 30.5996 79.5858C30.4628 79.4732 30.3533 79.3309 30.2795 79.1698C30.2343 78.9426 30.2109 78.7115 30.2095 78.4798C30.1865 78.2829 30.2141 78.0833 30.2895 77.8998C30.6795 77.3798 30.6595 76.4098 30.8995 75.8998C31.0095 75.6698 31.3795 75.5198 31.6295 75.3998C31.9923 75.3105 32.3328 75.1471 32.6295 74.9198L32.5395 74.8298C32.0487 75.1055 31.5143 75.2949 30.9595 75.3898C30.4795 75.3898 30.4595 74.6398 30.4595 74.3898C30.6677 73.0272 31.2931 71.7626 32.2495 70.7698C32.5495 70.5198 33.1095 70.5598 33.4795 70.4498C34.2095 70.2298 34.9895 69.9998 35.7595 69.7298C36.3795 69.5098 37.0695 69.2098 37.7095 68.9298C38.1795 68.7198 38.7795 68.5698 39.3095 68.2798C40.1095 67.8498 40.8795 67.3798 41.6995 66.8398C41.9695 66.6598 43.1095 65.5798 43.6995 65.5798C44.0995 65.5798 44.4995 66.2998 44.6395 66.2998C44.6778 66.3036 44.7164 66.2973 44.7515 66.2815C44.7866 66.2657 44.8169 66.241 44.8395 66.2098V66.0398C44.8395 65.8998 43.9295 65.0398 43.9195 65.0398C43.6544 64.9876 43.4027 64.8821 43.1795 64.7298C41.9638 63.6702 41.1719 62.2071 40.9495 60.6098C41.0101 59.9605 41.2286 59.3359 41.5859 58.7904C41.9432 58.2448 42.4285 57.7949 42.9995 57.4798C43.5444 57.2969 44.0786 57.0832 44.5995 56.8398C45.2395 56.4698 45.8495 55.8398 46.5995 55.3198C47.1138 55.0971 47.5871 54.7895 47.9995 54.4098C47.8133 54.3902 47.6256 54.3902 47.4395 54.4098C47.2995 54.4098 46.6395 54.5198 46.2495 54.5198C44.1895 54.5198 43.2495 54.4098 43.1595 54.4098C43.0695 54.4098 41.3295 54.6298 41.1595 54.6298C39.615 54.4181 38.1212 53.9304 36.7495 53.1898C36.5795 53.0398 36.2095 53.0698 36.0295 52.9298C35.6676 52.6223 35.392 52.226 35.2295 51.7798C35.2295 51.7198 35.0795 51.6698 35.0395 51.5698C34.0395 52.0498 34.0395 52.4098 33.3295 52.4098C32.9387 52.4113 32.5481 52.3913 32.1595 52.3498C31.6348 52.2867 31.1263 52.1273 30.6595 51.8798C30.3495 51.7298 30.0395 51.5098 29.6595 51.3298C29.6595 51.3298 28.8995 50.4598 28.6095 50.4598H27.6095C26.9239 50.2634 26.2551 50.0126 25.6095 49.7098C24.9529 49.4227 24.3179 49.0885 23.7095 48.7098C23.1595 48.3598 22.3895 47.3498 21.8595 47.3498C21.7195 47.3498 21.2795 47.6698 20.9995 47.6798C20.7185 47.7008 20.436 47.684 20.1595 47.6298C19.8044 47.6648 19.4622 47.7811 19.1595 47.9698C18.5664 48.7319 18.0316 49.5375 17.5595 50.3798V51.6998C17.5473 51.8739 17.4847 52.0407 17.3795 52.1798H17.1895C17.0095 52.0098 16.8895 51.7898 16.7595 51.7898C16.6295 51.7898 16.3395 52.5398 16.3395 52.5698C16.3395 52.5998 16.8895 53.4698 16.8895 53.5698V54.2898C16.8295 54.3598 16.8095 54.3698 16.6695 54.3698C16.5295 54.3698 16.3495 54.1998 16.2495 54.1398C16.1495 54.0798 16.1095 54.2398 16.0695 54.2898C16.1005 54.7182 16.0141 55.147 15.8195 55.5298C15.4495 55.5298 15.6295 55.1698 15.3495 54.9698C15.0466 54.7742 14.7058 54.6447 14.3495 54.5898C13.8295 54.5898 13.8495 55.0698 13.8495 55.2498C13.8495 55.9398 14.3295 55.9698 14.7695 56.6698C14.9227 56.9671 15.0467 57.2785 15.1395 57.5998C15.1395 57.5998 15.2295 57.7598 15.2695 57.7798C15.3641 58.0319 15.4311 58.2934 15.4695 58.5598C15.4296 58.788 15.3372 59.0037 15.1995 59.1898C15.0995 59.3298 15.0595 59.6098 14.9395 59.7998C14.4585 60.4416 13.9048 61.0255 13.2895 61.5398C12.7281 62.1383 12.0058 62.562 11.2095 62.7598C10.9895 62.7598 10.5795 62.6198 10.5795 62.2798C10.5766 62.2372 10.5832 62.1945 10.5987 62.1548C10.6143 62.115 10.6384 62.0792 10.6695 62.0498C10.6695 61.6198 10.6695 60.8398 10.6695 60.6998C10.6695 60.5598 10.7295 59.6998 10.7395 59.2098C11.4142 58.8067 12.0272 58.3083 12.5595 57.7298C12.5595 57.7298 12.5595 57.5898 12.3895 57.5898C11.9475 57.7708 11.5281 58.0023 11.1395 58.2798C11.032 58.3471 10.9059 58.3786 10.7795 58.3698C10.2295 58.3698 10.1195 57.9898 10.1195 57.6198C10.1195 57.0398 10.4495 56.5298 10.4495 56.1198V54.9498C10.4673 54.1355 10.7637 53.352 11.2895 52.7298C11.6895 52.3998 12.1695 52.0198 12.5695 51.7298C12.838 51.5843 13.0984 51.424 13.3495 51.2498C13.5542 51.0429 13.7323 50.8111 13.8795 50.5598C14.4395 49.5598 15.1695 48.5598 15.6895 47.4998C15.8595 47.1498 16.1795 46.7498 16.3195 46.3898C16.4168 45.9888 16.4837 45.581 16.5195 45.1698C16.5563 44.9777 16.6132 44.79 16.6895 44.6098C16.8101 44.2436 17.0003 43.9041 17.2495 43.6098C17.8095 43.1298 18.5795 43.0498 19.2495 42.4898C19.4436 42.3754 19.6641 42.3134 19.8895 42.3098C20.1992 42.3307 20.5051 42.3912 20.7995 42.4898C21.3395 42.7198 21.8995 43.1298 22.4895 43.3398C23.2649 43.5868 24.0617 43.7609 24.8695 43.8598C25.312 43.9197 25.7625 43.8539 26.1695 43.6698C25.7778 43.446 25.4372 43.1429 25.1695 42.7798C25.0295 42.5698 25.1695 42.1798 24.8295 41.9798C24.4895 41.7798 24.3095 41.9798 24.1095 41.8998C23.2224 41.5729 22.3998 41.0922 21.6795 40.4798C20.9895 39.7398 20.9595 39.0398 20.1995 38.3398C20.1195 38.2698 20.1395 37.9898 19.9695 37.9098C19.5473 37.7447 19.1019 37.6468 18.6495 37.6198C17.9595 37.6198 17.5795 38.6198 17.0895 39.1098C16.8014 39.3619 16.537 39.6397 16.2995 39.9398C16.0095 40.3498 15.8195 40.8598 15.5395 41.2598C15.4295 41.4198 15.1995 41.4298 15.0695 41.5598C14.9395 41.6898 15.0695 41.8298 15.0695 41.9898C14.9495 42.4098 14.6495 42.8798 14.4695 43.3398H14.2395C14.0995 43.3398 14.0995 43.2198 14.0595 43.1798C13.5695 43.2898 13.9795 43.9898 13.4595 44.2898C13.0895 44.1998 13.0695 43.5098 12.6195 43.5098C12.1695 43.5098 11.7595 44.3198 11.7595 44.5098C11.7595 44.6998 11.7595 44.6898 11.8195 44.7598C11.8795 44.8298 12.2695 45.0198 12.4695 45.1698C13.0267 45.8325 13.4022 46.6285 13.5595 47.4798C13.5595 48.2898 12.1995 49.1498 11.5595 49.7898C11.2447 50.0547 10.9104 50.2954 10.5595 50.5098C10.1964 50.7218 9.79566 50.861 9.37945 50.9198C9.19905 50.889 9.02604 50.8246 8.86945 50.7298C8.73945 49.9598 8.51945 48.5598 8.51945 48.4198C8.51945 47.1598 8.80945 47.4198 10.2395 46.2298C10.1895 46.2298 10.2395 46.2298 10.1295 46.2298C10.0195 46.2298 8.98945 46.6798 8.84945 46.6798C8.44945 46.6798 8.18945 46.4798 8.18945 46.0898C8.20736 45.8251 8.26816 45.5651 8.36945 45.3198C8.52945 44.9498 8.75945 44.5298 8.94945 44.1898C9.27945 43.5498 9.11945 42.7898 9.44945 42.2498C9.50945 42.1298 9.58945 41.8798 9.75945 41.7998C11.2395 41.0898 13.0195 40.2398 13.8195 38.6898C13.8195 38.6298 13.9695 38.5798 13.9995 38.5198C14.2393 38.0055 14.5132 37.5077 14.8195 37.0298C15.2695 36.3498 16.2895 35.4798 16.3095 34.5898C16.327 34.5845 16.3431 34.5755 16.3569 34.5634C16.3707 34.5513 16.3818 34.5365 16.3895 34.5198C16.6095 33.8098 17.3895 33.6398 17.8695 33.3798C18.7295 32.9198 18.4795 32.8998 19.1595 32.8998C19.8395 32.8998 19.5895 32.8998 20.4495 33.3198C20.5995 33.3898 20.8495 33.3898 21.0595 33.4698C21.4085 33.603 21.7435 33.7705 22.0595 33.9698C22.2898 34.148 22.5377 34.3021 22.7995 34.4298C23.0595 34.5398 23.3695 34.5898 23.6095 34.6898C23.8495 34.7898 24.2395 35.0698 24.6095 35.1798C24.7366 35.0575 24.8385 34.9114 24.9095 34.7498C25.0695 34.3698 25.2495 33.8098 25.4595 33.4098C25.6485 33.0791 25.7963 32.7265 25.8995 32.3598C26.1485 31.5725 26.6253 30.8765 27.2695 30.3598C27.4595 30.1998 27.7495 30.1798 27.9295 29.9898C28.1095 29.7998 28.1595 29.4398 28.2695 29.1998C28.5584 28.6368 28.8928 28.0984 29.2695 27.5898C29.6995 26.9798 29.9395 25.8798 30.8795 25.5398C30.9995 25.5398 31.0995 25.3298 31.2595 25.2498C31.6395 25.0598 32.0495 24.9498 32.4295 24.7698C32.909 24.5819 33.3737 24.358 33.8195 24.0998C34.4297 23.7329 34.9657 23.2546 35.3995 22.6898C35.5095 22.4898 35.3995 22.0898 35.3995 21.9498C35.3995 21.5198 36.6895 20.7498 36.7395 20.7098C36.8593 20.5894 36.9485 20.4419 36.9995 20.2798C36.9862 20.2351 36.9603 20.1953 36.9248 20.1651C36.8892 20.1349 36.8457 20.1157 36.7995 20.1098C36.6349 20.0732 36.4677 20.0498 36.2995 20.0398H35.3695C34.2695 20.0398 33.5595 19.0898 32.3695 19.0898C29.2195 19.0898 30.9795 20.6998 28.2795 20.6998C27.8895 20.6998 27.7995 20.5498 27.2795 20.3298C26.7595 20.1098 26.2095 20.3298 25.7295 20.2398C25.3494 19.7077 25.0683 19.1116 24.8995 18.4798C24.8995 17.9598 26.1395 17.7598 26.3495 17.6598C26.0095 17.0398 25.1595 17.2898 24.6395 17.1198C24.4815 16.9506 24.35 16.7584 24.2495 16.5498C24.1695 16.4198 24.2495 16.1598 24.1595 15.9598C24.0695 15.7598 23.7495 15.7398 23.5695 15.5598C23.4391 15.37 23.3253 15.1693 23.2295 14.9598V14.2698C23.3495 14.0998 23.3895 13.8598 23.5295 13.6498C23.6695 13.4398 24.1695 12.8998 24.3795 12.5398C24.4995 12.3498 24.5895 12.0198 24.7495 11.7798C24.9095 11.5398 24.9495 11.4598 25.0895 11.4298C25.9359 11.0987 26.8137 10.8541 27.7095 10.6998C28.3595 10.6998 29.0695 11.2498 29.7095 11.2498C30.8334 11.0508 31.9353 10.7427 32.9995 10.3298C33.5995 10.0498 34.6295 10.0298 34.8695 9.21984C34.8916 9.09951 34.9357 8.98427 34.9995 8.87984C35.2384 8.59572 35.5221 8.35252 35.8395 8.15984C36.0422 8.07612 36.2601 8.03526 36.4795 8.03984C36.7347 8.0337 36.9889 8.07437 37.2295 8.15984C37.6292 8.34453 38.0716 8.41712 38.5095 8.36984C38.6795 8.36984 38.8995 8.47984 39.2195 8.53984C39.2195 8.53984 39.2195 8.53984 39.2195 8.44984C39.2195 8.35984 38.3895 7.74984 38.3895 6.89984C38.3895 6.75984 38.8895 5.11984 38.8895 4.97984C38.8895 4.83984 38.7795 4.22984 38.7795 4.08984C38.7795 3.75984 38.7795 3.58984 39.1395 3.58984C39.9395 3.58984 40.6595 4.50984 41.0895 5.33984C41.2895 5.72984 41.2095 6.69984 41.9395 6.69984C42.3195 6.69984 42.6095 6.20984 42.6095 6.05984C42.6095 5.90984 42.2795 5.51984 42.1695 5.15984C42.1695 5.15984 42.1695 5.08984 42.2995 5.08984C42.7495 5.08984 43.2995 6.08984 43.2995 6.30984C43.2995 7.11984 42.7395 6.82984 42.5795 7.82984C42.5795 7.87984 42.5795 7.82984 42.6895 7.82984C42.7995 7.82984 42.8595 7.70984 42.9795 7.62984C43.5695 7.20984 43.9095 7.08984 43.9095 6.49984C43.9095 6.35984 43.7495 5.93984 43.7495 5.79984C43.7495 5.65984 43.7495 5.68984 43.8095 5.60984C43.8695 5.52984 43.8895 5.54984 44.0195 5.54984C44.1495 5.54984 44.6895 6.35984 44.6895 6.35984V7.67984C44.6895 7.67984 44.6895 7.67984 44.7795 7.67984C45.2495 7.67984 45.4095 6.99984 45.4095 6.67984C45.3936 6.4733 45.3567 6.26891 45.2995 6.06984C45.3371 6.03587 45.3618 5.98995 45.3695 5.93984H45.5595C45.7395 6.10984 46.0395 6.30984 46.1095 6.50984C46.1636 6.80002 46.1904 7.09465 46.1895 7.38984C46.1895 7.38984 46.1895 7.38984 46.2795 7.38984C46.8344 7.21252 47.3985 7.06564 47.9695 6.94984C48.1095 6.94984 48.1595 7.00984 48.2295 7.00984C48.2995 7.00984 48.2995 7.00984 48.2995 7.16984C48.2995 7.61984 47.6795 7.37984 47.5795 7.73984C47.7795 7.73984 48.0495 7.73984 48.7795 7.73984C48.9895 7.73984 49.1895 7.80984 49.1895 8.01984C49.1895 8.40984 47.8195 8.30984 47.6295 9.01984C47.6295 9.01984 47.6295 9.01984 47.7195 9.01984C47.8095 9.01984 48.9395 8.85984 49.0795 8.85984C49.2195 8.85984 50.4095 9.01984 50.4095 9.48984C50.4095 9.73984 50.0895 9.73984 49.9695 9.73984C49.8495 9.73984 49.2195 9.62984 49.0795 9.62984C48.9395 9.62984 48.5795 9.62984 48.5795 9.85984C48.5795 10.0898 48.8695 10.1298 48.9495 10.1298H49.7695C50.0813 10.2161 50.3688 10.3736 50.6095 10.5898C50.6095 10.6498 50.6095 10.5898 50.6095 10.7698C50.6165 10.8284 50.6082 10.8877 50.5854 10.942C50.5627 10.9964 50.5261 11.0439 50.4795 11.0798H49.1595C48.9356 11.1152 48.7171 11.1791 48.5095 11.2698C49.8195 11.7998 51.9095 11.6598 52.7395 13.5598C52.6695 13.6298 52.5395 13.6298 51.9295 13.6298C51.7695 13.6298 51.1795 13.8498 51.1795 14.1298C51.1795 14.4098 51.6895 14.2998 51.7695 14.2998H52.8295C52.8974 14.3807 52.9577 14.4678 53.0095 14.5598C52.5695 14.7498 52.0695 14.6898 51.7395 15.0998C51.9395 15.0998 52.1695 15.0998 52.3595 15.1498C52.6165 15.2432 52.867 15.3534 53.1095 15.4798C53.2095 15.5298 53.7895 16.1698 53.7895 16.4798C53.7895 16.6098 53.7895 16.6398 53.7295 16.7098C53.5376 16.7441 53.3413 16.7441 53.1495 16.7098C52.6295 16.7098 52.3795 17.3498 52.3495 17.5598C52.5595 17.7098 52.8795 17.7298 53.0995 17.9498C53.2933 18.1602 53.4339 18.414 53.5095 18.6898V19.0298C53.2801 19.0546 53.0488 19.0546 52.8195 19.0298C52.5795 19.0298 52.2695 19.5998 52.1795 19.7798V19.9198C52.2795 19.9698 52.4295 19.9198 52.5695 19.9198C52.7552 19.9552 52.926 20.0459 53.0595 20.1798C53.6295 20.6998 53.9595 21.0898 53.9595 21.5898C53.9595 21.8398 53.9095 22.0298 53.6495 22.0298C53.3895 22.0298 53.0995 21.9198 52.9595 21.9198C52.3195 21.9198 52.1195 22.1398 51.6795 22.9198C51.9095 23.2298 52.2895 23.1098 52.6095 23.3098C52.8723 23.5243 53.0497 23.8259 53.1095 24.1598C53.1095 24.3698 53.2895 24.7898 53.2895 24.9298C53.2895 25.0698 53.2895 25.0898 53.2295 25.1698H52.8095C52.5058 24.9846 52.1637 24.8717 51.8095 24.8398C51.2095 24.8398 51.2695 25.1298 50.4995 25.5498C50.6695 25.8298 50.9995 25.6198 51.2595 25.6898C51.6006 25.8803 51.8866 26.1559 52.0895 26.4898C52.2283 26.8551 52.3288 27.2338 52.3895 27.6198C52.3895 27.7598 52.3895 27.7098 52.3895 27.7698C52.3895 27.8298 52.3295 27.8398 52.1895 27.8398C52.0495 27.8398 51.5995 27.3398 51.1095 27.3398C50.6195 27.3398 50.1095 27.9698 49.9895 28.0598C49.9883 28.0763 49.9832 28.0922 49.9745 28.1061C49.9658 28.1201 49.9537 28.1317 49.9395 28.1398C50.9395 28.4198 51.3295 28.6998 51.3295 29.3398C51.2597 29.6878 51.1419 30.0243 50.9795 30.3398C50.5995 30.0698 50.6195 29.8898 50.3895 29.8898C49.77 30.143 49.188 30.4794 48.6595 30.8898V31.0298C49.3295 31.3998 49.8895 31.1298 49.8895 31.9298C49.8712 32.1859 49.8069 32.4366 49.6995 32.6698C49.6084 32.7751 49.4911 32.8545 49.3595 32.8998C49.0495 32.7898 48.9395 32.4598 48.6595 32.4598C48.2908 32.5311 47.9317 32.6452 47.5895 32.7998C47.4797 32.873 47.3902 32.9727 47.3295 33.0898C47.8095 33.5698 48.3895 33.6698 48.3895 34.3198C48.3869 34.5196 48.3245 34.7139 48.2104 34.8779C48.0964 35.0419 47.9358 35.1679 47.7495 35.2398C47.4495 34.9698 47.6295 34.8598 47.3495 34.3998H46.5295C46.3895 34.3998 46.5295 34.3998 46.4695 34.4898C45.9295 34.8198 44.9395 34.4898 44.9395 35.4898C44.9395 36.0898 46.7995 37.2598 47.0395 37.3898C48.17 37.9394 49.3399 38.4041 50.5395 38.7798C51.2295 39.0298 51.9995 39.1398 52.6795 39.4198C53.4204 39.7209 54.1868 39.9552 54.9695 40.1198" fill="white"/>
</g>
</svg>
