<?xml version="1.0" standalone="no"?>
<!DOCTYPE svg PUBLIC "-//W3C//DTD SVG 20010904//EN"
 "http://www.w3.org/TR/2001/REC-SVG-20010904/DTD/svg10.dtd">
<svg version="1.0" xmlns="http://www.w3.org/2000/svg"
 width="1734.000000pt" height="636.000000pt" viewBox="0 0 1734.000000 636.000000"
 preserveAspectRatio="xMidYMid meet">

<g transform="translate(0.000000,636.000000) scale(0.100000,-0.100000)"
fill="#ffffff" stroke="none">
<path d="M7070 5267 c-146 -83 -361 -206 -477 -272 l-212 -120 -1 -462 0 -463
715 0 715 0 0 464 0 464 111 64 c61 35 111 68 111 73 0 5 -51 38 -113 73 -63
35 -218 125 -345 198 -128 74 -233 134 -235 134 -2 0 -123 -69 -269 -153z"/>
<path d="M9833 5222 c-188 -109 -342 -200 -343 -204 0 -3 21 -18 46 -32 l47
-26 296 170 c163 93 302 170 307 170 6 0 87 -44 180 -98 93 -54 283 -163 422
-241 l252 -143 0 -384 0 -384 -655 0 -655 0 0 -50 0 -50 705 0 705 0 0 463 0
462 -472 270 c-260 149 -477 271 -483 272 -5 0 -164 -87 -352 -195z"/>
<path d="M1068 3604 c-80 -19 -185 -74 -246 -129 -37 -33 -64 -71 -93 -130
-36 -71 -42 -94 -46 -168 -10 -148 43 -266 158 -357 49 -39 133 -82 389 -203
64 -29 133 -69 154 -88 81 -70 95 -166 37 -246 -96 -132 -355 -111 -566 47
l-51 37 -77 -108 c-42 -59 -77 -112 -77 -118 0 -15 114 -97 180 -131 216 -108
477 -120 665 -30 230 110 330 402 213 622 -57 107 -167 190 -357 269 -264 111
-338 160 -362 238 -18 62 -4 109 49 162 51 51 122 79 196 79 93 0 239 -53 324
-117 17 -13 35 -22 40 -19 4 2 34 57 67 121 l60 116 -35 29 c-55 46 -168 97
-260 119 -101 25 -273 27 -362 5z"/>
<path d="M3280 2775 l0 -825 148 0 147 0 -3 277 c-2 164 2 307 8 347 21 138
80 225 188 278 57 28 77 33 142 33 90 0 127 -18 162 -79 23 -41 23 -42 26
-448 l3 -408 144 0 145 0 0 433 c0 352 -3 444 -16 497 -39 169 -156 262 -347
276 -174 13 -332 -57 -429 -190 l-28 -39 0 336 0 337 -145 0 -145 0 0 -825z"/>
<path d="M7850 2775 l0 -825 141 0 141 0 -4 65 c-1 36 -1 65 3 65 3 0 21 -16
40 -36 169 -176 496 -162 684 30 113 115 165 263 165 465 0 146 -19 234 -71
341 -54 109 -123 178 -221 225 -190 90 -412 61 -544 -70 l-44 -44 0 304 0 305
-145 0 -145 0 0 -825z m686 109 c58 -21 135 -105 162 -176 41 -110 38 -261 -8
-364 -64 -147 -236 -215 -375 -150 -128 59 -199 229 -174 416 31 229 197 344
395 274z"/>
<path d="M11980 2775 l0 -825 149 0 150 0 3 338 3 337 27 57 c57 122 161 197
286 205 92 6 147 -21 182 -92 l25 -50 3 -397 4 -398 144 0 145 0 -3 448 c-3
432 -4 449 -26 514 -12 37 -37 86 -55 110 -36 47 -119 102 -182 120 -66 20
-231 16 -300 -7 -78 -25 -171 -89 -215 -148 l-35 -47 -3 330 -2 330 -150 0
-150 0 0 -825z"/>
<path d="M2454 3151 c-134 -22 -253 -81 -345 -171 -120 -118 -169 -232 -176
-410 -8 -176 33 -307 135 -437 54 -68 173 -146 275 -180 74 -24 96 -27 227
-27 133 0 151 2 225 28 97 33 169 74 223 123 l40 38 -57 102 -57 102 -44 -36
c-289 -229 -669 -87 -672 252 -1 120 34 209 111 278 136 122 335 126 503 8
l55 -38 56 88 c32 48 60 94 63 102 13 35 -142 131 -261 162 -72 19 -230 27
-301 16z"/>
<path d="M6925 3150 c-116 -19 -318 -101 -331 -135 -6 -14 92 -205 105 -205 3
0 36 15 71 34 99 52 167 68 269 64 75 -2 93 -7 128 -30 45 -30 70 -75 79 -142
l7 -46 -72 0 c-176 0 -380 -41 -485 -98 -120 -65 -187 -172 -187 -302 -1 -118
31 -190 115 -268 83 -75 144 -96 281 -96 149 0 204 21 298 115 l67 67 0 -79 0
-79 135 0 135 0 0 413 c0 334 -3 424 -15 470 -53 202 -204 312 -445 322 -52 2
-122 0 -155 -5z m322 -718 c-9 -109 -92 -230 -182 -268 -80 -33 -197 -4 -235
58 -26 42 -26 113 -1 154 44 71 163 109 355 113 l69 1 -6 -58z"/>
<path d="M9678 3150 c-236 -40 -413 -203 -473 -435 -21 -81 -21 -261 0 -340
78 -294 331 -469 654 -452 67 3 132 13 176 27 74 23 204 87 243 120 l23 19
-57 104 -56 105 -60 -38 c-93 -61 -176 -85 -288 -85 -84 0 -102 3 -157 29 -99
45 -169 135 -188 238 l-7 38 408 2 409 3 3 100 c5 184 -44 322 -152 430 -119
117 -292 166 -478 135z m228 -256 c53 -32 101 -110 106 -172 l3 -33 -255 0
c-177 0 -256 4 -258 11 -2 6 10 41 28 77 52 105 138 155 261 150 54 -2 76 -8
115 -33z"/>
<path d="M11144 3146 c-109 -25 -201 -86 -264 -174 l-40 -55 0 106 0 107 -140
0 -140 0 -2 -590 -3 -590 148 0 147 0 0 293 c0 374 14 445 105 546 98 109 297
134 373 47 47 -54 52 -100 52 -511 l0 -375 145 0 146 0 -3 458 c-3 446 -4 458
-26 517 -38 102 -119 181 -215 211 -72 22 -208 27 -283 10z"/>
<path d="M13700 3146 c-36 -8 -87 -22 -115 -31 -67 -23 -186 -85 -192 -101 -5
-13 94 -204 106 -204 4 0 36 15 71 34 99 52 167 68 269 64 75 -2 93 -7 128
-30 45 -30 70 -75 79 -142 l7 -46 -89 0 c-176 0 -390 -48 -485 -108 -58 -37
-115 -96 -143 -147 -18 -34 -21 -57 -21 -145 0 -92 3 -112 26 -160 47 -100
149 -175 270 -201 72 -16 192 -6 261 20 60 23 148 95 180 146 l18 30 0 -87 0
-88 135 0 135 0 0 413 c0 444 -3 474 -54 575 -28 54 -105 131 -162 160 -105
53 -296 75 -424 48z m347 -716 c-12 -113 -91 -228 -182 -266 -80 -33 -197 -4
-235 58 -24 39 -26 107 -5 148 38 73 164 115 359 119 l69 1 -6 -60z"/>
<path d="M16340 3151 c-123 -24 -234 -88 -286 -165 -78 -119 -67 -273 27 -380
50 -58 118 -99 277 -167 210 -91 258 -144 197 -218 -35 -40 -84 -55 -164 -48
-80 7 -163 37 -232 83 -28 19 -55 34 -59 34 -10 0 -130 -184 -130 -199 0 -15
79 -67 163 -107 227 -107 517 -77 653 68 67 71 88 126 88 223 0 182 -95 271
-437 410 -128 52 -167 116 -109 175 70 69 240 60 366 -20 26 -17 50 -30 51
-28 1 2 26 50 54 107 48 95 51 104 36 121 -23 25 -131 78 -195 95 -67 18 -239
27 -300 16z"/>
<path d="M4572 3118 c3 -7 78 -254 167 -548 89 -294 168 -553 175 -575 l13
-40 168 0 169 0 22 75 c12 41 58 199 103 350 45 151 84 292 88 312 8 52 19 56
27 10 5 -31 82 -300 195 -680 l22 -72 167 2 167 3 87 290 c49 160 127 418 174
574 47 156 88 290 91 298 4 10 -25 13 -149 13 l-154 0 -112 -423 c-62 -232
-112 -432 -112 -445 0 -38 -17 -24 -24 21 -4 23 -58 222 -120 442 l-112 400
-131 3 -132 3 -9 -33 c-66 -237 -235 -837 -239 -848 -4 -8 -9 5 -13 30 -6 34
-190 743 -216 833 -5 15 -21 17 -161 17 -120 0 -154 -3 -151 -12z"/>
<path d="M14630 2723 c0 -421 5 -493 42 -591 29 -76 103 -151 183 -182 51 -20
78 -24 180 -24 102 0 129 3 177 22 81 33 169 101 209 162 l34 53 3 -107 3
-106 139 0 140 0 0 590 0 590 -149 0 -150 0 -3 -332 c-3 -321 -4 -335 -26
-391 -32 -79 -89 -146 -153 -182 -48 -27 -63 -30 -141 -30 -100 0 -127 14
-162 81 -20 37 -21 57 -24 447 l-3 407 -149 0 -150 0 0 -407z"/>
<path d="M7090 1495 c0 -33 2 -35 35 -35 33 0 35 2 35 35 0 33 -2 35 -35 35
-33 0 -35 -2 -35 -35z"/>
<path d="M7212 1498 c3 -29 7 -33 36 -36 31 -3 32 -2 32 32 0 35 -1 36 -36 36
-34 0 -35 -1 -32 -32z"/>
<path d="M3001 1402 c-50 -25 -76 -65 -76 -118 0 -56 26 -83 132 -138 68 -36
78 -45 81 -71 7 -56 -63 -73 -140 -34 l-41 21 -19 -23 c-25 -33 -19 -49 27
-73 58 -30 151 -33 193 -7 40 26 72 77 72 116 0 56 -33 91 -130 140 -75 38
-90 49 -90 69 0 51 72 73 134 41 39 -20 43 -19 60 14 14 26 14 30 -2 43 -45
39 -145 49 -201 20z"/>
<path d="M8243 1401 c-49 -23 -73 -62 -73 -120 0 -54 33 -91 112 -126 35 -15
71 -34 81 -43 20 -17 23 -62 5 -80 -19 -19 -89 -14 -126 8 -42 26 -44 26 -66
-11 -17 -29 -17 -31 1 -44 40 -31 102 -48 158 -43 49 4 62 10 93 42 34 33 37
41 37 90 0 68 -21 93 -120 140 -87 41 -102 57 -87 91 18 40 76 44 154 11 12
-6 21 1 33 24 15 30 15 33 -2 46 -48 37 -137 43 -200 15z"/>
<path d="M10393 1399 c-68 -34 -92 -112 -54 -175 13 -22 42 -43 93 -67 40 -19
82 -44 93 -56 18 -21 18 -25 4 -49 -20 -37 -85 -42 -137 -12 l-36 22 -23 -28
c-18 -23 -20 -31 -10 -43 21 -25 90 -51 140 -51 97 0 157 52 157 137 0 58 -36
97 -126 138 -40 18 -77 41 -82 52 -31 60 63 98 134 54 l31 -19 18 35 c19 34
19 35 0 49 -51 37 -141 43 -202 13z"/>
<path d="M13012 1402 c-70 -38 -98 -127 -64 -205 11 -25 32 -53 46 -62 33 -22
97 -30 135 -17 39 14 41 0 8 -49 -27 -40 -78 -60 -121 -48 -35 10 -42 5 -50
-37 -6 -27 -4 -32 16 -38 80 -21 177 8 221 66 73 95 78 276 9 351 -48 54 -139
71 -200 39z m126 -84 c20 -22 42 -68 42 -89 0 -21 -42 -49 -74 -49 -72 0 -112
74 -72 134 22 34 74 36 104 4z"/>
<path d="M13592 1399 c-81 -41 -122 -124 -122 -243 0 -78 21 -136 61 -173 50
-46 129 -56 189 -25 40 21 80 90 80 137 0 48 -40 117 -80 138 -35 18 -102 19
-142 2 -27 -11 -11 31 28 72 32 33 36 35 91 31 57 -3 57 -3 67 30 5 18 6 35 3
38 -3 4 -34 8 -69 11 -51 3 -71 0 -106 -18z m93 -242 c20 -17 27 -32 27 -60 0
-102 -113 -104 -151 -4 -15 38 -14 44 9 67 28 28 82 26 115 -3z"/>
<path d="M14125 1402 c-165 -77 -180 -367 -24 -448 36 -18 102 -18 137 0 135
70 103 279 -46 294 -28 2 -59 -1 -71 -8 -31 -16 -35 -8 -17 28 28 54 64 75
123 70 51 -4 53 -4 63 26 14 40 3 49 -67 53 -42 3 -69 -2 -98 -15z m90 -247
c66 -65 -4 -168 -86 -125 -24 13 -49 61 -49 94 0 55 91 76 135 31z"/>
<path d="M3390 1375 l0 -35 75 0 75 0 0 -195 0 -195 40 0 40 0 0 195 0 195 78
0 78 0 -4 35 -4 35 -189 0 -189 0 0 -35z"/>
<path d="M4039 1383 c-15 -40 -149 -424 -149 -429 0 -2 20 -4 43 -4 l44 0 18
60 18 61 80 -3 80 -3 20 -57 19 -58 43 0 44 0 -50 143 c-27 78 -64 181 -81
230 l-31 87 -44 0 c-38 0 -45 -3 -54 -27z m111 -240 c0 -2 -26 -3 -58 -3 l-58
0 30 90 29 90 29 -88 c15 -48 28 -88 28 -89z"/>
<path d="M4490 1179 l0 -230 43 3 42 3 1 80 1 80 42 3 41 3 42 -85 42 -86 49
0 49 0 -52 96 -52 97 27 24 c68 63 59 177 -18 223 -27 17 -51 20 -144 20
l-113 0 0 -231z m201 150 c29 -15 40 -52 28 -89 -8 -22 -20 -33 -48 -41 -38
-11 -98 -9 -93 4 1 4 2 36 2 72 l0 65 46 0 c25 0 54 -5 65 -11z"/>
<path d="M5050 1180 l0 -230 45 0 45 0 0 100 0 100 29 0 c26 0 34 -9 86 -100
l56 -100 45 0 c24 0 44 2 44 5 0 3 -30 57 -66 121 l-66 115 65 109 66 110 -47
0 -47 0 -50 -87 c-53 -91 -72 -110 -99 -100 -13 5 -16 22 -16 97 l0 90 -45 0
-45 0 0 -230z"/>
<path d="M5610 1180 l0 -231 143 3 142 3 0 30 0 30 -103 3 -103 3 3 62 3 62
78 3 77 3 0 34 0 35 -80 0 -80 0 0 60 0 60 100 0 100 0 0 35 0 35 -140 0 -140
0 0 -230z"/>
<path d="M6410 1180 l0 -230 40 0 40 0 0 95 0 95 105 0 105 0 0 -95 0 -95 45
0 45 0 0 230 0 230 -45 0 -45 0 0 -95 0 -95 -105 0 -105 0 0 95 0 95 -40 0
-40 0 0 -230z"/>
<path d="M7135 1398 c-63 -177 -155 -442 -155 -444 0 -2 19 -4 43 -4 l42 0 20
58 20 57 80 0 79 0 21 -55 c20 -54 22 -55 63 -58 23 -2 42 0 42 5 0 4 -36 107
-79 228 l-79 220 -46 3 c-31 2 -48 -1 -51 -10z m79 -162 c14 -46 26 -87 26
-90 0 -3 -25 -6 -55 -6 -30 0 -55 3 -55 7 0 8 53 173 56 173 1 0 13 -38 28
-84z"/>
<path d="M7570 1258 c0 -169 8 -212 47 -259 34 -40 79 -59 142 -59 63 0 98 13
139 53 45 43 52 79 52 260 l0 157 -45 0 -45 0 0 -170 c0 -168 0 -171 -25 -195
-18 -19 -35 -25 -69 -25 -97 0 -106 19 -106 230 l0 160 -45 0 -45 0 0 -152z"/>
<path d="M8690 1180 l0 -230 140 0 140 0 0 35 0 35 -100 0 -101 0 3 63 3 62
78 3 77 3 0 34 0 35 -80 0 -80 0 0 60 0 60 95 0 95 0 0 35 0 35 -135 0 -135 0
0 -230z"/>
<path d="M9190 1181 l0 -231 45 0 45 0 0 85 0 85 39 0 c40 0 40 -1 86 -85 l47
-85 44 0 c24 0 44 3 44 6 0 4 -23 47 -51 97 l-51 90 25 21 c36 30 47 58 47
115 0 44 -5 56 -34 89 l-34 37 -126 3 -126 4 0 -231z m215 134 c29 -28 32 -64
8 -94 -13 -16 -33 -24 -75 -28 l-58 -6 0 77 0 76 50 0 c41 0 56 -5 75 -25z"/>
<path d="M10840 1180 l0 -230 145 0 145 0 0 35 0 34 -102 3 -103 3 0 60 0 60
78 3 77 3 0 34 0 34 -77 3 -78 3 0 55 0 55 98 3 97 3 0 34 0 35 -140 0 -140 0
0 -230z"/>
<path d="M11350 1180 l0 -230 40 0 40 0 0 230 0 230 -40 0 -40 0 0 -230z"/>
<path d="M11620 1375 l0 -35 80 0 80 0 0 -195 0 -195 40 0 40 0 0 195 0 195
75 0 75 0 0 35 0 35 -195 0 -195 0 0 -35z"/>
<path d="M12520 1355 l-54 -55 24 -25 24 -25 28 27 28 27 0 -142 0 -142 -50 0
-50 0 0 -35 0 -35 145 0 145 0 0 35 0 35 -50 0 -50 0 0 195 0 195 -43 0 c-38
0 -48 -5 -97 -55z"/>
<path d="M9740 990 l0 -40 40 0 40 0 0 40 0 40 -40 0 -40 0 0 -40z"/>
<path d="M14530 990 l0 -40 40 0 40 0 0 40 0 40 -40 0 -40 0 0 -40z"/>
</g>
</svg>
