<svg width="408" height="200" viewBox="0 0 408 200" fill="none" xmlns="http://www.w3.org/2000/svg">
<g clip-path="url(#clip0_741_17)">
<path d="M23.045 134.413C24.8432 137.558 26.867 140.551 29.1068 143.374L22.0053 152.301C20.7495 153.556 20.7495 155.61 22.0053 156.864L27.5123 162.371C28.7674 163.626 30.8197 163.626 32.0748 162.371L41.0345 155.244C43.859 157.464 46.8427 159.483 49.9825 161.265L46.8377 172.234C46.1568 173.874 46.945 175.771 48.5832 176.45L55.781 179.43C57.4181 180.109 59.3175 179.324 59.9957 177.684L65.4936 167.765C68.9426 168.753 72.4935 169.482 76.1314 169.942L77.4089 181.148C77.4089 182.922 78.8612 184.375 80.6348 184.375H88.424C90.1986 184.375 91.6516 182.922 91.6516 181.148V181.142L91.6667 157.507L91.1065 157.589C89.1273 157.782 87.127 157.917 85.1477 157.917C52.6761 157.917 26.2566 131.499 26.2566 99.029C26.2566 97.1002 26.3847 95.164 26.5708 93.2426L26.6275 92.7305L3.41778 92.708L3.22794 92.7301C1.45231 92.7301 0 94.182 0 95.9562V103.744C0 105.519 1.45231 106.97 3.22794 106.97L14.2611 108.227C14.7344 111.897 15.4696 115.482 16.4808 118.958L6.691 124.383C5.05188 125.062 4.26535 126.959 4.94488 128.599L7.92563 135.793C8.60416 137.434 10.5015 138.219 12.1407 137.54L23.045 134.413Z" fill="white"/>
<path d="M21.875 66.9499L16.3831 80.208L3.125 74.7161L8.61653 61.458L21.875 66.9499Z" fill="#E8E8E8"/>
<path d="M110.7 18.75L123.958 24.2416L118.466 37.5L105.208 32.0084L110.7 18.75Z" fill="#E8E8E8"/>
<path d="M77.083 29.1663H91.6663V14.583H77.083V29.1663Z" fill="#E8E8E8"/>
<path d="M105.208 167.991L118.466 162.5L123.958 175.758L110.7 181.25L105.208 167.991Z" fill="#E8E8E8"/>
<path d="M45.833 24.2416L59.0915 18.75L64.583 32.0084L51.3249 37.5L45.833 24.2416Z" fill="#E8E8E8"/>
<path d="M39.5837 44.2708L29.6878 54.1667L19.792 44.2708L29.6878 34.375L39.5837 44.2708Z" fill="#E8E8E8"/>
<path d="M159.375 36.979L149.479 46.8747L139.583 36.979L149.479 27.083L159.375 36.979Z" fill="#E8E8E8"/>
<path d="M41.667 76.5781L38.0057 85.417L29.167 81.7562L32.8283 72.917L41.667 76.5781Z" fill="#E8E8E8"/>
<path d="M165.625 3.66116L161.964 12.5L153.125 8.83884L156.786 0L165.625 3.66116Z" fill="#E8E8E8"/>
<path d="M102.619 43.75L111.458 47.4114L107.797 56.25L98.958 52.5889L102.619 43.75Z" fill="#E8E8E8"/>
<path d="M80.208 52.083H89.583V42.708H80.208V52.083Z" fill="#E8E8E8"/>
<path d="M98.958 147.411L107.797 143.75L111.458 152.589L102.619 156.25L98.958 147.411Z" fill="#E8E8E8"/>
<path d="M58.333 47.4114L67.1719 43.75L70.833 52.5889L61.9944 56.25L58.333 47.4114Z" fill="#E8E8E8"/>
<path d="M54.1663 62.4995L46.8747 69.7913L39.583 62.4995L46.8747 55.208L54.1663 62.4995Z" fill="#E8E8E8"/>
<path d="M110.416 192.709L103.125 200L95.833 192.709L103.125 185.417L110.416 192.709Z" fill="#E8E8E8"/>
<path d="M102.992 122.916H92.237L84.8952 94.0295H84.7026L77.2321 122.916H66.7989L55.208 77.083H66.6706L72.9814 104.942H73.1753L80.1946 77.083H90.3056L97.1309 105.007H97.1952L103.572 77.083H114.583L102.992 122.916Z" fill="white"/>
<path d="M136.884 86.3691C132.82 86.3691 129.073 88.5311 129.073 93.8102V107.103C129.073 111.938 132.439 114.672 137.074 114.672C141.01 114.672 144.884 112.319 144.884 107.167V93.7477C144.884 88.9771 141.137 86.3691 136.884 86.3691ZM137.074 123.958C126.915 123.958 117.708 119.125 117.708 107.357V94.3201C117.708 82.8071 127.041 77.083 136.756 77.083C146.852 77.083 156.25 82.4888 156.25 94.1923V106.785C156.25 118.616 146.534 123.958 137.074 123.958Z" fill="white"/>
<path d="M182.229 86.0834H175.052V98.2317H182.229C186.368 98.2317 188.955 95.8531 188.955 92.1253C188.955 87.8822 186.109 86.0834 182.229 86.0834ZM189.473 122.916L180.354 106.717H175.115V122.916H163.541V77.083H183.716C188.309 77.083 191.866 78.0476 194.775 80.1692C198.332 82.7401 200.208 86.9831 200.208 91.5468C200.208 97.1394 197.492 102.603 191.477 105.046L202.083 122.916H189.473Z" fill="white"/>
<path d="M207.291 122.916V77.083H218.745V113.531H240.624V122.916H207.291Z" fill="white"/>
<path d="M263.851 86.4682H257.166V113.595H264.169C268.307 113.595 271.872 110.96 271.872 106.267L271.936 93.6684C271.936 89.1682 268.371 86.4682 263.851 86.4682ZM264.869 122.916H245.833V77.083H264.742C274.865 77.083 283.333 82.5478 283.333 93.2176V106.138C283.333 117.516 274.419 122.916 264.869 122.916Z" fill="white"/>
<path d="M152.077 144.134V158.147H169.985V163.675H152.077V184.374H145.833V138.541H173.958V144.134H152.077Z" fill="white"/>
<path d="M192.675 146.543H192.546L185.42 167.027H199.801L192.675 146.543ZM205.827 184.374L201.616 172.404H183.606L179.394 184.374H172.916L189.825 138.541H195.785L212.499 184.374H205.827Z" fill="white"/>
<path d="M233.014 185.417C223.597 185.417 215.625 180.483 215.625 169.769V154.121C215.625 144.187 222.844 137.5 232.7 137.5C241.739 137.5 248.958 142.694 248.958 151.199V152.823H243.057V151.914C243.057 146.265 238.664 143.149 232.574 143.149C226.611 143.149 221.902 146.849 221.902 153.667V169.379C221.902 175.937 226.36 179.833 232.825 179.833C238.914 179.833 242.995 176.717 242.995 171.068V170.094H248.958V171.718C248.958 181.002 240.986 185.417 233.014 185.417Z" fill="white"/>
<path d="M274.127 144.069V184.374H267.604V144.069H254.166V138.541H287.499V144.069H274.127Z" fill="white"/>
<path d="M310.748 143.213C304.767 143.213 300.045 146.98 300.045 154.057V169.379C300.045 175.937 304.516 179.768 311 179.768C317.044 179.768 321.829 176.197 321.829 169.25V153.538C321.829 147.043 317.422 143.213 310.748 143.213ZM310.875 185.417C301.43 185.417 293.75 180.029 293.75 169.769V154.381C293.75 143.798 301.493 137.5 310.875 137.5C320.57 137.5 328.125 143.472 328.125 153.667V168.795C328.125 179.379 320.067 185.417 310.875 185.417Z" fill="white"/>
<path d="M352.569 143.94H343.823V161.104H352.697C359.083 161.104 362.721 158.211 362.721 152.362C362.721 146.191 357.932 143.94 352.569 143.94ZM363.681 184.374L351.931 166.504H343.823V184.374H337.5V138.541H353.912C357.996 138.541 361.446 139.441 364.128 141.561C367.256 143.94 369.044 147.797 369.044 152.362C369.044 158.983 365.339 164.254 358.51 165.926L370.833 184.374H363.681Z" fill="white"/>
<path d="M392.618 165.412V184.374H386.485V165.412L371.875 138.541H378.706L389.646 159.433L400.65 138.541H407.292L392.618 165.412Z" fill="white"/>
</g>
<defs>
<clipPath id="clip0_741_17">
<rect width="408" height="200" fill="white"/>
</clipPath>
</defs>
</svg>
