<svg width="240" height="80" viewBox="0 0 240 80" fill="none" xmlns="http://www.w3.org/2000/svg">
<g clip-path="url(#clip0_87_3)">
<path d="M220.262 0.00026H19.0687C18.3353 0.00026 17.6108 0.00026 16.8793 0.00426C16.267 0.00826 15.6596 0.01988 15.0415 0.02966C13.6986 0.0454636 12.3588 0.163613 11.0338 0.38308C9.71072 0.607325 8.42906 1.03009 7.23219 1.63708C6.03679 2.2492 4.94452 3.0446 3.995 3.9944C3.0405 4.94153 2.24485 6.03629 1.63864 7.23658C1.03077 8.43448 0.60926 9.71814 0.388687 11.0432C0.166016 12.3666 0.0461952 13.7053 0.030299 15.0472C0.0117396 15.6604 0.00977967 16.2757 0 16.8889V63.1175C0.00977967 63.7385 0.0117396 64.3401 0.030299 64.9613C0.0462001 66.3031 0.166021 67.6417 0.388687 68.9651C0.608651 70.2909 1.03018 71.5753 1.63864 72.7737C2.24457 73.9701 3.04034 75.0604 3.995 76.0023C4.94092 76.9563 6.0339 77.7522 7.23219 78.3597C8.42905 78.9683 9.71057 79.3936 11.0338 79.6213C12.359 79.839 13.6986 79.9572 15.0415 79.9749C15.6596 79.9885 16.267 79.9963 16.8793 79.9963C17.6107 80.0003 18.3354 80.0003 19.0687 80.0003H220.262C220.981 80.0003 221.711 80.0003 222.43 79.9963C223.039 79.9963 223.664 79.9885 224.274 79.9749C225.614 79.9581 226.951 79.8399 228.274 79.6213C229.601 79.392 230.887 78.9668 232.09 78.3597C233.287 77.7519 234.379 76.956 235.324 76.0023C236.276 75.0567 237.074 73.9672 237.687 72.7737C238.291 71.5744 238.709 70.2901 238.925 68.9651C239.148 67.6415 239.273 66.3032 239.297 64.9613C239.304 64.3401 239.304 63.7385 239.304 63.1175C239.32 62.3909 239.32 61.6683 239.32 60.9299V19.0725C239.32 18.3401 239.32 17.6135 239.304 16.8889C239.304 16.2757 239.304 15.6604 239.297 15.0471C239.273 13.7051 239.148 12.3667 238.925 11.0431C238.708 9.71882 238.291 8.43527 237.687 7.2365C236.453 4.83065 234.495 2.87231 232.09 1.6369C230.887 1.03139 229.601 0.608741 228.274 0.3829C226.951 0.162466 225.614 0.0442755 224.274 0.02938C223.664 0.01962 223.039 0.0079 222.43 0.004C221.711 0 220.981 0.00026 220.262 0.00026Z" fill="black"/>
<path d="M16.8891 78.25C16.2798 78.25 15.6851 78.2422 15.0806 78.2286C13.8282 78.2123 12.5787 78.1032 11.3424 77.9024C10.1896 77.7039 9.07291 77.3345 8.02906 76.8066C6.99478 76.283 6.05143 75.5965 5.23515 74.7734C4.40706 73.9599 3.71764 73.0165 3.1942 71.9804C2.665 70.9376 2.29876 69.8198 2.10824 68.666C1.9025 67.4262 1.79118 66.1726 1.77525 64.916C1.76257 64.4942 1.74597 63.0898 1.74597 63.0898V16.8887C1.74597 16.8887 1.76365 15.5059 1.77535 15.0996C1.7906 13.845 1.90127 12.5933 2.1064 11.3555C2.29727 10.1985 2.66379 9.0775 3.19328 8.03126C3.71479 6.99589 4.40039 6.05172 5.22349 5.23536C6.04567 4.41124 6.99204 3.72121 8.02808 3.19042C9.06953 2.66419 10.1842 2.29747 11.3346 2.10254C12.575 1.89967 13.8288 1.78999 15.0855 1.77442L16.8901 1.75H222.42L224.246 1.7754C225.492 1.7902 226.734 1.8989 227.963 2.10058C229.125 2.29795 230.251 2.66723 231.305 3.19628C233.38 4.26597 235.069 5.95833 236.135 8.03614C236.656 9.07516 237.016 10.187 237.205 11.334C237.412 12.582 237.529 13.8435 237.552 15.1084C237.558 15.6748 237.558 16.2832 237.558 16.8887C237.574 17.6387 237.574 18.3525 237.574 19.0723V60.9296C237.574 61.6562 237.574 62.3652 237.558 63.08C237.558 63.7304 237.558 64.3262 237.55 64.9394C237.527 66.1818 237.413 67.4207 237.209 68.6464C237.022 69.8085 236.658 70.935 236.129 71.9864C235.602 73.0112 234.916 73.9465 234.098 74.7578C233.281 75.5854 232.336 76.2759 231.299 76.8028C230.248 77.3348 229.124 77.7055 227.963 77.9024C226.727 78.1043 225.477 78.2134 224.225 78.2286C223.639 78.2422 223.026 78.25 222.43 78.25L220.262 78.254L16.8891 78.25Z" fill="white"/>
<path d="M49.9917 39.7787C50.014 38.0427 50.4751 36.3407 51.332 34.8308C52.1889 33.321 53.4138 32.0525 54.8927 31.1432C53.9532 29.8014 52.7138 28.6972 51.2729 27.9182C49.832 27.1392 48.2293 26.7069 46.5922 26.6557C43.0998 26.2891 39.7141 28.7455 37.9345 28.7455C36.1204 28.7455 33.3804 26.6921 30.4298 26.7528C28.5213 26.8145 26.6613 27.3695 25.031 28.3637C23.4008 29.358 22.0559 30.7576 21.1274 32.4262C17.1053 39.3902 20.1054 49.625 23.9583 55.2542C25.886 58.0107 28.1389 61.0897 31.0868 60.9805C33.9715 60.8609 35.0489 59.141 38.5309 59.141C41.9807 59.141 42.9915 60.9805 45.9992 60.9111C49.0947 60.8609 51.0449 58.1424 52.905 55.3598C54.29 53.3958 55.3558 51.225 56.0629 48.928C54.2645 48.1674 52.7299 46.8942 51.6502 45.2672C50.5706 43.6402 49.9938 41.7313 49.9917 39.7787Z" fill="black"/>
<path d="M44.3106 22.9536C45.9984 20.9275 46.8299 18.3232 46.6285 15.6938C44.05 15.9647 41.6682 17.1971 39.9577 19.1455C39.1213 20.0973 38.4808 21.2047 38.0726 22.4043C37.6645 23.6038 37.4968 24.8721 37.5791 26.1365C38.8688 26.1498 40.1447 25.8702 41.3107 25.3189C42.4767 24.7676 43.5024 23.9588 44.3106 22.9536Z" fill="black"/>
<path d="M84.6007 54.2794H75.1342L72.8608 60.9922H68.8512L77.8177 36.1562H81.9835L90.95 60.9922H86.8721L84.6007 54.2794ZM76.1146 51.1817H83.6184L79.9193 40.2872H79.8157L76.1146 51.1817Z" fill="black"/>
<path d="M110.315 51.9396C110.315 57.5666 107.303 61.1818 102.758 61.1818C101.607 61.242 100.462 60.9768 99.4545 60.4166C98.4469 59.8563 97.6175 59.0236 97.0612 58.0138H96.9752V66.9826H93.2585V42.8849H96.8561V45.8967H96.9244C97.5063 44.8917 98.3498 44.0633 99.365 43.4997C100.38 42.936 101.529 42.658 102.69 42.6955C107.285 42.6955 110.315 46.3283 110.315 51.9396ZM106.494 51.9396C106.494 48.2736 104.6 45.8635 101.709 45.8635C98.8697 45.8635 96.9596 48.3244 96.9596 51.9396C96.9596 55.5881 98.8697 58.0314 101.709 58.0314C104.6 58.0314 106.494 55.6389 106.494 51.9396Z" fill="black"/>
<path d="M130.245 51.9396C130.245 57.5666 127.232 61.1818 122.687 61.1818C121.536 61.242 120.391 60.9768 119.383 60.4166C118.376 59.8563 117.546 59.0236 116.99 58.0138H116.904V66.9826H113.188V42.8849H116.785V45.8967H116.853C117.435 44.8917 118.279 44.0633 119.294 43.4997C120.309 42.936 121.458 42.658 122.619 42.6955C127.214 42.6955 130.245 46.3283 130.245 51.9396ZM126.423 51.9396C126.423 48.2736 124.529 45.8635 121.638 45.8635C118.799 45.8635 116.889 48.3244 116.889 51.9396C116.889 55.5881 118.799 58.0314 121.638 58.0314C124.529 58.0314 126.423 55.6389 126.423 51.9396Z" fill="black"/>
<path d="M143.414 54.0724C143.689 56.5353 146.082 58.1524 149.351 58.1524C152.484 58.1524 154.738 56.5352 154.738 54.3145C154.738 52.3867 153.379 51.2325 150.16 50.4414L146.941 49.666C142.381 48.5645 140.264 46.4316 140.264 42.9707C140.264 38.6855 143.998 35.7422 149.299 35.7422C154.548 35.7422 158.146 38.6855 158.267 42.9707H154.515C154.291 40.4922 152.242 38.9961 149.248 38.9961C146.254 38.9961 144.205 40.5098 144.205 42.7129C144.205 44.4688 145.514 45.502 148.715 46.2929L151.451 46.9648C156.546 48.1699 158.662 50.2168 158.662 53.8495C158.662 58.496 154.962 61.4062 149.076 61.4062C143.568 61.4062 139.85 58.5644 139.609 54.0722L143.414 54.0724Z" fill="black"/>
<path d="M166.687 38.5996V42.8848H170.13V45.8281H166.687V55.8105C166.687 57.3613 167.376 58.084 168.89 58.084C169.299 58.0769 169.707 58.0482 170.112 57.998V60.9238C169.432 61.0509 168.74 61.1085 168.048 61.0956C164.382 61.0956 162.953 59.7187 162.953 56.207V45.8281H160.32V42.8848H162.952V38.5996H166.687Z" fill="black"/>
<path d="M172.122 51.9394C172.122 46.2422 175.477 42.6621 180.71 42.6621C185.959 42.6621 189.299 46.2421 189.299 51.9394C189.299 57.6523 185.977 61.2168 180.71 61.2168C175.444 61.2168 172.122 57.6523 172.122 51.9394ZM185.512 51.9394C185.512 48.0312 183.721 45.7246 180.71 45.7246C177.698 45.7246 175.907 48.0488 175.907 51.9394C175.907 55.8633 177.698 58.1523 180.71 58.1523C183.721 58.1523 185.512 55.8633 185.512 51.9394Z" fill="black"/>
<path d="M192.364 42.8848H195.908V45.9668H195.994C196.234 45.0042 196.798 44.1535 197.591 43.5578C198.384 42.962 199.358 42.6574 200.35 42.6953C200.778 42.6938 201.205 42.7403 201.623 42.834V46.3105C201.082 46.1453 200.518 46.0694 199.953 46.0859C199.413 46.064 198.875 46.1592 198.375 46.365C197.876 46.5708 197.426 46.8822 197.058 47.278C196.69 47.6738 196.413 48.1445 196.244 48.6579C196.075 49.1712 196.019 49.715 196.08 50.2519V60.9922H192.364L192.364 42.8848Z" fill="black"/>
<path d="M218.759 55.6738C218.259 58.9609 215.058 61.2168 210.963 61.2168C205.695 61.2168 202.426 57.6875 202.426 52.0254C202.426 46.3457 205.713 42.6621 210.806 42.6621C215.816 42.6621 218.966 46.1035 218.966 51.5937V52.8672H206.178V53.0918C206.119 53.7582 206.202 54.4295 206.422 55.0612C206.643 55.6929 206.995 56.2705 207.456 56.7555C207.916 57.2406 208.475 57.6222 209.094 57.8748C209.714 58.1274 210.38 58.2453 211.049 58.2207C211.927 58.303 212.808 58.0996 213.562 57.6407C214.315 57.1818 214.9 56.492 215.23 55.6738L218.759 55.6738ZM206.195 50.2695H215.248C215.281 49.6703 215.19 49.0707 214.981 48.5083C214.771 47.9459 214.448 47.4328 214.031 47.0013C213.614 46.5697 213.112 46.2291 212.557 46.0006C212.002 45.7722 211.406 45.6609 210.806 45.6738C210.201 45.6702 209.601 45.7865 209.041 46.016C208.481 46.2455 207.972 46.5836 207.543 47.0109C207.115 47.4381 206.775 47.9461 206.543 48.5054C206.312 49.0647 206.194 49.6643 206.195 50.2695Z" fill="black"/>
<path d="M78.7825 29.3954H71.3394V17.4619H73.1928V27.6913H78.7825V29.3954Z" fill="black"/>
<path d="M80.6554 26.8486C80.6554 25.2275 81.8624 24.293 84.0049 24.1601L86.4443 24.0195V23.2422C86.4443 22.291 85.8154 21.7539 84.6006 21.7539C83.6084 21.7539 82.921 22.1182 82.7237 22.7549H81.003C81.1847 21.208 82.6397 20.2158 84.6826 20.2158C86.9403 20.2158 88.2137 21.3398 88.2137 23.2422V29.3955H86.5029V28.1299H86.3622C86.0768 28.5839 85.676 28.954 85.2008 29.2024C84.7256 29.4508 84.1929 29.5686 83.6573 29.5439C83.2792 29.5832 82.8971 29.5429 82.5356 29.4255C82.1741 29.3081 81.8412 29.1162 81.5584 28.8623C81.2755 28.6083 81.0491 28.298 80.8935 27.9511C80.738 27.6043 80.6569 27.2287 80.6554 26.8486ZM86.4443 26.0791V25.3262L84.245 25.4668C83.0048 25.5498 82.4424 25.9717 82.4424 26.7656C82.4424 27.5761 83.1454 28.0478 84.1123 28.0478C84.3956 28.0765 84.6817 28.0479 84.9538 27.9637C85.2258 27.8796 85.4781 27.7415 85.6956 27.5578C85.9132 27.3742 86.0916 27.1486 86.2202 26.8945C86.3488 26.6405 86.425 26.3632 86.4443 26.0791Z" fill="black"/>
<path d="M90.5497 24.8887C90.5497 22.043 92.0125 20.2403 94.2878 20.2403C94.8506 20.2143 95.4092 20.3491 95.8982 20.6289C96.3873 20.9087 96.7866 21.3219 97.0495 21.8203H97.1823V16.874H98.9596V29.3955H97.2565V27.9726H97.1159C96.8327 28.4676 96.4194 28.8757 95.921 29.1527C95.4225 29.4296 94.8577 29.5649 94.2878 29.5439C91.9969 29.544 90.5497 27.7412 90.5497 24.8887ZM92.3856 24.8887C92.3856 26.7989 93.286 27.9483 94.7918 27.9483C96.2897 27.9483 97.2155 26.7823 97.2155 24.8965C97.2155 23.0196 96.28 21.8369 94.7918 21.8369C93.2957 21.8369 92.3856 22.9942 92.3856 24.8887Z" fill="black"/>
<path d="M109.49 26.9638C109.249 27.7868 108.726 28.4988 108.012 28.9751C107.299 29.4514 106.441 29.6617 105.588 29.5692C104.995 29.5849 104.405 29.4712 103.86 29.2362C103.315 29.0011 102.828 28.6503 102.432 28.208C102.036 27.7657 101.742 27.2426 101.568 26.675C101.395 26.1073 101.347 25.5087 101.428 24.9208C101.349 24.331 101.398 23.7312 101.571 23.1618C101.744 22.5925 102.037 22.0669 102.431 21.6208C102.824 21.1747 103.309 20.8183 103.853 20.5759C104.396 20.3335 104.985 20.2107 105.58 20.2157C108.086 20.2157 109.598 21.9277 109.598 24.7557V25.3759H103.239V25.4755C103.211 25.806 103.252 26.1387 103.361 26.4522C103.469 26.7657 103.641 27.0531 103.867 27.296C104.093 27.5389 104.367 27.7319 104.672 27.8627C104.977 27.9935 105.305 28.0592 105.637 28.0555C106.062 28.1065 106.493 28.03 106.874 27.8356C107.256 27.6412 107.571 27.3377 107.78 26.9637L109.49 26.9638ZM103.239 24.0614H107.787C107.81 23.7592 107.769 23.4556 107.667 23.1701C107.565 22.8847 107.404 22.6237 107.196 22.404C106.987 22.1843 106.734 22.0107 106.455 21.8943C106.175 21.778 105.874 21.7215 105.571 21.7284C105.263 21.7246 104.958 21.7823 104.673 21.8982C104.389 22.0141 104.13 22.1858 103.913 22.4032C103.695 22.6206 103.524 22.8794 103.408 23.1642C103.292 23.4489 103.235 23.754 103.239 24.0614Z" fill="black"/>
<path d="M111.984 20.3895H113.695V21.8202H113.828C114.053 21.3063 114.433 20.8756 114.915 20.588C115.397 20.3003 115.956 20.1702 116.515 20.2157C116.954 20.1827 117.394 20.2488 117.803 20.409C118.212 20.5692 118.58 20.8194 118.879 21.1411C119.179 21.4627 119.402 21.8477 119.532 22.2673C119.663 22.6869 119.697 23.1305 119.633 23.5653V29.3953H117.855V24.0116C117.855 22.5643 117.226 21.8446 115.912 21.8446C115.614 21.8307 115.317 21.8814 115.041 21.993C114.765 22.1047 114.517 22.2747 114.312 22.4915C114.108 22.7083 113.953 22.9666 113.858 23.2489C113.763 23.5311 113.73 23.8306 113.762 24.1268V29.3954H111.984L111.984 20.3895Z" fill="black"/>
<path d="M127.035 17.7265C127.021 17.4963 127.077 17.2673 127.195 17.0691C127.313 16.8709 127.487 16.7128 127.696 16.6151C127.905 16.5173 128.139 16.4846 128.366 16.5211C128.594 16.5576 128.805 16.6616 128.973 16.8197C129.141 16.9777 129.258 17.1826 129.308 17.4077C129.358 17.6328 129.34 17.8677 129.255 18.0821C129.17 18.2965 129.022 18.4805 128.832 18.6101C128.641 18.7398 128.416 18.8093 128.185 18.8095C128.038 18.817 127.89 18.7946 127.752 18.7437C127.613 18.6928 127.486 18.6144 127.379 18.5133C127.272 18.4121 127.186 18.2902 127.127 18.155C127.067 18.0198 127.036 17.8741 127.035 17.7265ZM127.3 20.3896H129.07V29.3954H127.3V20.3896Z" fill="black"/>
<path d="M131.938 20.3896H133.649V21.8368H133.782C133.996 21.3543 134.345 20.9444 134.788 20.6566C135.23 20.3689 135.747 20.2157 136.275 20.2157C136.802 20.2157 137.319 20.3689 137.762 20.6566C138.204 20.9444 138.554 21.3543 138.768 21.8368H138.908C139.16 21.3312 139.552 20.9092 140.038 20.6216C140.524 20.3339 141.082 20.193 141.647 20.2157C142.041 20.1834 142.438 20.2391 142.809 20.3787C143.179 20.5183 143.514 20.7384 143.789 21.0232C144.065 21.3079 144.273 21.6502 144.4 22.0252C144.527 22.4003 144.569 22.7989 144.523 23.1923V29.3954H142.746V23.6562C142.746 22.4404 142.166 21.8447 141 21.8447C140.749 21.8339 140.498 21.8752 140.264 21.9659C140.029 22.0567 139.816 22.1949 139.638 22.372C139.459 22.5491 139.319 22.7612 139.227 22.995C139.134 23.2287 139.091 23.4791 139.1 23.7304V29.3954H137.354V23.4823C137.365 23.2557 137.327 23.0294 137.242 22.819C137.158 22.6085 137.028 22.4189 136.863 22.2632C136.698 22.1076 136.501 21.9895 136.286 21.9173C136.071 21.845 135.843 21.8202 135.618 21.8446C135.357 21.8489 135.1 21.9058 134.862 22.0117C134.624 22.1177 134.409 22.2706 134.232 22.4614C134.054 22.6521 133.917 22.8768 133.828 23.1218C133.739 23.3669 133.701 23.6273 133.715 23.8876V29.3954H131.938L131.938 20.3896Z" fill="black"/>
</g>
<defs>
<clipPath id="clip0_87_3">
<rect width="239.32" height="80" fill="white"/>
</clipPath>
</defs>
</svg>
