<svg width="28" height="18" viewBox="0 0 28 18" fill="none" xmlns="http://www.w3.org/2000/svg">
<g clip-path="url(#clip0_2_15885)">
<path d="M14.1479 17.3711C15.463 17.3711 16.7049 17.2132 17.8735 16.8975C19.0421 16.5818 20.1212 16.1651 21.1108 15.6475C22.1004 15.1299 22.9874 14.5586 23.7719 13.9336C24.5564 13.3086 25.2254 12.682 25.7788 12.0538C26.3321 11.4255 26.7553 10.8428 27.0483 10.3057C27.3413 9.76861 27.4878 9.33404 27.4878 9.00202C27.4878 8.66998 27.3413 8.23541 27.0483 7.69831C26.7553 7.16119 26.3321 6.57851 25.7788 5.95026C25.2254 5.322 24.5564 4.69538 23.7719 4.07038C22.9874 3.44538 22.0987 2.87409 21.1059 2.35651C20.1131 1.83893 19.0323 1.42226 17.8637 1.10651C16.6951 0.790751 15.4565 0.632874 14.1479 0.632874C12.8523 0.632874 11.6234 0.790751 10.4614 1.10651C9.29926 1.42226 8.22178 1.83893 7.22894 2.35651C6.23611 2.87409 5.34418 3.44538 4.55316 4.07038C3.76215 4.69538 3.08669 5.322 2.5268 5.95026C1.9669 6.57851 1.53884 7.16119 1.24261 7.69831C0.946391 8.23541 0.798279 8.66998 0.798279 9.00202C0.798279 9.33404 0.946391 9.76861 1.24261 10.3057C1.53884 10.8428 1.9669 11.4255 2.5268 12.0538C3.08669 12.682 3.76052 13.3086 4.54828 13.9336C5.33604 14.5586 6.22634 15.1299 7.21918 15.6475C8.21202 16.1651 9.28949 16.5818 10.4516 16.8975C11.6137 17.2132 12.8458 17.3711 14.1479 17.3711ZM14.1479 15.8282C13.0737 15.8282 12.0418 15.6947 11.0522 15.4278C10.0626 15.1609 9.13486 14.8077 8.26898 14.3682C7.4031 13.9287 6.6186 13.4486 5.91547 12.9278C5.21234 12.4069 4.60525 11.891 4.09418 11.3799C3.58311 10.8689 3.19086 10.4018 2.91742 9.97858C2.64398 9.5554 2.50726 9.22988 2.50726 9.00202C2.50726 8.8067 2.64398 8.50722 2.91742 8.10358C3.19086 7.69993 3.58311 7.23932 4.09418 6.72174C4.60525 6.20416 5.21234 5.6817 5.91547 5.15436C6.6186 4.62701 7.4031 4.1371 8.26898 3.68463C9.13486 3.23215 10.0626 2.86757 11.0522 2.59088C12.0418 2.31418 13.0737 2.17584 14.1479 2.17584C15.2156 2.17584 16.2426 2.31418 17.229 2.59088C18.2153 2.86757 19.1414 3.23215 20.0073 3.68463C20.8731 4.1371 21.6593 4.62701 22.3657 5.15436C23.0721 5.6817 23.6792 6.20416 24.187 6.72174C24.6948 7.23932 25.087 7.69993 25.3637 8.10358C25.6404 8.50722 25.7788 8.8067 25.7788 9.00202C25.7788 9.22988 25.6404 9.5554 25.3637 9.97858C25.087 10.4018 24.6948 10.8689 24.187 11.3799C23.6792 11.891 23.0721 12.4069 22.3657 12.9278C21.6593 13.4486 20.8731 13.9287 20.0073 14.3682C19.1414 14.8077 18.2153 15.1609 17.229 15.4278C16.2426 15.6947 15.2156 15.8282 14.1479 15.8282ZM14.1479 14.4708C14.9031 14.4708 15.6127 14.3276 16.2768 14.0411C16.9408 13.7546 17.5235 13.3591 18.0249 12.8545C18.5261 12.35 18.9184 11.7673 19.2016 11.1065C19.4848 10.4457 19.6264 9.7442 19.6264 9.00202C19.6264 8.2403 19.4848 7.5274 19.2016 6.86334C18.9184 6.19928 18.5261 5.61822 18.0249 5.12018C17.5235 4.62213 16.9408 4.23313 16.2768 3.95319C15.6127 3.67324 14.9031 3.53327 14.1479 3.53327C13.3797 3.53327 12.6635 3.67324 11.9995 3.95319C11.3354 4.23313 10.7527 4.62213 10.2514 5.12018C9.7501 5.61822 9.35785 6.19928 9.07465 6.86334C8.79144 7.5274 8.64984 8.2403 8.64984 9.00202C8.65635 9.7442 8.80121 10.4457 9.08441 11.1065C9.36762 11.7673 9.75987 12.35 10.2612 12.8545C10.7624 13.3591 11.3435 13.7546 12.0044 14.0411C12.6652 14.3276 13.3797 14.4708 14.1479 14.4708ZM14.1479 10.8184C13.6401 10.8184 13.2071 10.6394 12.8491 10.2813C12.491 9.92323 12.312 9.4968 12.312 9.00202C12.312 8.50071 12.491 8.07265 12.8491 7.71784C13.2071 7.36302 13.6401 7.18561 14.1479 7.18561C14.6492 7.18561 15.0789 7.36302 15.437 7.71784C15.795 8.07265 15.9741 8.50071 15.9741 9.00202C15.9741 9.4968 15.795 9.92323 15.437 10.2813C15.0789 10.6394 14.6492 10.8184 14.1479 10.8184Z" fill="#425DA7"/>
</g>
<defs>
<clipPath id="clip0_2_15885">
<rect width="26.6895" height="16.748" fill="white" transform="translate(0.798279 0.623108)"/>
</clipPath>
</defs>
</svg>