<svg width="23" height="21" viewBox="0 0 23 21" fill="none" xmlns="http://www.w3.org/2000/svg">
<g clip-path="url(#clip0_2_13530)">
<path d="M8.37512 15.8301H19.7716C19.9604 15.8301 20.1264 15.7601 20.2697 15.6201C20.4129 15.4802 20.4845 15.306 20.4845 15.0977C20.4845 14.8894 20.4129 14.7152 20.2697 14.5752C20.1264 14.4352 19.9604 14.3652 19.7716 14.3652H8.54114C8.2677 14.3652 8.04472 14.2757 7.87219 14.0967C7.69966 13.9176 7.59387 13.6784 7.55481 13.3789L5.95325 2.50977C5.90116 2.13217 5.7856 1.84896 5.60657 1.66016C5.42753 1.47136 5.08736 1.37695 4.58606 1.37695H1.15832C0.963013 1.37695 0.793742 1.4502 0.650513 1.59668C0.507284 1.74317 0.435669 1.91407 0.435669 2.10938C0.435669 2.3112 0.507284 2.48536 0.650513 2.63184C0.793742 2.77832 0.963013 2.85156 1.15832 2.85156H4.45911L6.02161 13.5742C6.12578 14.2708 6.36666 14.8209 6.74426 15.2246C7.12187 15.6283 7.66549 15.8301 8.37512 15.8301ZM6.57825 12.3535H19.7912C20.5073 12.3535 21.0542 12.1501 21.4318 11.7432C21.8094 11.3363 22.0503 10.7812 22.1545 10.0781L22.9357 4.91211C22.9487 4.84701 22.9584 4.78027 22.965 4.71191C22.9715 4.64356 22.9748 4.5866 22.9748 4.54102C22.9748 4.30664 22.8934 4.11621 22.7306 3.96973C22.5678 3.82325 22.353 3.75 22.0861 3.75H5.72864L5.7384 5.22461H21.3146L20.6212 9.90234C20.5822 10.2018 20.4813 10.4395 20.3185 10.6152C20.1557 10.791 19.9311 10.8789 19.6447 10.8789L6.55872 10.8887L6.57825 12.3535ZM9.14661 20.5762C9.5828 20.5762 9.95552 20.4232 10.2648 20.1172C10.574 19.8112 10.7287 19.4368 10.7287 18.9941C10.7287 18.5514 10.574 18.1771 10.2648 17.8711C9.95552 17.5651 9.5828 17.4121 9.14661 17.4121C8.84713 17.4121 8.57857 17.4821 8.34094 17.6221C8.10331 17.762 7.91288 17.9525 7.76965 18.1934C7.62642 18.4343 7.55481 18.7012 7.55481 18.9941C7.55481 19.2871 7.62642 19.554 7.76965 19.7949C7.91288 20.0358 8.10331 20.2262 8.34094 20.3662C8.57857 20.5062 8.84713 20.5762 9.14661 20.5762ZM18.2775 20.5762C18.7202 20.5762 19.0962 20.4232 19.4054 20.1172C19.7146 19.8112 19.8693 19.4368 19.8693 18.9941C19.8693 18.5514 19.7146 18.1771 19.4054 17.8711C19.0962 17.5651 18.7202 17.4121 18.2775 17.4121C17.9845 17.4121 17.7175 17.4821 17.4767 17.6221C17.2358 17.762 17.0437 17.9525 16.9005 18.1934C16.7573 18.4343 16.6857 18.7012 16.6857 18.9941C16.6857 19.4368 16.8419 19.8112 17.1545 20.1172C17.4669 20.4232 17.8413 20.5762 18.2775 20.5762Z" fill="#585BA5"/>
</g>
<defs>
<clipPath id="clip0_2_13530">
<rect width="22.5391" height="20.5762" fill="white" transform="translate(0.435669)"/>
</clipPath>
</defs>
</svg>
