<svg width="100" height="100" viewBox="0 0 100 100" fill="none" xmlns="http://www.w3.org/2000/svg">
<g clip-path="url(#clip0_384_134)">
<path d="M0 75V68.4375C0 65.4514 1.52778 63.0208 4.58333 61.1458C7.63889 59.2708 11.6667 58.3333 16.6667 58.3333C17.5694 58.3333 18.4375 58.3507 19.2708 58.3854C20.1042 58.4201 20.9028 58.5069 21.6667 58.6458C20.6944 60.1042 19.9653 61.6319 19.4792 63.2292C18.9931 64.8264 18.75 66.4931 18.75 68.2292V75H0ZM25 75V68.2292C25 66.0069 25.6076 63.9757 26.8229 62.1354C28.0382 60.2951 29.7569 58.6806 31.9792 57.2917C34.2014 55.9028 36.8576 54.8611 39.9479 54.1667C43.0382 53.4722 46.3889 53.125 50 53.125C53.6806 53.125 57.066 53.4722 60.1562 54.1667C63.2465 54.8611 65.9028 55.9028 68.125 57.2917C70.3472 58.6806 72.0486 60.2951 73.2292 62.1354C74.4097 63.9757 75 66.0069 75 68.2292V75H25ZM81.25 75V68.2292C81.25 66.4236 81.0243 64.7222 80.5729 63.125C80.1215 61.5278 79.4444 60.0347 78.5417 58.6458C79.3056 58.5069 80.0868 58.4201 80.8854 58.3854C81.684 58.3507 82.5 58.3333 83.3333 58.3333C88.3333 58.3333 92.3611 59.2535 95.4167 61.0937C98.4722 62.934 100 65.3819 100 68.4375V75H81.25ZM33.8542 66.6667H66.25C65.5556 65.2778 63.6285 64.0625 60.4687 63.0208C57.309 61.9792 53.8194 61.4583 50 61.4583C46.1806 61.4583 42.691 61.9792 39.5312 63.0208C36.3715 64.0625 34.4792 65.2778 33.8542 66.6667ZM16.6667 54.1667C14.375 54.1667 12.4132 53.3507 10.7812 51.7187C9.14931 50.0868 8.33333 48.125 8.33333 45.8333C8.33333 43.4722 9.14931 41.4931 10.7812 39.8958C12.4132 38.2986 14.375 37.5 16.6667 37.5C19.0278 37.5 21.0069 38.2986 22.6042 39.8958C24.2014 41.4931 25 43.4722 25 45.8333C25 48.125 24.2014 50.0868 22.6042 51.7187C21.0069 53.3507 19.0278 54.1667 16.6667 54.1667ZM83.3333 54.1667C81.0417 54.1667 79.0799 53.3507 77.4479 51.7187C75.816 50.0868 75 48.125 75 45.8333C75 43.4722 75.816 41.4931 77.4479 39.8958C79.0799 38.2986 81.0417 37.5 83.3333 37.5C85.6944 37.5 87.6736 38.2986 89.2708 39.8958C90.8681 41.4931 91.6667 43.4722 91.6667 45.8333C91.6667 48.125 90.8681 50.0868 89.2708 51.7187C87.6736 53.3507 85.6944 54.1667 83.3333 54.1667ZM50 50C46.5278 50 43.5764 48.7847 41.1458 46.3542C38.7153 43.9236 37.5 40.9722 37.5 37.5C37.5 33.9583 38.7153 30.9896 41.1458 28.5937C43.5764 26.1979 46.5278 25 50 25C53.5417 25 56.5104 26.1979 58.9062 28.5937C61.3021 30.9896 62.5 33.9583 62.5 37.5C62.5 40.9722 61.3021 43.9236 58.9062 46.3542C56.5104 48.7847 53.5417 50 50 50ZM50 41.6667C51.1806 41.6667 52.1701 41.2674 52.9687 40.4687C53.7674 39.6701 54.1667 38.6806 54.1667 37.5C54.1667 36.3194 53.7674 35.3299 52.9687 34.5312C52.1701 33.7326 51.1806 33.3333 50 33.3333C48.8194 33.3333 47.8299 33.7326 47.0312 34.5312C46.2326 35.3299 45.8333 36.3194 45.8333 37.5C45.8333 38.6806 46.2326 39.6701 47.0312 40.4687C47.8299 41.2674 48.8194 41.6667 50 41.6667Z" fill="#FC9946"/>
</g>
<defs>
<clipPath id="clip0_384_134">
<rect width="100" height="100" fill="white"/>
</clipPath>
</defs>
</svg>
