<svg width="100" height="100" viewBox="0 0 100 100" fill="none" xmlns="http://www.w3.org/2000/svg">
<path d="M33.3333 74.9999L49.9999 62.2916L66.6666 74.9999L60.4166 54.3749L77.0833 42.4999H56.6666L49.9999 20.8333L43.3333 42.4999H22.9166L39.5833 54.3749L33.3333 74.9999ZM49.9999 91.6666C44.236 91.6666 38.8194 90.5728 33.7499 88.3853C28.6805 86.1978 24.2708 83.2291 20.5208 79.4791C16.7708 75.7291 13.802 71.3194 11.6145 66.2499C9.427 61.1805 8.33325 55.7638 8.33325 49.9999C8.33325 44.236 9.427 38.8194 11.6145 33.7499C13.802 28.6805 16.7708 24.2708 20.5208 20.5208C24.2708 16.7708 28.6805 13.802 33.7499 11.6145C38.8194 9.427 44.236 8.33325 49.9999 8.33325C55.7638 8.33325 61.1805 9.427 66.2499 11.6145C71.3194 13.802 75.7291 16.7708 79.4791 20.5208C83.2291 24.2708 86.1978 28.6805 88.3853 33.7499C90.5728 38.8194 91.6666 44.236 91.6666 49.9999C91.6666 55.7638 90.5728 61.1805 88.3853 66.2499C86.1978 71.3194 83.2291 75.7291 79.4791 79.4791C75.7291 83.2291 71.3194 86.1978 66.2499 88.3853C61.1805 90.5728 55.7638 91.6666 49.9999 91.6666ZM49.9999 83.3333C59.3055 83.3333 67.1874 80.1041 73.6458 73.6458C80.1041 67.1874 83.3333 59.3055 83.3333 49.9999C83.3333 40.6944 80.1041 32.8124 73.6458 26.3541C67.1874 19.8958 59.3055 16.6666 49.9999 16.6666C40.6944 16.6666 32.8124 19.8958 26.3541 26.3541C19.8958 32.8124 16.6666 40.6944 16.6666 49.9999C16.6666 59.3055 19.8958 67.1874 26.3541 73.6458C32.8124 80.1041 40.6944 83.3333 49.9999 83.3333Z" fill="#FC9946"/>
</svg>
