<svg width="15" height="21" viewBox="0 0 15 21" fill="none" xmlns="http://www.w3.org/2000/svg">
<g clip-path="url(#clip0_2_4527)">
<path d="M2.88757 19.783H11.8329C12.5621 19.783 13.1089 19.5958 13.4735 19.2215C13.8381 18.8471 14.0204 18.2595 14.0204 17.4588V10.7303C14.0204 9.94248 13.8381 9.36141 13.4735 8.98706C13.1089 8.61271 12.5621 8.42554 11.8329 8.42554H2.88757C2.15841 8.42554 1.61153 8.61271 1.24695 8.98706C0.882365 9.36141 0.700073 9.94248 0.700073 10.7303V17.4588C0.700073 18.2595 0.882365 18.8471 1.24695 19.2215C1.61153 19.5958 2.15841 19.783 2.88757 19.783ZM2.94616 18.3181C2.7183 18.3181 2.54903 18.2611 2.43835 18.1472C2.32768 18.0333 2.27234 17.8396 2.27234 17.5662V10.6326C2.27234 10.3591 2.32768 10.1671 2.43835 10.0564C2.54903 9.94572 2.7183 9.89038 2.94616 9.89038H11.7841C12.0119 9.89038 12.1796 9.94572 12.287 10.0564C12.3944 10.1671 12.4481 10.3591 12.4481 10.6326V17.5662C12.4481 17.8396 12.3944 18.0333 12.287 18.1472C12.1796 18.2611 12.0119 18.3181 11.7841 18.3181H2.94616ZM2.38952 9.19702H3.96179V5.88648C3.96179 5.06616 4.11804 4.37769 4.43054 3.82105C4.74304 3.26441 5.15808 2.84449 5.67566 2.56128C6.19324 2.27808 6.75476 2.13648 7.36023 2.13648C7.97221 2.13648 8.53536 2.27808 9.04968 2.56128C9.564 2.84449 9.97741 3.26441 10.2899 3.82105C10.6024 4.37769 10.7587 5.06616 10.7587 5.88648V9.19702H12.331V6.09155C12.331 5.17358 12.1942 4.3728 11.9208 3.68921C11.6473 3.00561 11.2762 2.43758 10.8075 1.98511C10.3387 1.53263 9.80652 1.19409 9.21081 0.969482C8.61511 0.744873 7.99825 0.632568 7.36023 0.632568C6.72221 0.632568 6.10697 0.744873 5.51452 0.969482C4.92208 1.19409 4.39148 1.53263 3.92273 1.98511C3.45398 2.43758 3.08126 3.00561 2.80456 3.68921C2.52787 4.3728 2.38952 5.17358 2.38952 6.09155V9.19702Z" fill="white"/>
</g>
<defs>
<clipPath id="clip0_2_4527">
<rect width="13.3203" height="19.6191" fill="white" transform="translate(0.700073 0.632568)"/>
</clipPath>
</defs>
</svg>
