<svg width="20" height="21" viewBox="0 0 20 21" fill="none" xmlns="http://www.w3.org/2000/svg">
<g clip-path="url(#clip0_2_4969)">
<path d="M4.85352 11.0901C4.65821 11.0901 4.49544 11.025 4.36523 10.8948C4.23502 10.7646 4.16992 10.6018 4.16992 10.4065C4.16992 10.2177 4.23502 10.0582 4.36523 9.92798C4.49544 9.79777 4.65821 9.73266 4.85352 9.73266H9.27734V3.82446C9.27734 3.63566 9.34245 3.47616 9.47266 3.34594C9.60287 3.21574 9.76237 3.15063 9.95117 3.15063C10.1465 3.15063 10.3092 3.21574 10.4395 3.34594C10.5697 3.47616 10.6348 3.63566 10.6348 3.82446V10.4065C10.6348 10.6018 10.5697 10.7646 10.4395 10.8948C10.3092 11.025 10.1465 11.0901 9.95117 11.0901H4.85352ZM9.96094 19.9964C11.3216 19.9964 12.6026 19.7359 13.8037 19.2151C15.0049 18.6943 16.0645 17.9749 16.9824 17.0569C17.9004 16.1389 18.6198 15.0794 19.1406 13.8782C19.6615 12.677 19.9219 11.3961 19.9219 10.0354C19.9219 8.67472 19.6615 7.3938 19.1406 6.19262C18.6198 4.99146 17.9004 3.93189 16.9824 3.01391C16.0645 2.09595 15.0033 1.37655 13.7988 0.855713C12.5944 0.33488 11.3119 0.0744629 9.95117 0.0744629C8.5905 0.0744629 7.30957 0.33488 6.1084 0.855713C4.90723 1.37655 3.84928 2.09595 2.93457 3.01391C2.01986 3.93189 1.30208 4.99146 0.78125 6.19262C0.260417 7.3938 0 8.67472 0 10.0354C0 11.3961 0.260417 12.677 0.78125 13.8782C1.30208 15.0794 2.02148 16.1389 2.93945 17.0569C3.85742 17.9749 4.91699 18.6943 6.11816 19.2151C7.31933 19.7359 8.60026 19.9964 9.96094 19.9964Z" fill="white" fill-opacity="0.85"/>
</g>
<defs>
<clipPath id="clip0_2_4969">
<rect width="19.9219" height="19.9316" fill="white" transform="translate(0 0.0744629)"/>
</clipPath>
</defs>
</svg>
