<svg width="26" height="20" viewBox="0 0 26 20" fill="none" xmlns="http://www.w3.org/2000/svg">
<g clip-path="url(#clip0_2_15657)">
<path d="M0.26947 6.22461L2.88666 8.16797C3.1601 8.3763 3.42702 8.42839 3.68744 8.32422C3.94786 8.22005 4.07807 8.00195 4.07807 7.66992V6.45899H6.5976C6.81244 6.45899 6.99473 6.38575 7.14447 6.23926C7.29421 6.09277 7.36908 5.91211 7.36908 5.69727C7.36908 5.48894 7.29421 5.3099 7.14447 5.16016C6.99473 5.01042 6.81244 4.93555 6.5976 4.93555H4.07807V3.75391C4.07807 3.40234 3.94461 3.17936 3.67768 3.08496C3.41075 2.99056 3.14707 3.04102 2.88666 3.23633L0.26947 5.19922C0.093689 5.32943 0.00579834 5.50032 0.00579834 5.71191C0.00579834 5.9235 0.093689 6.0944 0.26947 6.22461ZM18.2968 5.69727C18.2968 5.91211 18.37 6.09277 18.5165 6.23926C18.663 6.38575 18.8437 6.45899 19.0585 6.45899H21.5781V7.66992C21.5781 8.00195 21.7099 8.22005 21.9736 8.32422C22.2373 8.42839 22.5026 8.3763 22.7695 8.16797L25.3867 6.22461C25.569 6.0944 25.6601 5.9235 25.6601 5.71191C25.6601 5.50032 25.569 5.32943 25.3867 5.19922L22.7695 3.23633C22.509 3.04102 22.2454 2.99056 21.9785 3.08496C21.7116 3.17936 21.5781 3.40234 21.5781 3.75391V4.93555H19.0585C18.8437 4.93555 18.663 5.01042 18.5165 5.16016C18.37 5.3099 18.2968 5.48894 18.2968 5.69727ZM6.69525 19.3203H18.9609C20.5624 19.3203 21.3632 18.7995 21.3632 17.7578C21.3632 17.1198 21.1679 16.4395 20.7773 15.7168C20.3866 14.9941 19.8218 14.3122 19.0829 13.6709C18.344 13.0296 17.4489 12.5072 16.3974 12.1035C15.346 11.6998 14.1562 11.498 12.8281 11.498C11.5064 11.498 10.3199 11.6998 9.2685 12.1035C8.21706 12.5072 7.32025 13.0296 6.57807 13.6709C5.83588 14.3122 5.2711 14.9941 4.88373 15.7168C4.49636 16.4395 4.30268 17.1198 4.30268 17.7578C4.30268 18.7995 5.1002 19.3203 6.69525 19.3203ZM6.2265 17.8457C6.1028 17.8457 6.01329 17.8262 5.95795 17.7871C5.90261 17.748 5.87494 17.6764 5.87494 17.5723C5.87494 17.1752 6.0263 16.7145 6.32904 16.1904C6.63177 15.6663 7.07936 15.1602 7.67182 14.6719C8.26427 14.1836 8.9918 13.7783 9.85443 13.456C10.7171 13.1337 11.7083 12.9726 12.8281 12.9726C13.9479 12.9726 14.9407 13.1337 15.8066 13.456C16.6725 13.7783 17.4 14.1836 17.9892 14.6719C18.5784 15.1602 19.026 15.6663 19.332 16.1904C19.638 16.7145 19.791 17.1752 19.791 17.5723C19.791 17.6764 19.7633 17.748 19.7079 17.7871C19.6526 17.8262 19.5598 17.8457 19.4296 17.8457H6.2265ZM12.8378 10.2871C13.6125 10.2871 14.3189 10.0788 14.957 9.66211C15.595 9.24544 16.1044 8.69043 16.4853 7.99707C16.8662 7.30371 17.0566 6.53711 17.0566 5.69727C17.0566 4.86394 16.8678 4.11035 16.4902 3.43652C16.1126 2.76269 15.6032 2.22721 14.9619 1.83008C14.3206 1.43294 13.6125 1.23438 12.8378 1.23438C12.0631 1.23438 11.3567 1.4362 10.7187 1.83984C10.0807 2.24349 9.57123 2.78385 9.19037 3.46094C8.80951 4.13802 8.61908 4.88997 8.61908 5.7168C8.61908 6.55013 8.80951 7.31348 9.19037 8.00684C9.57123 8.7002 10.0807 9.25358 10.7187 9.66699C11.3567 10.0804 12.0631 10.2871 12.8378 10.2871ZM12.8378 8.8125C12.3625 8.8125 11.9231 8.67415 11.5195 8.39746C11.1158 8.12077 10.7936 7.74805 10.5527 7.2793C10.3118 6.81055 10.1913 6.28971 10.1913 5.7168C10.1913 5.15039 10.3101 4.64095 10.5478 4.18848C10.7854 3.73601 11.106 3.37631 11.5097 3.10938C11.9134 2.84245 12.3561 2.70899 12.8378 2.70899C13.3196 2.70899 13.7623 2.8392 14.166 3.09961C14.5696 3.36002 14.8902 3.71647 15.1279 4.16895C15.3655 4.62142 15.4843 5.13086 15.4843 5.69727C15.4843 6.27018 15.3639 6.79264 15.123 7.26465C14.8821 7.73666 14.5615 8.11263 14.1611 8.39258C13.7607 8.67253 13.3196 8.8125 12.8378 8.8125Z" fill="white" fill-opacity="0.85"/>
</g>
<defs>
<clipPath id="clip0_2_15657">
<rect width="25.6543" height="18.4082" fill="white" transform="translate(0.00579834 0.912109)"/>
</clipPath>
</defs>
</svg>
