<svg width="100" height="100" viewBox="0 0 100 100" fill="none" xmlns="http://www.w3.org/2000/svg">
<path d="M63.7499 69.5833L69.5833 63.7499L54.1666 48.3333V29.1666H45.8333V51.6666L63.7499 69.5833ZM49.9999 91.6666C44.236 91.6666 38.8194 90.5728 33.7499 88.3853C28.6805 86.1978 24.2708 83.2291 20.5208 79.4791C16.7708 75.7291 13.802 71.3194 11.6145 66.2499C9.427 61.1805 8.33325 55.7638 8.33325 49.9999C8.33325 44.236 9.427 38.8194 11.6145 33.7499C13.802 28.6805 16.7708 24.2708 20.5208 20.5208C24.2708 16.7708 28.6805 13.802 33.7499 11.6145C38.8194 9.427 44.236 8.33325 49.9999 8.33325C55.7638 8.33325 61.1805 9.427 66.2499 11.6145C71.3194 13.802 75.7291 16.7708 79.4791 20.5208C83.2291 24.2708 86.1978 28.6805 88.3853 33.7499C90.5728 38.8194 91.6666 44.236 91.6666 49.9999C91.6666 55.7638 90.5728 61.1805 88.3853 66.2499C86.1978 71.3194 83.2291 75.7291 79.4791 79.4791C75.7291 83.2291 71.3194 86.1978 66.2499 88.3853C61.1805 90.5728 55.7638 91.6666 49.9999 91.6666ZM49.9999 83.3333C59.236 83.3333 67.1006 80.0867 73.5937 73.5937C80.0867 67.1006 83.3333 59.236 83.3333 49.9999C83.3333 40.7638 80.0867 32.8992 73.5937 26.4062C67.1006 19.9131 59.236 16.6666 49.9999 16.6666C40.7638 16.6666 32.8992 19.9131 26.4062 26.4062C19.9131 32.8992 16.6666 40.7638 16.6666 49.9999C16.6666 59.236 19.9131 67.1006 26.4062 73.5937C32.8992 80.0867 40.7638 83.3333 49.9999 83.3333Z" fill="#FC9946"/>
</svg>
