<svg width="160" height="80" viewBox="0 0 160 80" fill="none" xmlns="http://www.w3.org/2000/svg">
<path d="M36.8157 32.9997C36.8157 27.3597 41.4757 24.661 41.5983 24.5383C39.025 20.7383 34.8543 20.1384 33.505 20.1384C30.0717 19.7704 26.761 22.2223 25.0437 22.2223C23.2037 22.2223 20.6437 20.2623 17.6863 20.2623C14.0063 20.2623 10.4517 22.469 8.61165 25.7797C4.56499 32.6463 7.50765 42.713 11.309 48.2197C13.149 50.917 15.3557 53.9824 18.2983 53.8597C21.1183 53.737 22.2223 52.0197 25.6557 52.0197C29.089 52.0197 30.0557 53.8597 33.013 53.737C36.0797 53.737 37.9197 51.0397 39.757 48.341C41.9637 45.2743 42.8237 42.2104 42.8237 41.965C42.701 41.965 36.9383 39.7583 36.8157 33.013V32.9997ZM31.2983 16.445C32.7703 14.485 33.8717 11.9077 33.6277 9.33301C31.421 9.45567 28.721 10.805 27.129 12.7663C25.7797 14.361 24.4317 17.0597 24.7997 19.633C27.129 19.7557 29.7063 18.2837 31.2983 16.433V16.445ZM63.3383 45.805H60.405L58.7477 40.6504H53.1477L51.5823 45.805H48.729L54.329 28.409H57.8263L63.3383 45.805ZM58.1837 38.6264L56.7117 34.1157C56.5277 33.6557 56.2517 32.5503 55.7783 30.8023H55.685L54.8583 34.1157L53.3863 38.6264H58.1837ZM77.697 39.453C77.697 41.5704 77.145 43.3197 75.9477 44.5157C74.9344 45.6197 73.6464 46.173 72.081 46.173C70.4237 46.173 69.2277 45.621 68.4917 44.4237V51.0504H65.7317V37.4277L65.6384 33.2864H68.1237L68.3077 35.313H68.401C69.3343 33.841 70.7023 33.1037 72.6343 33.1037C74.1064 33.1037 75.3943 33.6557 76.3143 34.853C77.2477 35.957 77.6943 37.5223 77.6943 39.4557L77.697 39.453ZM74.8437 39.5464C74.8437 38.3504 74.5677 37.337 74.017 36.509C73.373 35.6823 72.637 35.313 71.6237 35.313C70.9797 35.313 70.3357 35.589 69.7837 35.957C69.2061 36.4174 68.8141 37.0707 68.6797 37.797C68.5863 38.073 68.4957 38.349 68.4957 38.6237V40.741C68.4711 41.585 68.7664 42.407 69.3224 43.0423C69.873 43.6863 70.6104 43.9757 71.5317 43.9757C72.545 43.9757 73.3717 43.6077 74.017 42.7797C74.569 41.953 74.8437 40.8464 74.8437 39.5584V39.5464ZM92.1477 39.453C92.1477 41.5704 91.5957 43.3197 90.3984 44.5157C89.385 45.6197 88.097 46.173 86.5317 46.173C84.8744 46.173 83.6784 45.621 82.9424 44.4237H82.849V51.0504H80.089V37.4277L79.9957 33.2864H82.481L82.665 35.313H82.7584C83.6917 33.841 85.0597 33.1037 86.9917 33.1037C88.4637 33.1037 89.7517 33.6557 90.6717 34.853C91.685 35.957 92.1437 37.5223 92.1437 39.4557L92.1477 39.453ZM89.2944 39.5464C89.2944 38.3504 89.0184 37.337 88.4677 36.509C87.8237 35.6823 87.0877 35.313 86.0744 35.313C85.4304 35.313 84.7864 35.589 84.2344 35.957C83.6568 36.4174 83.2648 37.0707 83.1303 37.797C83.037 38.165 83.037 38.441 83.037 38.6237V40.741C83.0124 41.585 83.3077 42.407 83.8637 43.0423C84.4144 43.6863 85.1517 43.9757 86.073 43.9757C87.0863 43.9757 87.913 43.6077 88.5583 42.7797C89.0183 41.953 89.2944 40.8464 89.2944 39.5584V39.5464ZM108.254 40.925C108.254 42.397 107.702 43.5943 106.689 44.5143C105.585 45.5277 104.02 46.0797 101.889 46.0797C100.049 46.0797 98.4837 45.7117 97.3784 44.9757L98.0224 42.6743C99.2184 43.4103 100.6 43.7783 102.072 43.7783C103.085 43.7783 103.912 43.5023 104.557 43.0423C105.109 42.5823 105.49 41.9384 105.49 41.109C105.495 40.7824 105.433 40.4582 105.306 40.1571C105.179 39.856 104.991 39.5844 104.754 39.3597C104.294 38.8983 103.466 38.4263 102.361 37.9797C99.3237 36.8757 97.7584 35.2197 97.7584 33.009C97.7435 32.3464 97.8762 31.6889 98.147 31.084C98.4177 30.4791 98.8197 29.942 99.3237 29.5117C100.428 28.5784 101.809 28.1317 103.557 28.1317C105.122 28.1317 106.49 28.4077 107.514 28.9583L106.778 31.2597C105.762 30.7073 104.622 30.4228 103.465 30.433C102.452 30.433 101.716 30.709 101.164 31.169C100.704 31.629 100.428 32.1023 100.428 32.7343C100.428 33.069 100.502 33.3994 100.646 33.7018C100.789 34.0043 100.997 34.2713 101.256 34.4837C101.716 34.8517 102.544 35.3103 103.833 35.8637C105.305 36.5077 106.41 37.1517 107.146 37.981C107.973 38.717 108.25 39.7304 108.25 40.9144L108.254 40.925ZM117.55 35.405H114.513V41.4797C114.513 43.045 115.065 43.781 116.17 43.781C116.63 43.781 117.104 43.781 117.366 43.6877L117.46 45.805C116.908 45.989 116.172 46.081 115.25 46.081C114.146 46.081 113.317 45.713 112.673 45.0677C112.029 44.4224 111.74 43.2277 111.74 41.6624V35.325H109.9V33.2077H111.74V30.9983L114.5 30.1717V33.301H117.537L117.55 35.405ZM131.357 39.453C131.357 41.3864 130.805 42.9504 129.7 44.253C128.504 45.541 127.03 46.1863 125.097 46.1863C123.257 46.1863 121.784 45.5423 120.68 44.3463C119.576 43.1503 119.022 41.5863 119.022 39.7437C119.022 37.8103 119.574 36.2464 120.68 34.9437C121.784 33.7477 123.349 33.1037 125.282 33.1037C127.122 33.1037 128.596 33.7477 129.7 34.9437C130.896 36.0477 131.357 37.613 131.357 39.4544V39.453ZM128.504 39.5464C128.524 38.5167 128.27 37.5003 127.768 36.601C127.216 35.5877 126.388 35.129 125.282 35.129C124.177 35.129 123.349 35.589 122.705 36.601C122.245 37.4277 121.969 38.441 121.969 39.6384C121.949 40.668 122.203 41.6844 122.705 42.5837C123.349 43.597 124.177 44.0557 125.282 44.0557C126.388 44.0557 127.216 43.5037 127.768 42.4903C128.228 41.7543 128.504 40.741 128.504 39.557V39.5464ZM140.469 35.773C140.193 35.6797 139.917 35.6797 139.536 35.6797C138.522 35.6797 137.786 36.0477 137.234 36.7837C136.774 37.4277 136.498 38.2557 136.498 39.269V45.8957H133.738V37.3357L133.645 33.3784H136.038L136.132 35.7717H136.225C136.486 34.9805 136.964 34.2786 137.605 33.7464C138.249 33.2864 138.893 33.1024 139.632 33.1024C139.908 33.1024 140.092 33.1024 140.368 33.1957L140.469 35.773ZM152.896 38.993C152.896 39.453 152.896 39.9264 152.802 40.281H144.426C144.426 41.477 144.886 42.4903 145.622 43.1343C146.416 43.7371 147.387 44.0605 148.384 44.0543C149.58 44.0543 150.777 43.8703 151.789 43.5023L152.249 45.4357C151.053 45.9877 149.672 46.1717 148.016 46.1717C146.082 46.1717 144.518 45.6197 143.413 44.4223C142.309 43.3183 141.756 41.753 141.756 39.8197C141.756 37.8863 142.308 36.3224 143.321 35.1264C144.425 33.7464 145.898 33.0997 147.738 33.0997C149.578 33.0997 150.96 33.7437 151.88 35.1264C152.524 36.0597 152.893 37.4277 152.893 38.993H152.896ZM150.318 38.257C150.318 37.4304 150.134 36.6917 149.766 36.1397C149.306 35.4037 148.57 34.9437 147.557 34.9437C146.624 34.9437 145.9 35.3117 145.348 36.0477C144.888 36.6917 144.612 37.3357 144.521 38.257H150.318Z" fill="black"/>
</svg>
