<svg width="147" height="45" viewBox="0 0 147 45" fill="none" xmlns="http://www.w3.org/2000/svg">
<path d="M30.8157 23.9997C30.8157 18.3597 35.4757 15.661 35.5983 15.5383C33.025 11.7383 28.8543 11.1384 27.505 11.1384C24.0717 10.7704 20.761 13.2223 19.0437 13.2223C17.2037 13.2223 14.6437 11.2623 11.6863 11.2623C8.0063 11.2623 4.4517 13.469 2.61165 16.7797C-1.43501 23.6463 1.50765 33.713 5.309 39.2197C7.149 41.917 9.3557 44.9824 12.2983 44.8597C15.1183 44.737 16.2223 43.0197 19.6557 43.0197C23.089 43.0197 24.0557 44.8597 27.013 44.737C30.0797 44.737 31.9197 42.0397 33.757 39.341C35.9637 36.2743 36.8237 33.2104 36.8237 32.965C36.701 32.965 30.9383 30.7583 30.8157 24.013V23.9997ZM25.2983 7.445C26.7703 5.485 27.8717 2.9077 27.6277 0.333008C25.421 0.455668 22.721 1.805 21.129 3.7663C19.7797 5.361 18.4317 8.0597 18.7997 10.633C21.129 10.7557 23.7063 9.2837 25.2983 7.433V7.445ZM57.3383 36.805H54.405L52.7477 31.6504H47.1477L45.5823 36.805H42.729L48.329 19.409H51.8263L57.3383 36.805ZM52.1837 29.6264L50.7117 25.1157C50.5277 24.6557 50.2517 23.5503 49.7783 21.8023H49.685L48.8583 25.1157L47.3863 29.6264H52.1837ZM71.697 30.453C71.697 32.5704 71.145 34.3197 69.9477 35.5157C68.9344 36.6197 67.6464 37.173 66.081 37.173C64.4237 37.173 63.2277 36.621 62.4917 35.4237V42.0504H59.7317V28.4277L59.6384 24.2864H62.1237L62.3077 26.313H62.401C63.3343 24.841 64.7023 24.1037 66.6343 24.1037C68.1064 24.1037 69.3943 24.6557 70.3143 25.853C71.2477 26.957 71.6943 28.5223 71.6943 30.4557L71.697 30.453ZM68.8437 30.5464C68.8437 29.3504 68.5677 28.337 68.017 27.509C67.373 26.6823 66.637 26.313 65.6237 26.313C64.9797 26.313 64.3357 26.589 63.7837 26.957C63.2061 27.4174 62.8141 28.0707 62.6797 28.797C62.5863 29.073 62.4957 29.349 62.4957 29.6237V31.741C62.4711 32.585 62.7664 33.407 63.3224 34.0423C63.873 34.6863 64.6104 34.9757 65.5317 34.9757C66.545 34.9757 67.3717 34.6077 68.017 33.7797C68.569 32.953 68.8437 31.8464 68.8437 30.5584V30.5464ZM86.1477 30.453C86.1477 32.5704 85.5957 34.3197 84.3984 35.5157C83.385 36.6197 82.097 37.173 80.5317 37.173C78.8744 37.173 77.6784 36.621 76.9424 35.4237H76.849V42.0504H74.089V28.4277L73.9957 24.2864H76.481L76.665 26.313H76.7584C77.6917 24.841 79.0597 24.1037 80.9917 24.1037C82.4637 24.1037 83.7517 24.6557 84.6717 25.853C85.685 26.957 86.1437 28.5223 86.1437 30.4557L86.1477 30.453ZM83.2944 30.5464C83.2944 29.3504 83.0184 28.337 82.4677 27.509C81.8237 26.6823 81.0877 26.313 80.0744 26.313C79.4304 26.313 78.7864 26.589 78.2344 26.957C77.6568 27.4174 77.2648 28.0707 77.1303 28.797C77.037 29.165 77.037 29.441 77.037 29.6237V31.741C77.0124 32.585 77.3077 33.407 77.8637 34.0423C78.4144 34.6863 79.1517 34.9757 80.073 34.9757C81.0863 34.9757 81.913 34.6077 82.5583 33.7797C83.0183 32.953 83.2944 31.8464 83.2944 30.5584V30.5464ZM102.254 31.925C102.254 33.397 101.702 34.5943 100.689 35.5143C99.585 36.5277 98.02 37.0797 95.889 37.0797C94.049 37.0797 92.4837 36.7117 91.3784 35.9757L92.0224 33.6743C93.2184 34.4103 94.6 34.7783 96.072 34.7783C97.085 34.7783 97.912 34.5023 98.557 34.0423C99.109 33.5823 99.49 32.9384 99.49 32.109C99.495 31.7824 99.433 31.4582 99.306 31.1571C99.179 30.856 98.991 30.5844 98.754 30.3597C98.294 29.8983 97.466 29.4263 96.361 28.9797C93.3237 27.8757 91.7584 26.2197 91.7584 24.009C91.7435 23.3464 91.8762 22.6889 92.147 22.084C92.4177 21.4791 92.8197 20.942 93.3237 20.5117C94.428 19.5784 95.809 19.1317 97.557 19.1317C99.122 19.1317 100.49 19.4077 101.514 19.9583L100.778 22.2597C99.762 21.7073 98.622 21.4228 97.465 21.433C96.452 21.433 95.716 21.709 95.164 22.169C94.704 22.629 94.428 23.1023 94.428 23.7343C94.428 24.069 94.502 24.3994 94.646 24.7018C94.789 25.0043 94.997 25.2713 95.256 25.4837C95.716 25.8517 96.544 26.3103 97.833 26.8637C99.305 27.5077 100.41 28.1517 101.146 28.981C101.973 29.717 102.25 30.7304 102.25 31.9144L102.254 31.925ZM111.55 26.405H108.513V32.4797C108.513 34.045 109.065 34.781 110.17 34.781C110.63 34.781 111.104 34.781 111.366 34.6877L111.46 36.805C110.908 36.989 110.172 37.081 109.25 37.081C108.146 37.081 107.317 36.713 106.673 36.0677C106.029 35.4224 105.74 34.2277 105.74 32.6624V26.325H103.9V24.2077H105.74V21.9983L108.5 21.1717V24.301H111.537L111.55 26.405ZM125.357 30.453C125.357 32.3864 124.805 33.9504 123.7 35.253C122.504 36.541 121.03 37.1863 119.097 37.1863C117.257 37.1863 115.784 36.5423 114.68 35.3463C113.576 34.1503 113.022 32.5863 113.022 30.7437C113.022 28.8103 113.574 27.2464 114.68 25.9437C115.784 24.7477 117.349 24.1037 119.282 24.1037C121.122 24.1037 122.596 24.7477 123.7 25.9437C124.896 27.0477 125.357 28.613 125.357 30.4544V30.453ZM122.504 30.5464C122.524 29.5167 122.27 28.5003 121.768 27.601C121.216 26.5877 120.388 26.129 119.282 26.129C118.177 26.129 117.349 26.589 116.705 27.601C116.245 28.4277 115.969 29.441 115.969 30.6384C115.949 31.668 116.203 32.6844 116.705 33.5837C117.349 34.597 118.177 35.0557 119.282 35.0557C120.388 35.0557 121.216 34.5037 121.768 33.4903C122.228 32.7543 122.504 31.741 122.504 30.557V30.5464ZM134.469 26.773C134.193 26.6797 133.917 26.6797 133.536 26.6797C132.522 26.6797 131.786 27.0477 131.234 27.7837C130.774 28.4277 130.498 29.2557 130.498 30.269V36.8957H127.738V28.3357L127.645 24.3784H130.038L130.132 26.7717H130.225C130.486 25.9805 130.964 25.2786 131.605 24.7464C132.249 24.2864 132.893 24.1024 133.632 24.1024C133.908 24.1024 134.092 24.1024 134.368 24.1957L134.469 26.773ZM146.896 29.993C146.896 30.453 146.896 30.9264 146.802 31.281H138.426C138.426 32.477 138.886 33.4903 139.622 34.1343C140.416 34.7371 141.387 35.0605 142.384 35.0543C143.58 35.0543 144.777 34.8703 145.789 34.5023L146.249 36.4357C145.053 36.9877 143.672 37.1717 142.016 37.1717C140.082 37.1717 138.518 36.6197 137.413 35.4223C136.309 34.3183 135.756 32.753 135.756 30.8197C135.756 28.8863 136.308 27.3224 137.321 26.1264C138.425 24.7464 139.898 24.0997 141.738 24.0997C143.578 24.0997 144.96 24.7437 145.88 26.1264C146.524 27.0597 146.893 28.4277 146.893 29.993H146.896ZM144.318 29.257C144.318 28.4304 144.134 27.6917 143.766 27.1397C143.306 26.4037 142.57 25.9437 141.557 25.9437C140.624 25.9437 139.9 26.3117 139.348 27.0477C138.888 27.6917 138.612 28.3357 138.521 29.257H144.318Z" fill="black"/>
</svg>
