<svg width="240" height="80" viewBox="0 0 240 80" fill="none" xmlns="http://www.w3.org/2000/svg">
<g clip-path="url(#clip0_84_31)">
<path d="M220.27 0.00026H19.0694C18.336 0.00026 17.6114 0.00026 16.8799 0.00426C16.2676 0.00826 15.6602 0.01988 15.042 0.02966C13.699 0.0454636 12.3592 0.163613 11.0342 0.38308C9.71105 0.607325 8.42935 1.03009 7.23244 1.63708C6.037 2.2492 4.94469 3.0446 3.99514 3.9944C3.04061 4.94153 2.24493 6.03629 1.6387 7.23658C1.0308 8.43448 0.609281 9.71814 0.3887 11.0432C0.166022 12.3666 0.0461968 13.7053 0.0303 15.0472C0.01174 15.6604 0.00978 16.2757 0 16.8889V63.1175C0.00978 63.7385 0.01174 64.3401 0.0303 64.9613C0.0462016 66.3031 0.166027 67.6417 0.3887 68.9651C0.608672 70.2909 1.03022 71.5753 1.6387 72.7737C2.24465 73.9701 3.04044 75.0604 3.99514 76.0023C4.94109 76.9563 6.0341 77.7522 7.23244 78.3597C8.42934 78.9683 9.7109 79.3936 11.0342 79.6213C12.3594 79.839 13.6991 79.9572 15.042 79.9749C15.6602 79.9885 16.2676 79.9963 16.8799 79.9963C17.6113 80.0003 18.336 80.0003 19.0694 80.0003H220.27C220.988 80.0003 221.719 80.0003 222.438 79.9963C223.047 79.9963 223.672 79.9885 224.281 79.9749C225.622 79.9581 226.959 79.8399 228.281 79.6213C229.609 79.392 230.895 78.9668 232.098 78.3597C233.295 77.7519 234.387 76.956 235.332 76.0023C236.284 75.0567 237.082 73.9672 237.695 72.7737C238.299 71.5744 238.717 70.2901 238.934 68.9651C239.157 67.6415 239.281 66.3032 239.305 64.9613C239.313 64.3401 239.313 63.7385 239.313 63.1175C239.328 62.3909 239.328 61.6683 239.328 60.9299V19.0725C239.328 18.3401 239.328 17.6135 239.313 16.8889C239.313 16.2757 239.313 15.6604 239.305 15.0471C239.281 13.7051 239.157 12.3667 238.934 11.0431C238.716 9.71882 238.299 8.43527 237.695 7.2365C236.461 4.83065 234.503 2.87231 232.098 1.6369C230.895 1.03139 229.609 0.608741 228.281 0.3829C226.959 0.162466 225.622 0.0442755 224.281 0.02938C223.672 0.01962 223.047 0.0079 222.438 0.004C221.719 0 220.988 0.00026 220.27 0.00026Z" fill="#A6A6A6"/>
<path d="M16.8897 78.25C16.2803 78.25 15.6857 78.2422 15.0811 78.2286C13.8287 78.2123 12.5791 78.1032 11.3428 77.9024C10.19 77.7039 9.07322 77.3345 8.02933 76.8066C6.99502 76.283 6.05164 75.5965 5.23533 74.7734C4.40721 73.9599 3.71777 73.0165 3.19431 71.9804C2.66509 70.9376 2.29884 69.8198 2.10831 68.666C1.90256 67.4262 1.79124 66.1726 1.77531 64.916C1.76263 64.4942 1.74603 63.0898 1.74603 63.0898V16.8887C1.74603 16.8887 1.76371 15.5059 1.77541 15.0996C1.79066 13.845 1.90134 12.5933 2.10647 11.3555C2.29735 10.1985 2.66389 9.0775 3.19339 8.03126C3.71492 6.99589 4.40054 6.05172 5.22367 5.23536C6.04588 4.41124 6.99228 3.72121 8.02835 3.19042C9.06984 2.66419 10.1845 2.29747 11.335 2.10254C12.5754 1.89967 13.8292 1.78999 15.086 1.77442L16.8907 1.75H222.428L224.254 1.7754C225.499 1.7902 226.742 1.8989 227.971 2.10058C229.133 2.29795 230.259 2.66723 231.313 3.19628C233.388 4.26597 235.077 5.95833 236.143 8.03614C236.664 9.07516 237.024 10.187 237.213 11.334C237.421 12.582 237.537 13.8435 237.561 15.1084C237.566 15.6748 237.566 16.2832 237.566 16.8887C237.582 17.6387 237.582 18.3525 237.582 19.0723V60.9296C237.582 61.6562 237.582 62.3652 237.566 63.08C237.566 63.7304 237.566 64.3262 237.559 64.9394C237.535 66.1818 237.421 67.4207 237.217 68.6464C237.03 69.8085 236.666 70.935 236.137 71.9864C235.61 73.0112 234.924 73.9465 234.106 74.7578C233.289 75.5854 232.343 76.2759 231.307 76.8028C230.256 77.3348 229.132 77.7055 227.971 77.9024C226.735 78.1043 225.485 78.2134 224.232 78.2286C223.647 78.2422 223.033 78.25 222.438 78.25L220.27 78.254L16.8897 78.25Z" fill="black"/>
<path d="M49.5377 40.6011C49.5592 38.9318 50.0027 37.2951 50.8267 35.8432C51.6508 34.3913 52.8287 33.1714 54.2509 32.297C53.3474 31.0067 52.1555 29.9448 50.7698 29.1957C49.3842 28.4466 47.8429 28.0309 46.2685 27.9817C42.9101 27.6291 39.6542 29.9913 37.9427 29.9913C36.1982 29.9913 33.5632 28.0167 30.7257 28.075C28.8904 28.1343 27.1017 28.6681 25.5339 29.6242C23.9662 30.5803 22.6728 31.9262 21.7799 33.5308C17.9119 40.2276 20.7971 50.0697 24.5023 55.4829C26.3561 58.1336 28.5227 61.0945 31.3576 60.9895C34.1317 60.8745 35.1678 59.2206 38.5164 59.2206C41.8339 59.2206 42.8059 60.9895 45.6984 60.9228C48.6751 60.8745 50.5506 58.2603 52.3394 55.5845C53.6713 53.6958 54.6963 51.6083 55.3762 49.3995C53.6468 48.668 52.171 47.4437 51.1327 45.8791C50.0945 44.3145 49.5398 42.4789 49.5377 40.6011Z" fill="white"/>
<path d="M44.0745 24.4217C45.6975 22.4733 46.4971 19.9689 46.3035 17.4404C43.8238 17.7009 41.5333 18.886 39.8884 20.7596C39.0841 21.675 38.4681 22.7399 38.0756 23.8934C37.6831 25.0469 37.5218 26.2665 37.6009 27.4824C38.8412 27.4952 40.0682 27.2264 41.1895 26.6962C42.3109 26.166 43.2973 25.3883 44.0745 24.4217Z" fill="white"/>
<path d="M84.6045 54.2791H75.1377L72.8643 60.992H68.8545L77.8213 36.156H81.9873L90.9541 60.992H86.876L84.6045 54.2791ZM76.1182 51.1814H83.6222L79.9229 40.2869H79.8194L76.1182 51.1814Z" fill="white"/>
<path d="M110.319 51.9394C110.319 57.5664 107.308 61.1816 102.763 61.1816C101.611 61.2418 100.466 60.9766 99.4588 60.4163C98.4512 59.856 97.6218 59.0233 97.0654 58.0136H96.9794V66.9823H93.2626V42.8847H96.8604V45.8964H96.9287C97.5106 44.8915 98.3541 44.0631 99.3693 43.4994C100.385 42.9357 101.534 42.6578 102.694 42.6952C107.29 42.6953 110.319 46.3281 110.319 51.9394ZM106.499 51.9394C106.499 48.2734 104.604 45.8632 101.714 45.8632C98.874 45.8632 96.9639 48.3242 96.9639 51.9394C96.9639 55.5878 98.874 58.0312 101.714 58.0312C104.604 58.0312 106.499 55.6386 106.499 51.9394Z" fill="white"/>
<path d="M130.249 51.9394C130.249 57.5663 127.237 61.1816 122.692 61.1816C121.541 61.2418 120.396 60.9766 119.388 60.4163C118.381 59.856 117.551 59.0233 116.995 58.0136H116.909V66.9823H113.192V42.8847H116.79V45.8964H116.858C117.44 44.8915 118.284 44.0631 119.299 43.4994C120.314 42.9357 121.463 42.6578 122.624 42.6952C127.22 42.6952 130.249 46.328 130.249 51.9394ZM126.429 51.9394C126.429 48.2734 124.534 45.8632 121.644 45.8632C118.804 45.8632 116.894 48.3241 116.894 51.9394C116.894 55.5878 118.804 58.0312 121.644 58.0312C124.534 58.0312 126.429 55.6386 126.429 51.9394Z" fill="white"/>
<path d="M143.421 54.0721C143.696 56.535 146.089 58.1521 149.358 58.1521C152.491 58.1521 154.745 56.5349 154.745 54.3142C154.745 52.3865 153.386 51.2322 150.167 50.4412L146.948 49.6658C142.388 48.5642 140.271 46.4314 140.271 42.9705C140.271 38.6853 144.005 35.7419 149.308 35.7419C154.556 35.7419 158.153 38.6853 158.274 42.9705H154.522C154.298 40.4919 152.249 38.9959 149.255 38.9959C146.261 38.9959 144.212 40.5095 144.212 42.7127C144.212 44.4685 145.52 45.5017 148.722 46.2927L151.458 46.9645C156.554 48.1696 158.671 50.2165 158.671 53.8493C158.671 58.4958 154.97 61.4059 149.083 61.4059C143.575 61.4059 139.856 58.5641 139.616 54.0719L143.421 54.0721Z" fill="white"/>
<path d="M166.692 38.5994V42.8845H170.136V45.8279H166.692V55.8103C166.692 57.3611 167.382 58.0837 168.895 58.0837C169.304 58.0766 169.712 58.0479 170.118 57.9977V60.9235C169.438 61.0507 168.746 61.1083 168.054 61.0954C164.388 61.0954 162.958 59.7184 162.958 56.2067V45.8279H160.325V42.8845H162.958V38.5994H166.692Z" fill="white"/>
<path d="M172.13 51.9392C172.13 46.2419 175.485 42.6619 180.718 42.6619C185.968 42.6619 189.308 46.2419 189.308 51.9392C189.308 57.6521 185.985 61.2165 180.718 61.2165C175.452 61.2165 172.13 57.6521 172.13 51.9392ZM185.521 51.9392C185.521 48.031 183.73 45.7244 180.718 45.7244C177.706 45.7244 175.917 48.0486 175.917 51.9392C175.917 55.863 177.706 58.1521 180.718 58.1521C183.73 58.1521 185.521 55.863 185.521 51.9392Z" fill="white"/>
<path d="M192.372 42.8845H195.917V45.9665H196.003C196.243 45.004 196.807 44.1533 197.6 43.5575C198.393 42.9617 199.367 42.6572 200.358 42.695C200.787 42.6935 201.214 42.7401 201.632 42.8337V46.3103C201.091 46.1451 200.527 46.0692 199.962 46.0857C199.422 46.0638 198.884 46.159 198.384 46.3648C197.884 46.5705 197.435 46.882 197.067 47.2778C196.699 47.6736 196.421 48.1443 196.252 48.6576C196.083 49.171 196.028 49.7148 196.089 50.2517V60.9919H192.372L192.372 42.8845Z" fill="white"/>
<path d="M218.769 55.6736C218.269 58.9607 215.067 61.2165 210.972 61.2165C205.704 61.2165 202.435 57.6872 202.435 52.0251C202.435 46.3455 205.722 42.6619 210.815 42.6619C215.825 42.6619 218.976 46.1033 218.976 51.5935V52.8669H206.187V53.0915C206.128 53.7579 206.211 54.4293 206.431 55.061C206.652 55.6926 207.004 56.2702 207.465 56.7553C207.925 57.2404 208.484 57.6219 209.103 57.8745C209.723 58.1271 210.389 58.2451 211.058 58.2204C211.936 58.3027 212.817 58.0993 213.571 57.6404C214.324 57.1816 214.909 56.4917 215.239 55.6736L218.769 55.6736ZM206.204 50.2693H215.257C215.29 49.6701 215.199 49.0705 214.99 48.5081C214.781 47.9456 214.457 47.4326 214.04 47.001C213.623 46.5695 213.121 46.2288 212.567 46.0004C212.012 45.772 211.415 45.6607 210.815 45.6736C210.21 45.67 209.61 45.7863 209.05 46.0157C208.49 46.2452 207.981 46.5834 207.552 47.0106C207.123 47.4379 206.784 47.9458 206.552 48.5051C206.321 49.0644 206.203 49.664 206.204 50.2693Z" fill="white"/>
<path d="M78.7852 29.3954H71.3419V17.4619H73.1954V27.6913H78.7852V29.3954Z" fill="white"/>
<path d="M80.6583 26.8486C80.6583 25.2275 81.8653 24.293 84.0079 24.1601L86.4473 24.0195V23.2422C86.4473 22.291 85.8184 21.7539 84.6036 21.7539C83.6114 21.7539 82.9239 22.1182 82.7266 22.7549H81.0059C81.1876 21.208 82.6426 20.2158 84.6856 20.2158C86.9434 20.2158 88.2169 21.3398 88.2169 23.2422V29.3955H86.5059V28.1299H86.3653C86.0799 28.5839 85.6791 28.954 85.2038 29.2024C84.7286 29.4508 84.1959 29.5686 83.6602 29.5439C83.2822 29.5832 82.9 29.5429 82.5385 29.4255C82.177 29.3081 81.8441 29.1162 81.5613 28.8623C81.2784 28.6083 81.0519 28.298 80.8964 27.9511C80.7409 27.6043 80.6598 27.2287 80.6583 26.8486ZM86.4473 26.0791V25.3262L84.248 25.4668C83.0078 25.5498 82.4453 25.9717 82.4453 26.7656C82.4453 27.5761 83.1484 28.0478 84.1153 28.0478C84.3986 28.0765 84.6848 28.0479 84.9568 27.9637C85.2288 27.8796 85.4811 27.7415 85.6987 27.5578C85.9163 27.3742 86.0947 27.1486 86.2233 26.8945C86.3519 26.6405 86.4281 26.3632 86.4473 26.0791Z" fill="white"/>
<path d="M90.5528 24.8887C90.5528 22.043 92.0157 20.2403 94.2911 20.2403C94.8539 20.2143 95.4125 20.3491 95.9015 20.6289C96.3906 20.9087 96.7899 21.3219 97.0528 21.8203H97.1856V16.874H98.963V29.3955H97.2598V27.9726H97.1192C96.836 28.4676 96.4228 28.8757 95.9242 29.1527C95.4257 29.4296 94.861 29.5649 94.2911 29.5439C92 29.544 90.5528 27.7412 90.5528 24.8887ZM92.3888 24.8887C92.3888 26.7989 93.2892 27.9483 94.7951 27.9483C96.2931 27.9483 97.2189 26.7823 97.2189 24.8965C97.2189 23.0196 96.2833 21.8369 94.7951 21.8369C93.2989 21.8369 92.3888 22.9942 92.3888 24.8887Z" fill="white"/>
<path d="M109.494 26.9638C109.253 27.7868 108.73 28.4988 108.016 28.9751C107.303 29.4514 106.445 29.6617 105.592 29.5692C104.999 29.5849 104.409 29.4712 103.864 29.2362C103.319 29.0011 102.832 28.6503 102.436 28.208C102.04 27.7657 101.745 27.2426 101.572 26.675C101.398 26.1073 101.351 25.5087 101.432 24.9208C101.353 24.331 101.401 23.7312 101.574 23.1618C101.747 22.5925 102.041 22.0669 102.434 21.6208C102.828 21.1747 103.313 20.8183 103.856 20.5759C104.4 20.3335 104.989 20.2107 105.584 20.2157C108.09 20.2157 109.602 21.9277 109.602 24.7557V25.3759H103.242V25.4755C103.214 25.806 103.256 26.1387 103.364 26.4522C103.472 26.7657 103.645 27.0531 103.871 27.296C104.097 27.5389 104.371 27.7319 104.676 27.8627C104.98 27.9935 105.309 28.0592 105.641 28.0555C106.066 28.1065 106.497 28.03 106.878 27.8356C107.26 27.6412 107.575 27.3377 107.783 26.9637L109.494 26.9638ZM103.242 24.0614H107.791C107.813 23.7592 107.772 23.4556 107.67 23.1701C107.569 22.8847 107.408 22.6237 107.199 22.404C106.991 22.1843 106.738 22.0107 106.458 21.8943C106.178 21.778 105.877 21.7215 105.574 21.7284C105.267 21.7246 104.962 21.7823 104.677 21.8982C104.392 22.0141 104.134 22.1858 103.916 22.4032C103.699 22.6206 103.527 22.8794 103.412 23.1642C103.296 23.4489 103.238 23.754 103.242 24.0614Z" fill="white"/>
<path d="M111.988 20.3895H113.699V21.8202H113.832C114.057 21.3063 114.437 20.8756 114.919 20.588C115.401 20.3003 115.96 20.1702 116.52 20.2157C116.958 20.1827 117.398 20.2488 117.807 20.409C118.216 20.5692 118.584 20.8194 118.883 21.1411C119.183 21.4627 119.406 21.8477 119.536 22.2673C119.667 22.6869 119.701 23.1305 119.637 23.5653V29.3953H117.859V24.0116C117.859 22.5643 117.23 21.8446 115.916 21.8446C115.619 21.8307 115.322 21.8814 115.045 21.993C114.769 22.1047 114.521 22.2747 114.316 22.4915C114.112 22.7083 113.957 22.9666 113.862 23.2489C113.767 23.5311 113.734 23.8306 113.766 24.1268V29.3954H111.988L111.988 20.3895Z" fill="white"/>
<path d="M127.039 17.7265C127.025 17.4963 127.081 17.2673 127.199 17.0691C127.317 16.8709 127.492 16.7128 127.701 16.6151C127.91 16.5173 128.143 16.4846 128.371 16.5211C128.598 16.5576 128.81 16.6616 128.978 16.8197C129.146 16.9777 129.262 17.1826 129.312 17.4077C129.363 17.6328 129.344 17.8677 129.259 18.0821C129.174 18.2965 129.027 18.4805 128.836 18.6101C128.645 18.7398 128.42 18.8093 128.19 18.8095C128.042 18.817 127.895 18.7946 127.756 18.7437C127.618 18.6928 127.491 18.6144 127.383 18.5133C127.276 18.4121 127.19 18.2902 127.131 18.155C127.072 18.0198 127.041 17.8741 127.039 17.7265ZM127.305 20.3896H129.074V29.3954H127.305V20.3896Z" fill="white"/>
<path d="M131.942 20.3896H133.653V21.8368H133.786C134 21.3543 134.35 20.9444 134.792 20.6566C135.235 20.3689 135.752 20.2157 136.279 20.2157C136.807 20.2157 137.324 20.3689 137.766 20.6566C138.209 20.9444 138.558 21.3543 138.773 21.8368H138.913C139.165 21.3312 139.557 20.9092 140.043 20.6216C140.529 20.3339 141.087 20.193 141.651 20.2157C142.046 20.1834 142.443 20.2391 142.814 20.3787C143.184 20.5183 143.519 20.7384 143.794 21.0232C144.07 21.3079 144.278 21.6502 144.405 22.0252C144.532 22.4003 144.574 22.7989 144.528 23.1923V29.3954H142.751V23.6562C142.751 22.4404 142.171 21.8447 141.005 21.8447C140.754 21.8339 140.503 21.8752 140.269 21.9659C140.034 22.0567 139.821 22.1949 139.643 22.372C139.464 22.5491 139.324 22.7612 139.232 22.995C139.139 23.2287 139.096 23.4791 139.105 23.7304V29.3954H137.359V23.4823C137.37 23.2557 137.332 23.0294 137.247 22.819C137.162 22.6085 137.033 22.4189 136.868 22.2632C136.703 22.1076 136.506 21.9895 136.291 21.9173C136.076 21.845 135.848 21.8202 135.622 21.8446C135.362 21.8489 135.105 21.9058 134.867 22.0117C134.628 22.1177 134.414 22.2706 134.237 22.4614C134.059 22.6521 133.922 22.8768 133.833 23.1218C133.744 23.3669 133.706 23.6273 133.72 23.8876V29.3954H131.943L131.942 20.3896Z" fill="white"/>
</g>
<defs>
<clipPath id="clip0_84_31">
<rect width="239.328" height="80" fill="white"/>
</clipPath>
</defs>
</svg>
