<svg width="23" height="22" viewBox="0 0 23 22" fill="none" xmlns="http://www.w3.org/2000/svg">
<path d="M0.223389 10.1953V18.916C0.223389 19.1504 0.275472 19.3555 0.379639 19.5312C0.483805 19.707 0.627035 19.8438 0.809327 19.9414C0.991618 20.0391 1.1967 20.0879 1.42456 20.0879C1.65243 20.0814 1.85751 20.0309 2.0398 19.9365C2.22209 19.8421 2.36531 19.707 2.46948 19.5312C2.57365 19.3555 2.62573 19.1504 2.62573 18.916V8.35938H2.14722C1.75008 8.35938 1.40828 8.43099 1.12183 8.57422C0.835368 8.71744 0.614014 8.9274 0.457764 9.2041C0.301514 9.48079 0.223389 9.81119 0.223389 10.1953ZM3.52417 21.6113H18.9734C19.9955 21.6113 20.7621 21.3591 21.2732 20.8545C21.7843 20.3499 22.0398 19.5963 22.0398 18.5937V3.70117C22.0398 2.69205 21.7843 1.93522 21.2732 1.43066C20.7621 0.926107 19.9955 0.673828 18.9734 0.673828H7.59644C6.5743 0.673828 5.8077 0.926107 5.29663 1.43066C4.78556 1.93522 4.53003 2.69205 4.53003 3.70117V19.5605C4.53003 20.0879 4.45842 20.5094 4.31519 20.8252C4.17196 21.141 3.90828 21.403 3.52417 21.6113ZM8.44605 6.49414C8.27026 6.49414 8.12378 6.43392 8.00659 6.31348C7.8894 6.19303 7.83081 6.04817 7.83081 5.87891C7.83081 5.71615 7.8894 5.5778 8.00659 5.46387C8.12378 5.34993 8.27026 5.29297 8.44605 5.29297H18.1433C18.3126 5.29297 18.4558 5.34993 18.573 5.46387C18.6902 5.5778 18.7488 5.71615 18.7488 5.87891C18.7488 6.04817 18.6902 6.19303 18.573 6.31348C18.4558 6.43392 18.3126 6.49414 18.1433 6.49414H8.44605ZM8.44605 9.93164C8.27026 9.93164 8.12378 9.87467 8.00659 9.76074C7.8894 9.64681 7.83081 9.50521 7.83081 9.33594C7.83081 9.16667 7.8894 9.02343 8.00659 8.90625C8.12378 8.78906 8.27026 8.73047 8.44605 8.73047H18.1433C18.3126 8.73047 18.4558 8.78906 18.573 8.90625C18.6902 9.02343 18.7488 9.16667 18.7488 9.33594C18.7488 9.50521 18.6902 9.64681 18.573 9.76074C18.4558 9.87467 18.3126 9.93164 18.1433 9.93164H8.44605ZM14.5007 13.3789C14.325 13.3789 14.1801 13.322 14.0662 13.208C13.9523 13.0941 13.8953 12.9557 13.8953 12.7929C13.8953 12.6172 13.9523 12.4707 14.0662 12.3535C14.1801 12.2363 14.325 12.1777 14.5007 12.1777H18.1433C18.3126 12.1777 18.4542 12.2363 18.5681 12.3535C18.682 12.4707 18.739 12.6172 18.739 12.7929C18.739 12.9557 18.682 13.0941 18.5681 13.208C18.4542 13.322 18.3126 13.3789 18.1433 13.3789H14.5007ZM14.5007 16.8945C14.325 16.8945 14.1801 16.8376 14.0662 16.7236C13.9523 16.6097 13.8953 16.4714 13.8953 16.3086C13.8953 16.1328 13.9523 15.9863 14.0662 15.8691C14.1801 15.7519 14.325 15.6933 14.5007 15.6933H18.1433C18.3126 15.6933 18.4542 15.7519 18.5681 15.8691C18.682 15.9863 18.739 16.1328 18.739 16.3086C18.739 16.4714 18.682 16.6097 18.5681 16.7236C18.4542 16.8376 18.3126 16.8945 18.1433 16.8945H14.5007ZM8.97339 16.9433C8.6088 16.9433 8.3256 16.8424 8.12378 16.6406C7.92196 16.4388 7.82105 16.1589 7.82105 15.8008V13.33C7.82105 12.972 7.92196 12.6904 8.12378 12.4853C8.3256 12.2803 8.6088 12.1777 8.97339 12.1777H11.4148C11.7729 12.1777 12.0528 12.2803 12.2546 12.4853C12.4565 12.6904 12.5574 12.972 12.5574 13.33V15.8008C12.5574 16.1589 12.4565 16.4388 12.2546 16.6406C12.0528 16.8424 11.7729 16.9433 11.4148 16.9433H8.97339Z" fill="white" fill-opacity="0.85"/>
</svg>
