<svg width="22" height="22" viewBox="0 0 22 22" fill="none" xmlns="http://www.w3.org/2000/svg">
<g clip-path="url(#clip0_2_4358)">
<path d="M0.789124 5.19427C0.789124 5.48725 0.88027 5.72162 1.06256 5.8974C1.24485 6.07318 1.48574 6.16107 1.78522 6.16107H2.99615V3.00677C2.99615 2.69427 2.88548 2.43711 2.66412 2.23529C2.44277 2.03347 2.18561 1.93255 1.89264 1.93255C1.59967 1.92605 1.34251 2.02533 1.12115 2.23041C0.899801 2.43549 0.789124 2.69427 0.789124 3.00677V5.19427ZM3.31842 0.467712C3.69602 0.682556 3.95807 0.947856 4.10455 1.26361C4.25104 1.57937 4.32428 1.99766 4.32428 2.51849V18.6611C4.32428 19.3512 4.50657 19.885 4.87115 20.2626C5.23574 20.6402 5.71751 20.829 6.31646 20.829C6.87636 20.829 7.32558 20.6467 7.66412 20.2822C8.00266 19.9176 8.17193 19.4033 8.17193 18.7392V16.0439C8.17193 15.3798 8.32818 14.8785 8.64068 14.54C8.95318 14.2015 9.44472 14.0322 10.1153 14.0322H19.5196V3.53412C19.5196 2.51198 19.2673 1.74538 18.7627 1.23431C18.2582 0.723246 17.5014 0.467712 16.4922 0.467712H3.31842ZM8.09381 5.56537C8.09381 5.3961 8.15241 5.2545 8.26959 5.14056C8.38678 5.02663 8.53326 4.96966 8.70904 4.96966H15.4278C15.6036 4.96966 15.7484 5.02663 15.8623 5.14056C15.9763 5.2545 16.0332 5.3961 16.0332 5.56537C16.0332 5.73464 15.9763 5.87787 15.8623 5.99505C15.7484 6.11224 15.6036 6.17083 15.4278 6.17083H8.70904C8.53326 6.17083 8.38678 6.11224 8.26959 5.99505C8.15241 5.87787 8.09381 5.73464 8.09381 5.56537ZM8.09381 8.9931C8.09381 8.81732 8.15241 8.67084 8.26959 8.55365C8.38678 8.43647 8.53326 8.37787 8.70904 8.37787H12.2149C12.3907 8.37787 12.5356 8.43647 12.6495 8.55365C12.7634 8.67084 12.8203 8.81732 12.8203 8.9931C12.8203 9.15586 12.7634 9.29421 12.6495 9.40814C12.5356 9.52208 12.3907 9.57904 12.2149 9.57904H8.70904C8.53326 9.57904 8.38678 9.52208 8.26959 9.40814C8.15241 9.29421 8.09381 9.15586 8.09381 8.9931ZM8.57232 21.2099H18.4453C19.0639 21.2099 19.6042 21.0781 20.0664 20.8144C20.5287 20.5507 20.8868 20.1796 21.1407 19.7011C21.3946 19.2226 21.5215 18.661 21.5215 18.0165V16.3368C21.5215 16.0439 21.432 15.8079 21.253 15.6288C21.074 15.4498 20.8314 15.3603 20.5254 15.3603H10.5059C10.1999 15.3603 9.95579 15.4498 9.7735 15.6288C9.59121 15.8079 9.50006 16.0439 9.50006 16.3368V18.2509C9.50006 18.8108 9.4431 19.3381 9.32916 19.8329C9.21523 20.3277 8.96295 20.7867 8.57232 21.2099Z" fill="white" fill-opacity="0.85"/>
</g>
<defs>
<clipPath id="clip0_2_4358">
<rect width="20.7324" height="20.752" fill="white" transform="translate(0.789124 0.467712)"/>
</clipPath>
</defs>
</svg>
