<svg width="14" height="21" viewBox="0 0 14 21" fill="none" xmlns="http://www.w3.org/2000/svg">
<g clip-path="url(#clip0_2_4531)">
<path d="M2.6582 19.6853H11.9551C12.5866 19.6853 13.0569 19.5241 13.3662 19.2019C13.6755 18.8796 13.8301 18.3767 13.8301 17.6931V10.5251C13.8301 9.84806 13.6755 9.34838 13.3662 9.02612C13.0569 8.70386 12.5866 8.54273 11.9551 8.54273L2.85351 8.56226C2.22851 8.56226 1.72721 8.72176 1.34961 9.04077C0.972005 9.35978 0.783203 9.85458 0.783203 10.5251V17.6931C0.783203 18.3767 0.939453 18.8796 1.25195 19.2019C1.56445 19.5241 2.0332 19.6853 2.6582 19.6853ZM2.33593 9.19702H3.9082V5.88648C3.9082 5.06616 4.06445 4.37769 4.37695 3.82105C4.68945 3.26441 5.10449 2.84449 5.62207 2.56128C6.13965 2.27808 6.70117 2.13648 7.30664 2.13648C7.91862 2.13648 8.48177 2.27808 8.99609 2.56128C9.51042 2.84449 9.92383 3.26441 10.2363 3.82105C10.5488 4.37769 10.7051 5.06616 10.7051 5.88648V9.19702H12.2773V6.09155C12.2773 5.17358 12.1406 4.3728 11.8672 3.68921C11.5937 3.00561 11.2226 2.43758 10.7539 1.98511C10.2852 1.53263 9.75293 1.19409 9.15722 0.969482C8.56152 0.744873 7.94466 0.632568 7.30664 0.632568C6.66862 0.632568 6.05339 0.744873 5.46093 0.969482C4.86849 1.19409 4.33789 1.53263 3.86914 1.98511C3.40039 2.43758 3.02767 3.00561 2.75097 3.68921C2.47428 4.3728 2.33593 5.17358 2.33593 6.09155V9.19702Z" fill="white"/>
</g>
<defs>
<clipPath id="clip0_2_4531">
<rect width="13.0469" height="19.6191" fill="white" transform="translate(0.783203 0.632568)"/>
</clipPath>
</defs>
</svg>
