<svg width="23" height="18" viewBox="0 0 23 18" fill="none" xmlns="http://www.w3.org/2000/svg">
<g clip-path="url(#clip0_2_5807)">
<path d="M11.5723 10.4141C11.9629 10.4141 12.3633 10.209 12.7735 9.79883L21.2695 1.39062C20.905 1.04557 20.2376 0.873047 19.2676 0.873047H3.54492C2.7181 0.873047 2.14518 1.03255 1.82617 1.35156L10.3711 9.79883C10.7748 10.209 11.1752 10.4141 11.5723 10.4141ZM1.01563 16.1269L7.91992 9.30079L0.996093 2.47461C0.846354 2.75456 0.771484 3.22657 0.771484 3.89063V14.6719C0.771484 15.362 0.852865 15.847 1.01563 16.1269ZM3.83789 17.6992H19.5606C20.3744 17.6992 20.944 17.543 21.2695 17.2305L14.2285 10.2578L13.584 10.9121C12.9265 11.5371 12.2559 11.8496 11.5723 11.8496C10.8822 11.8496 10.2116 11.5371 9.56054 10.9121L8.90625 10.2578L1.88476 17.2207C2.25586 17.5397 2.9069 17.6992 3.83789 17.6992ZM22.0996 16.1172C22.2559 15.8307 22.334 15.349 22.334 14.6719V3.89063C22.334 3.23307 22.2624 2.77083 22.1192 2.50391L15.2149 9.30079L22.0996 16.1172Z" fill="white" fill-opacity="0.85"/>
</g>
<defs>
<clipPath id="clip0_2_5807">
<rect width="21.5625" height="16.8457" fill="white" transform="translate(0.771484 0.853516)"/>
</clipPath>
</defs>
</svg>
