<svg width="21" height="21" viewBox="0 0 21 21" fill="none" xmlns="http://www.w3.org/2000/svg">
<g clip-path="url(#clip0_2_5632)">
<path d="M5.11584 14.7852C6.05986 15.7227 7.0527 16.5691 8.09436 17.3243C9.13603 18.0795 10.1777 18.6784 11.2194 19.1211C12.261 19.5638 13.2474 19.7852 14.1784 19.7852C14.8098 19.7852 15.399 19.6713 15.9459 19.4434C16.4928 19.2155 16.9876 18.8575 17.4303 18.3692C17.6842 18.0827 17.8877 17.7751 18.0407 17.4463C18.1937 17.1176 18.2702 16.7872 18.2702 16.4551C18.2702 16.2077 18.2197 15.9717 18.1188 15.7471C18.0178 15.5225 17.8502 15.3288 17.6159 15.1661L14.6276 13.0372C14.3997 12.8809 14.1881 12.7637 13.9928 12.6856C13.7975 12.6075 13.612 12.5684 13.4362 12.5684C13.2148 12.5684 13 12.6286 12.7917 12.7491C12.5833 12.8695 12.3685 13.0404 12.1471 13.2618L11.4538 13.9454C11.3496 14.0495 11.2259 14.1016 11.0827 14.1016C11.0045 14.1016 10.9313 14.0886 10.8629 14.0625C10.7945 14.0365 10.7343 14.0137 10.6823 13.9942C10.3828 13.8314 9.99543 13.5498 9.52014 13.1495C9.04488 12.7491 8.56637 12.308 8.08459 11.8262C7.60933 11.3445 7.16988 10.866 6.76623 10.3907C6.36259 9.91541 6.08264 9.52804 5.92639 9.22856C5.90035 9.17648 5.87594 9.11626 5.85315 9.0479C5.83037 8.97954 5.81897 8.90955 5.81897 8.83794C5.81897 8.69471 5.8678 8.57426 5.96545 8.47661L6.64905 7.76372C6.87041 7.54237 7.0413 7.32752 7.16174 7.11919C7.28218 6.91086 7.3424 6.69601 7.3424 6.47466C7.3424 6.29887 7.30334 6.11333 7.22522 5.91802C7.1471 5.72271 7.02665 5.51112 6.86389 5.28325L4.76428 2.32427C4.59501 2.08989 4.39319 1.91899 4.15881 1.81157C3.92444 1.70415 3.67704 1.65044 3.41662 1.65044C2.73954 1.65044 2.11129 1.93364 1.53186 2.50005C1.0566 2.95578 0.70992 3.45871 0.491821 4.00884C0.273722 4.55897 0.164673 5.14653 0.164673 5.77153C0.164673 6.70903 0.381144 7.69373 0.814087 8.72563C1.24703 9.75753 1.83785 10.7911 2.58655 11.8262C3.33525 12.8614 4.17834 13.8477 5.11584 14.7852ZM11.0534 6.33794C11.2161 6.33794 11.3512 6.28586 11.4586 6.18169C11.566 6.07752 11.6198 5.95057 11.6198 5.80083V4.31645C11.6198 4.1602 11.566 4.02837 11.4586 3.92095C11.3512 3.81352 11.2161 3.75981 11.0534 3.75981C10.9036 3.75981 10.7767 3.81352 10.6725 3.92095C10.5683 4.02837 10.5163 4.1602 10.5163 4.31645V5.80083C10.5163 5.95057 10.5683 6.07752 10.6725 6.18169C10.7767 6.28586 10.9036 6.33794 11.0534 6.33794ZM13.3581 7.97856C13.5143 7.97856 13.6445 7.92648 13.7487 7.82231C13.8528 7.71814 13.9049 7.58468 13.9049 7.42192V2.67583C13.9049 2.52609 13.8528 2.39751 13.7487 2.29009C13.6445 2.18266 13.5143 2.12895 13.3581 2.12895C13.2018 2.12895 13.07 2.18266 12.9626 2.29009C12.8551 2.39751 12.8014 2.52609 12.8014 2.67583V7.42192C12.8014 7.58468 12.8551 7.71814 12.9626 7.82231C13.07 7.92648 13.2018 7.97856 13.3581 7.97856ZM15.6432 9.66802C15.7994 9.66802 15.9313 9.61594 16.0387 9.51177C16.1461 9.4076 16.1999 9.27739 16.1999 9.12114V1.0059C16.1999 0.843145 16.1461 0.708054 16.0387 0.600632C15.9313 0.49321 15.7994 0.439499 15.6432 0.439499C15.4934 0.439499 15.3649 0.49321 15.2575 0.600632C15.15 0.708054 15.0963 0.843145 15.0963 1.0059V9.12114C15.0963 9.27739 15.1484 9.4076 15.2526 9.51177C15.3567 9.61594 15.4869 9.66802 15.6432 9.66802ZM17.9284 8.70122C18.0846 8.70122 18.2164 8.64751 18.3239 8.54009C18.4313 8.43266 18.485 8.30083 18.485 8.14458V1.95317C18.485 1.80343 18.4313 1.67648 18.3239 1.57231C18.2164 1.46814 18.0846 1.41606 17.9284 1.41606C17.7786 1.41606 17.65 1.46814 17.5426 1.57231C17.4352 1.67648 17.3815 1.80343 17.3815 1.95317V8.14458C17.3815 8.30083 17.4352 8.43266 17.5426 8.54009C17.65 8.64751 17.7786 8.70122 17.9284 8.70122ZM20.2233 6.85552C20.386 6.85552 20.5195 6.80344 20.6237 6.69927C20.7278 6.5951 20.7799 6.46489 20.7799 6.30864V3.79888C20.7799 3.64263 20.7278 3.51242 20.6237 3.40825C20.5195 3.30408 20.386 3.252 20.2233 3.252C20.0735 3.252 19.945 3.30571 19.8376 3.41313C19.7301 3.52056 19.6764 3.64914 19.6764 3.79888V6.30864C19.6764 6.45838 19.7301 6.58696 19.8376 6.69438C19.945 6.80181 20.0735 6.85552 20.2233 6.85552Z" fill="white" fill-opacity="0.85"/>
</g>
<defs>
<clipPath id="clip0_2_5632">
<rect width="20.6152" height="19.8535" fill="white" transform="translate(0.164673 0.439499)"/>
</clipPath>
</defs>
</svg>
