<svg width="18" height="23" viewBox="0 0 18 23" fill="none" xmlns="http://www.w3.org/2000/svg">
<g clip-path="url(#clip0_2_6315)">
<path d="M3.69254 22.6758H14.6008C15.408 22.6758 16.0607 22.4382 16.5588 21.9629C17.0568 21.4876 17.3059 20.8659 17.3059 20.0976V3.26169C17.3059 2.48695 17.0568 1.86195 16.5588 1.38669C16.0607 0.911428 15.408 0.673798 14.6008 0.673798H3.69254C2.88524 0.673798 2.23257 0.911428 1.73453 1.38669C1.23648 1.86195 0.987457 2.48695 0.987457 3.26169V20.0976C0.987457 20.8659 1.23648 21.4876 1.73453 21.9629C2.23257 22.4382 2.88524 22.6758 3.69254 22.6758ZM2.55973 19.3652V3.99411H15.7336V19.3652H2.55973ZM9.16129 21.709C8.92691 21.709 8.72672 21.626 8.5607 21.4599C8.39468 21.2939 8.31168 21.0937 8.31168 20.8593C8.31168 20.625 8.39468 20.4264 8.5607 20.2636C8.72672 20.1009 8.92691 20.0195 9.16129 20.0195C9.38915 20.0195 9.58609 20.1009 9.75211 20.2636C9.91812 20.4264 10.0011 20.625 10.0011 20.8593C10.0011 21.0937 9.91812 21.2939 9.75211 21.4599C9.58609 21.626 9.38915 21.709 9.16129 21.709ZM9.14176 2.99802C8.99852 2.99802 8.87482 2.94593 8.77066 2.84177C8.66649 2.7376 8.61441 2.61065 8.61441 2.46091C8.61441 2.31768 8.66649 2.19235 8.77066 2.08493C8.87482 1.97751 8.99852 1.9238 9.14176 1.9238C9.28498 1.9238 9.41031 1.97751 9.51773 2.08493C9.62515 2.19235 9.67887 2.31768 9.67887 2.46091C9.67887 2.61065 9.62515 2.7376 9.51773 2.84177C9.41031 2.94593 9.28498 2.99802 9.14176 2.99802Z" fill="white" fill-opacity="0.85"/>
</g>
<defs>
<clipPath id="clip0_2_6315">
<rect width="16.3184" height="22.0215" fill="white" transform="translate(0.987457 0.673798)"/>
</clipPath>
</defs>
</svg>
