<svg width="28" height="19" viewBox="0 0 28 19" fill="none" xmlns="http://www.w3.org/2000/svg">
<g clip-path="url(#clip0_2_15669)">
<path d="M12.7773 18.793H25.0429C25.8112 18.793 26.3516 18.6839 26.664 18.4658C26.9766 18.2477 27.1328 17.9238 27.1328 17.4941C27.1328 16.8691 26.9424 16.2083 26.5615 15.5117C26.1807 14.8151 25.6338 14.1624 24.9209 13.5537C24.208 12.945 23.3454 12.4502 22.333 12.0693C21.3206 11.6884 20.1797 11.498 18.9101 11.498C17.6471 11.498 16.5095 11.6884 15.4971 12.0693C14.4847 12.4502 13.6205 12.945 12.9043 13.5537C12.1882 14.1624 11.6413 14.8151 11.2637 15.5117C10.8861 16.2083 10.6972 16.8691 10.6972 17.4941C10.6972 17.9238 10.8519 18.2477 11.1611 18.4658C11.4704 18.6839 12.0091 18.793 12.7773 18.793ZM18.9199 9.75C19.6165 9.75 20.2611 9.55957 20.8535 9.17871C21.446 8.79785 21.9213 8.2819 22.2793 7.63086C22.6374 6.97982 22.8164 6.2474 22.8164 5.43359C22.8164 4.63281 22.6374 3.91504 22.2793 3.28027C21.9213 2.64551 21.446 2.14584 20.8535 1.78125C20.2611 1.41667 19.6165 1.23438 18.9199 1.23438C18.2233 1.23438 17.5788 1.41992 16.9863 1.79102C16.3939 2.16211 15.917 2.66667 15.5556 3.30469C15.1944 3.94271 15.0137 4.65886 15.0137 5.45313C15.0137 6.26042 15.1928 6.98795 15.5508 7.63574C15.9089 8.28353 16.3841 8.79785 16.9765 9.17871C17.569 9.55957 18.2168 9.75 18.9199 9.75ZM2.23047 18.793H9.64258C9.38867 18.4219 9.26823 17.9759 9.28125 17.4551C9.29427 16.9342 9.41471 16.3873 9.64258 15.8144C9.87045 15.2415 10.1846 14.6865 10.5849 14.1494C10.9853 13.6123 11.4492 13.1386 11.9765 12.7285C11.4297 12.3639 10.803 12.0628 10.0967 11.8252C9.3903 11.5875 8.58138 11.4687 7.66992 11.4687C6.56966 11.4687 5.57845 11.6494 4.69629 12.0107C3.81413 12.372 3.06218 12.8473 2.44043 13.4365C1.81868 14.0257 1.3418 14.6686 1.00977 15.3652C0.677734 16.0618 0.511719 16.7487 0.511719 17.4258C0.511719 17.862 0.643555 18.1989 0.907227 18.4365C1.1709 18.6742 1.61198 18.793 2.23047 18.793ZM7.66992 9.97461C8.2819 9.97461 8.84505 9.80859 9.35938 9.47656C9.8737 9.14453 10.2871 8.69369 10.5996 8.12402C10.9121 7.55436 11.0683 6.91797 11.0683 6.21484C11.0683 5.51172 10.9121 4.88509 10.5996 4.33496C10.2871 3.78483 9.87207 3.35189 9.35449 3.03613C8.83692 2.72038 8.27539 2.5625 7.66992 2.5625C7.07097 2.5625 6.5127 2.72363 5.99512 3.0459C5.47754 3.36817 5.05925 3.80599 4.74024 4.35938C4.42123 4.91276 4.26498 5.53776 4.27149 6.23438C4.27149 6.93099 4.42774 7.5625 4.74024 8.12891C5.05274 8.69532 5.46778 9.14453 5.98535 9.47656C6.50293 9.80859 7.06445 9.97461 7.66992 9.97461Z" fill="white" fill-opacity="0.85"/>
</g>
<defs>
<clipPath id="clip0_2_15669">
<rect width="26.6211" height="17.8809" fill="white" transform="translate(0.511719 0.912109)"/>
</clipPath>
</defs>
</svg>
