<svg width="24" height="21" viewBox="0 0 24 21" fill="none" xmlns="http://www.w3.org/2000/svg">
<g clip-path="url(#clip0_2_16537)">
<path d="M10.6256 20.3579C11.2051 20.3579 11.7828 20.3042 12.359 20.1967C12.9352 20.0893 13.4967 19.9347 14.0436 19.7329C14.1152 19.7068 14.1868 19.6808 14.2585 19.6547C14.3301 19.6287 14.3952 19.5994 14.4538 19.5668C14.2975 19.4041 14.1461 19.2267 13.9997 19.0346C13.8531 18.8425 13.7278 18.6489 13.6237 18.4536C13.5651 18.4796 13.5048 18.504 13.443 18.5268C13.3811 18.5496 13.3209 18.5708 13.2624 18.5903C12.416 17.2817 11.7861 15.9145 11.3727 14.4887C10.9593 13.063 10.7526 11.6307 10.7526 10.1918C10.7526 8.74001 10.9495 7.33214 11.3434 5.96821C11.7372 4.60429 12.3118 3.32662 13.067 2.13521C14.0696 2.43469 14.9843 2.90018 15.8112 3.53169C16.638 4.1632 17.3329 4.91516 17.8961 5.78755C18.4593 6.65994 18.8483 7.61046 19.0631 8.63911C19.2975 8.63911 19.5237 8.66678 19.7418 8.72212C19.9599 8.77746 20.2024 8.85396 20.4694 8.95161C20.2936 7.7602 19.916 6.64855 19.3366 5.61665C18.7571 4.58475 18.023 3.6798 17.1344 2.90181C16.2457 2.12382 15.2464 1.51835 14.1364 1.0854C13.0263 0.65246 11.8528 0.435989 10.6158 0.435989C9.25517 0.435989 7.97425 0.696407 6.77307 1.21724C5.5719 1.73807 4.51233 2.45747 3.59436 3.37544C2.67639 4.29341 1.95862 5.35298 1.44104 6.55415C0.923462 7.75532 0.664673 9.03624 0.664673 10.3969C0.664673 11.7576 0.92509 13.0369 1.44592 14.2348C1.96676 15.4327 2.68616 16.4891 3.60412 17.4038C4.5221 18.3185 5.58167 19.0362 6.78283 19.5571C7.98401 20.0779 9.26493 20.3448 10.6256 20.3579ZM10.6256 19.0297C9.44723 19.0297 8.3372 18.8035 7.29553 18.351C6.25387 17.8985 5.3359 17.2752 4.54162 16.4809C3.74736 15.6866 3.12399 14.7687 2.67151 13.727C2.21903 12.6853 1.99279 11.5753 1.99279 10.3969C1.99279 9.21853 2.2174 8.10852 2.66662 7.06685C3.11584 6.02519 3.73759 5.10721 4.53186 4.31294C5.32613 3.51867 6.2441 2.89529 7.28576 2.44282C8.32743 1.99035 9.43746 1.76411 10.6158 1.76411C11.039 1.76411 11.4524 1.79341 11.8561 1.852C11.1074 3.11502 10.5394 4.45128 10.152 5.86079C9.76461 7.2703 9.57092 8.71397 9.57092 10.1918C9.57092 11.2335 9.66532 12.2572 9.85412 13.2631C10.0429 14.269 10.3229 15.2439 10.694 16.1879C11.065 17.132 11.5208 18.0369 12.0612 18.9028C11.8268 18.9483 11.5908 18.9809 11.3532 19.0004C11.1155 19.0199 10.873 19.0297 10.6256 19.0297ZM2.23694 6.2563C3.03772 7.10917 3.93941 7.83833 4.94201 8.4438C5.94462 9.04927 7.01396 9.50988 8.15002 9.82564C9.28609 10.1414 10.4563 10.2993 11.6608 10.2993C13.08 10.2928 14.4521 10.0584 15.777 9.59614C17.1018 9.1339 18.3144 8.46984 19.4147 7.60396L18.8678 6.51021C17.8587 7.35005 16.7389 7.99295 15.5085 8.43892C14.2779 8.88488 12.9954 9.11112 11.6608 9.11763C9.929 9.12414 8.29 8.76932 6.74377 8.05318C5.19755 7.33703 3.87757 6.33443 2.78381 5.04536L2.23694 6.2563ZM6.026 18.5415L7.43225 18.8637C7.10022 18.076 6.84794 17.2687 6.67541 16.4418C6.50289 15.615 6.41011 14.7752 6.39709 13.9223C6.30595 12.3012 6.46708 10.7257 6.88049 9.19575C7.29391 7.6658 7.92867 6.23514 8.78479 4.90376C9.64091 3.57238 10.6907 2.39888 11.9342 1.38325L10.694 0.894973C9.4635 1.98873 8.42346 3.23059 7.57385 4.62056C6.72425 6.01053 6.09762 7.49491 5.69397 9.07368C5.29033 10.6524 5.13082 12.2751 5.21545 13.9418C5.22847 14.7231 5.30172 15.4978 5.43518 16.2661C5.56864 17.0343 5.76558 17.7928 6.026 18.5415ZM11.4069 14.5473C9.60999 14.5018 7.85543 14.1388 6.14319 13.4584C4.43095 12.7781 2.87496 11.7934 1.47522 10.5043L1.19202 11.8325C2.66337 13.089 4.29261 14.046 6.07971 14.7036C7.86682 15.3611 9.68811 15.7062 11.5436 15.7387L11.4069 14.5473ZM14.278 9.36177C14.0761 8.80188 13.9198 8.22408 13.8092 7.62837C13.6985 7.03267 13.6399 6.42883 13.6335 5.81685C13.6204 5.13326 13.6741 4.45617 13.7946 3.7856C13.915 3.11503 14.0956 2.46724 14.3366 1.84224L13.2038 1.51997C12.9433 2.20356 12.7496 2.90506 12.6227 3.62446C12.4957 4.34387 12.4388 5.07792 12.4518 5.82661C12.4648 7.15474 12.6991 8.45357 13.1549 9.7231L14.278 9.36177ZM6.37756 10.1821C6.80074 10.1821 7.16044 10.0324 7.45666 9.73286C7.75289 9.43338 7.901 9.07205 7.901 8.64888C7.901 8.2257 7.75289 7.866 7.45666 7.56978C7.16044 7.27355 6.80074 7.12544 6.37756 7.12544C5.95438 7.12544 5.59306 7.27355 5.29358 7.56978C4.9941 7.866 4.84436 8.2257 4.84436 8.64888C4.84436 9.07205 4.9941 9.43338 5.29358 9.73286C5.59306 10.0324 5.95438 10.1821 6.37756 10.1821ZM13.7116 10.6411C14.1217 10.6411 14.4733 10.4946 14.7663 10.2016C15.0592 9.90864 15.2057 9.55383 15.2057 9.13716C15.2057 8.72701 15.0592 8.37382 14.7663 8.07759C14.4733 7.78136 14.1217 7.63325 13.7116 7.63325C13.2949 7.63325 12.9384 7.78136 12.6422 8.07759C12.346 8.37382 12.1979 8.72701 12.1979 9.13716C12.1979 9.55383 12.346 9.90864 12.6422 10.2016C12.9384 10.4946 13.2949 10.6411 13.7116 10.6411ZM10.8991 16.5883C11.3157 16.5883 11.6722 16.4402 11.9684 16.144C12.2646 15.8478 12.4127 15.4848 12.4127 15.0551C12.4127 14.6384 12.2646 14.282 11.9684 13.9858C11.6722 13.6896 11.3157 13.5415 10.8991 13.5415C10.4759 13.5415 10.1145 13.6896 9.81506 13.9858C9.51558 14.282 9.36584 14.6384 9.36584 15.0551C9.36584 15.4848 9.51558 15.8478 9.81506 16.144C10.1145 16.4402 10.4759 16.5883 10.8991 16.5883ZM13.985 16.2172C13.985 16.7251 14.0631 17.1645 14.2194 17.5356C14.3756 17.9067 14.6165 18.2517 14.942 18.5708C15.2675 18.8898 15.6891 19.2137 16.2067 19.5424C16.7243 19.8712 17.3444 20.2504 18.067 20.6801C18.2232 20.7712 18.3925 20.8119 18.5749 20.8022C18.7571 20.7925 18.9134 20.7518 19.0436 20.6801C20.0071 20.1137 20.7884 19.6238 21.3874 19.2104C21.9863 18.797 22.4241 18.3641 22.7008 17.9116C22.9775 17.4591 23.1159 16.8943 23.1159 16.2172V12.3989C23.1159 12.0929 23.0524 11.8374 22.9254 11.6323C22.7984 11.4272 22.5787 11.2563 22.2663 11.1196C22.1035 11.0545 21.8788 10.9698 21.5924 10.8657C21.3059 10.7615 20.9999 10.6524 20.6745 10.5385C20.3489 10.4246 20.0478 10.3188 19.7711 10.2211C19.4944 10.1235 19.291 10.0486 19.1608 9.99653C18.9654 9.91841 18.7717 9.87772 18.5797 9.87446C18.3877 9.87121 18.207 9.89888 18.0377 9.95747C17.8815 10.0096 17.6601 10.0861 17.3737 10.187C17.0872 10.2879 16.7779 10.3985 16.4459 10.519C16.1139 10.6395 15.803 10.7534 15.5133 10.8608C15.2236 10.9682 15.0006 11.0545 14.8444 11.1196C14.5318 11.2563 14.3105 11.4272 14.1803 11.6323C14.0501 11.8374 13.985 12.0929 13.985 12.3989V16.2172ZM15.4206 16.0317V12.8579C15.4206 12.7146 15.4466 12.6023 15.4987 12.5209C15.5507 12.4396 15.6516 12.3696 15.8014 12.311C15.9772 12.2459 16.1692 12.1759 16.3776 12.101C16.5859 12.0261 16.7975 11.948 17.0124 11.8667C17.2272 11.7853 17.4387 11.7055 17.6471 11.6274C17.8554 11.5493 18.0442 11.4809 18.2135 11.4223C18.2786 11.3963 18.3372 11.3784 18.3893 11.3686C18.4413 11.3589 18.4967 11.354 18.5553 11.354V19.1958C18.4576 19.1958 18.36 19.1697 18.2624 19.1176C17.5202 18.6684 16.9424 18.3022 16.529 18.019C16.1155 17.7358 15.8274 17.451 15.6647 17.1645C15.5019 16.878 15.4206 16.5004 15.4206 16.0317Z" fill="white" fill-opacity="0.85"/>
</g>
<defs>
<clipPath id="clip0_2_16537">
<rect width="22.4512" height="20.8036" fill="white" transform="translate(0.664673)"/>
</clipPath>
</defs>
</svg>
