<svg width="30" height="173" viewBox="0 0 30 173" fill="none" xmlns="http://www.w3.org/2000/svg">
<path d="M17 20L26.547 5.04736e-07L3.45299 -5.04736e-07L13 20L17 20ZM13.5858 172.414C14.3668 173.195 15.6332 173.195 16.4142 172.414L29.1421 159.686C29.9232 158.905 29.9232 157.639 29.1421 156.858C28.3611 156.077 27.0948 156.077 26.3137 156.858L15 168.172L3.68628 156.858C2.90524 156.077 1.63891 156.077 0.857858 156.858C0.0768089 157.639 0.0768088 158.905 0.857857 159.686L13.5858 172.414ZM13 18L13 171L17 171L17 18L13 18Z" fill="url(#paint0_linear_693_2)"/>
<defs>
<linearGradient id="paint0_linear_693_2" x1="14.4999" y1="-2.18607e-08" x2="14.4999" y2="170.99" gradientUnits="userSpaceOnUse">
<stop stop-color="#425DA7"/>
<stop offset="0.53" stop-color="#00B4CE"/>
<stop offset="1" stop-color="#5B5BA5"/>
</linearGradient>
</defs>
</svg>
