<?xml version="1.0" encoding="UTF-8"?><svg id="Ebene_2" xmlns="http://www.w3.org/2000/svg" viewBox="0 0 171.67 230.44"><defs><style>.cls-1{fill:#fff;}</style></defs><g id="Ebene_1-2"><g><path class="cls-1" d="M82.63,88.16v47.5L13.77,101.22l-2.78-1.39,40.53-20.32-7.36-3.69L6.89,94.46V50.28l75.75,37.87Zm54.47-.23l23.82,11.91-30.45,15.49v-47.55l34.56-17.58v44.27l-27.93-13.97v7.43ZM85.95,0L.24,42.86v59.03l89.03,44.52v-62.35l-23.43-11.72-7.35-3.68L10.99,44.91,82.63,9.09V56.59l-16.79,8.39,7.51,3.67,12.6-6.3,31.23,15.62v-7.43s-27.91-13.96-27.91-13.96V9.09h0s71.52,35.75,71.52,35.75l-36.97,18.74v62.3l47.85-23.96V42.85L85.95,0Z"/><g><path class="cls-1" d="M39.12,215.75c1.02-2.46,1.54-5.1,1.54-7.93s-.51-5.47-1.54-7.93c-1.02-2.46-2.46-4.62-4.3-6.48s-3.99-3.29-6.45-4.3c-2.46-1-5.14-1.51-8.04-1.51s-5.53,.5-7.99,1.51c-2.46,1.01-4.61,2.44-6.45,4.3s-3.29,4.01-4.33,6.45c-1.04,2.44-1.56,5.07-1.56,7.9s.52,5.47,1.56,7.93c1.04,2.46,2.49,4.62,4.36,6.48,1.86,1.86,4.03,3.31,6.51,4.36,2.48,1.04,5.15,1.56,8.01,1.56s5.48-.51,7.96-1.54c1.37-.57,2.62-1.27,3.79-2.09l5.95,5.97,4.63-4.69-5.93-5.93c.89-1.25,1.66-2.6,2.27-4.06Zm-12.23,3.63c-1.88,1.12-4.07,1.68-6.56,1.68-1.82,0-3.51-.33-5.05-.98-1.55-.65-2.87-1.55-3.96-2.71-1.1-1.15-1.95-2.55-2.57-4.19-.61-1.64-.92-3.44-.92-5.42,0-2.61,.53-4.9,1.59-6.87,1.06-1.97,2.53-3.51,4.41-4.61,1.88-1.1,4.05-1.65,6.51-1.65,1.86,0,3.56,.32,5.08,.95s2.85,1.54,3.97,2.71c1.12,1.17,1.97,2.56,2.57,4.16,.59,1.6,.89,3.37,.89,5.3,0,2.5-.48,4.7-1.42,6.62l-6.62-6.62-4.63,4.63,6.86,6.89s-.09,.07-.14,.09Z"/><path class="cls-1" d="M66.17,215.98c0,1.68-.43,2.98-1.28,3.91-.86,.93-2.05,1.4-3.57,1.4-1,0-1.88-.21-2.62-.62-.75-.41-1.3-1.01-1.68-1.81-.37-.8-.56-1.76-.56-2.88v-15.47h-7.37v15.64c0,2.35,.52,4.41,1.56,6.2,1.04,1.79,2.49,3.17,4.36,4.16,1.86,.99,3.96,1.48,6.31,1.48s4.44-.49,6.28-1.48,3.28-2.37,4.33-4.16,1.56-3.85,1.56-6.2v-15.64h-7.32v15.47Z"/><rect class="cls-1" x="82.03" y="200.51" width="7.43" height="26.97"/><path class="cls-1" d="M85.77,187.78c-1.19,0-2.18,.41-2.96,1.23-.78,.82-1.17,1.81-1.17,2.96s.39,2.19,1.17,2.99c.78,.8,1.77,1.2,2.96,1.2s2.22-.4,2.99-1.2c.76-.8,1.14-1.8,1.14-2.99s-.38-2.14-1.14-2.96c-.76-.82-1.76-1.23-2.99-1.23Z"/><rect class="cls-1" x="98.73" y="187.11" width="7.31" height="40.37"/><path class="cls-1" d="M134.35,203.08c-.75-.78-1.62-1.44-2.62-1.96-1.53-.78-3.24-1.17-5.14-1.17-2.49,0-4.72,.61-6.67,1.84s-3.49,2.9-4.61,5.03-1.68,4.52-1.68,7.2,.56,5.03,1.68,7.15c1.12,2.12,2.65,3.8,4.61,5.03,1.95,1.23,4.16,1.84,6.62,1.84,1.94,0,3.68-.39,5.22-1.17,1-.51,1.86-1.16,2.6-1.93v2.54h7.37v-26.97h-7.37v2.57Zm-1.45,16.14c-1.27,1.38-2.92,2.07-4.97,2.07-1.3,0-2.48-.32-3.52-.95-1.04-.63-1.85-1.49-2.43-2.57-.58-1.08-.87-2.35-.87-3.8s.29-2.66,.87-3.74c.58-1.08,1.38-1.94,2.4-2.57s2.21-.95,3.55-.95,2.57,.31,3.57,.92c1,.61,1.81,1.48,2.4,2.6,.59,1.12,.89,2.38,.89,3.8,0,2.08-.63,3.82-1.9,5.19Z"/><path class="cls-1" d="M168.72,200.59c-1.02-.43-2.21-.64-3.55-.64-3.01,0-5.32,.96-6.92,2.88-.02,.02-.04,.06-.06,.08v-2.4h-7.32v26.97h7.32v-14.85c0-2.05,.49-3.56,1.48-4.52s2.26-1.45,3.83-1.45c.74,0,1.4,.1,1.98,.31,.58,.21,1.07,.55,1.48,1.03l4.58-5.31c-.86-.97-1.8-1.67-2.82-2.09Z"/></g></g></g></svg>