<?xml version="1.0" encoding="UTF-8"?><svg id="Ebene_2" xmlns="http://www.w3.org/2000/svg" viewBox="0 0 171.43 146.4"><defs><style>.cls-1{fill:#fff;}</style></defs><g id="Ebene_1-2"><path class="cls-1" d="M82.39,88.16v47.5L13.53,101.22l-2.78-1.39,40.53-20.32-7.36-3.69L6.64,94.46V50.28l75.75,37.87Zm54.47-.23l23.82,11.91-30.45,15.49v-47.55l34.56-17.58v44.27l-27.93-13.97v7.43ZM85.71,0L0,42.86v59.03l89.03,44.52v-62.35l-23.43-11.72-7.35-3.68L10.75,44.91,82.39,9.09V56.59l-16.79,8.39,7.51,3.67,12.6-6.3,31.23,15.62v-7.43s-27.91-13.96-27.91-13.96V9.09h0s71.52,35.75,71.52,35.75l-36.97,18.74v62.3l47.85-23.96V42.85L85.71,0Z"/></g></svg>